<svg width="498" height="171" viewBox="0 0 498 171" fill="none" xmlns="http://www.w3.org/2000/svg">
<path d="M70.32 30.5361C69.232 40.0721 67.312 49.1281 64.56 57.7041C61.872 66.2801 58.416 73.8321 54.192 80.3601C49.968 86.8881 45.04 92.0721 39.408 95.9121C33.84 99.7521 27.6 101.672 20.688 101.672C18.576 101.672 16.56 101.384 14.64 100.808C12.72 100.296 11.056 99.4961 9.64801 98.4081C8.24001 97.3841 7.12001 96.0721 6.28801 94.4721C5.45601 92.9361 5.04001 91.1121 5.04001 89.0001C5.04001 86.9521 5.58401 84.7441 6.67201 82.3761C7.82401 80.0081 9.42401 77.8321 11.472 75.8481C13.52 73.8641 15.952 72.2321 18.768 70.9521C21.648 69.6081 24.816 68.9361 28.272 68.9361C30.512 68.9361 32.4 69.4481 33.936 70.4721C35.536 71.4321 36.432 73.0321 36.624 75.2721C36.624 76.0401 36.4 76.7441 35.952 77.3841C35.568 78.0881 35.024 78.6641 34.32 79.1121C33.68 79.6241 32.944 80.0081 32.112 80.2641C31.28 80.5841 30.448 80.7441 29.616 80.7441C28.08 80.7441 27.024 80.2961 26.448 79.4001C25.936 78.5041 25.52 77.5761 25.2 76.6161C25.072 76.1041 24.88 75.6241 24.624 75.1761C24.368 74.6641 24.016 74.4081 23.568 74.4081C22.288 74.4081 20.912 74.8561 19.44 75.7521C18.032 76.6481 16.688 77.7681 15.408 79.1121C14.128 80.5201 13.072 82.0561 12.24 83.7201C11.408 85.3841 10.992 86.9521 10.992 88.4241C10.992 89.9601 11.408 91.4001 12.24 92.7441C13.072 94.0881 14.416 94.7601 16.272 94.7601C20.24 94.7601 23.888 93.5441 27.216 91.1121C30.608 88.7441 33.648 85.5441 36.336 81.5121C39.024 77.4801 41.392 72.8401 43.44 67.5921C45.488 62.2801 47.184 56.7441 48.528 50.9841C49.936 45.2241 50.992 39.4321 51.696 33.6081C52.464 27.7201 52.88 22.1521 52.944 16.9041C49.744 18.3761 46.48 20.0081 43.152 21.8001C39.888 23.5281 36.912 25.4481 34.224 27.5601C31.6 29.6721 29.424 31.9761 27.696 34.4721C26.032 36.9041 25.2 39.4961 25.2 42.2481C25.2 43.5281 25.648 44.6161 26.544 45.5121C27.504 46.3441 28.624 46.7601 29.904 46.7601C31.376 46.7601 32.72 46.2161 33.936 45.1281C35.216 44.0401 36.016 42.6641 36.336 41.0001V41.0961C36.4 40.2001 36.72 39.5921 37.296 39.2721C37.936 38.9521 38.672 38.7921 39.504 38.7921C40.144 38.7921 40.816 38.9201 41.52 39.1761C42.288 39.4321 42.96 39.7841 43.536 40.2321C44.176 40.6801 44.688 41.2241 45.072 41.8641C45.52 42.4401 45.744 43.0801 45.744 43.7841C45.744 45.0001 45.264 46.1521 44.304 47.2401C43.344 48.2641 42.128 49.1601 40.656 49.9281C39.184 50.6961 37.552 51.3041 35.76 51.7521C33.968 52.2001 32.24 52.4241 30.576 52.4241C27.056 52.4241 24.304 51.5281 22.32 49.7361C20.4 47.9441 19.44 45.5761 19.44 42.6321C19.44 40.3921 19.984 38.0881 21.072 35.7201C22.224 33.3521 23.408 31.4001 24.624 29.8641C26.544 27.4321 29.008 25.0641 32.016 22.7601C35.024 20.3921 38.352 18.2161 42 16.2321C42.32 16.0401 42.736 15.8161 43.248 15.5601C43.76 15.3041 44.336 15.0161 44.976 14.6961C46.512 13.8641 48.336 12.8721 50.448 11.7201C52.56 10.5681 54.672 9.48009 56.784 8.45609C58.96 7.43209 61.04 6.56809 63.024 5.86409C65.008 5.09609 66.64 4.71209 67.92 4.71209C68.752 4.71209 69.392 4.96809 69.84 5.48009C70.352 5.92809 70.704 6.50409 70.896 7.20809C71.088 7.91209 71.184 8.71209 71.184 9.60809C71.248 10.5041 71.248 11.3681 71.184 12.2001C71.184 12.4561 71.152 12.7761 71.088 13.1601C71.088 13.4801 71.088 13.7681 71.088 14.0241C71.088 16.6481 71.024 19.3361 70.896 22.0881C70.832 24.8401 70.64 27.6561 70.32 30.5361Z" fill="white"/>
<path d="M112.545 41.4801C112.417 42.9521 112.129 44.4881 111.681 46.0881C111.233 47.6881 110.657 49.2881 109.953 50.8881C109.313 52.4881 108.609 54.0881 107.841 55.6881C107.073 57.2881 106.337 58.7921 105.633 60.2001C104.609 62.1841 103.713 63.9761 102.945 65.5761C102.241 67.1761 101.889 68.4241 101.889 69.3201C101.889 69.9601 102.273 70.2801 103.041 70.2801C103.553 70.2801 104.289 69.8321 105.249 68.9361C106.273 68.0401 107.361 66.8881 108.513 65.4801C109.665 64.0721 110.849 62.5041 112.065 60.7761C113.345 59.0481 114.529 57.3201 115.617 55.5921C116.705 53.8001 117.665 52.1361 118.497 50.6001C119.393 49.0001 120.033 47.6881 120.417 46.6641C120.865 45.5121 121.665 44.9361 122.817 44.9361C123.521 44.9361 124.129 45.1601 124.641 45.6081C125.217 45.9921 125.505 46.5361 125.505 47.2401C125.505 47.3681 125.473 47.5601 125.409 47.8161C125.345 48.0081 125.281 48.1681 125.217 48.2961C124.577 49.5761 123.713 51.1761 122.625 53.0961C121.601 54.9521 120.385 56.9361 118.977 59.0481C117.633 61.1601 116.161 63.2721 114.561 65.3841C113.025 67.4961 111.425 69.4161 109.761 71.1441C108.097 72.8081 106.433 74.1841 104.769 75.2721C103.105 76.2961 101.505 76.8081 99.969 76.8081C98.689 76.8081 97.569 76.5521 96.609 76.0401C95.649 75.4641 94.849 74.6961 94.209 73.7361C93.569 72.7761 93.057 71.6561 92.673 70.3761C92.353 69.0961 92.193 67.7521 92.193 66.3441C92.193 64.3601 92.417 62.3761 92.865 60.3921C93.377 58.3441 93.985 56.3921 94.689 54.5361C95.457 52.6161 96.289 50.7921 97.185 49.0641C98.081 47.2721 98.913 45.6081 99.681 44.0721C100.577 42.2801 101.345 40.7121 101.985 39.3681C102.689 38.0241 103.041 37.0001 103.041 36.2961C103.041 35.7841 102.689 35.5281 101.985 35.5281C101.409 35.5281 100.513 36.0081 99.297 36.9681C98.081 37.8641 96.737 39.0801 95.265 40.6161C93.793 42.0881 92.289 43.7521 90.753 45.6081C89.217 47.4641 87.841 49.3201 86.625 51.1761L86.721 51.0801C86.145 52.2961 85.537 53.5121 84.897 54.7281C84.257 55.9441 83.617 57.1281 82.977 58.2801C81.313 61.2241 79.873 63.9441 78.657 66.4401C77.505 68.9361 76.929 70.8881 76.929 72.2961C76.929 72.5521 76.961 72.7761 77.025 72.9681C77.089 73.0961 77.153 73.2561 77.217 73.4481C77.281 73.5761 77.313 73.8001 77.313 74.1201C77.313 74.8881 76.865 75.5601 75.969 76.1361C75.073 76.7121 74.017 77.0001 72.801 77.0001C72.225 77.0001 71.553 76.8721 70.785 76.6161C69.953 76.3601 69.185 75.9441 68.481 75.3681C67.777 74.7281 67.169 73.8961 66.657 72.8721C66.145 71.8481 65.889 70.5681 65.889 69.0321C65.889 67.6241 66.145 66.0241 66.657 64.2321C67.105 62.4401 67.713 60.5521 68.481 58.5681C69.249 56.5841 70.113 54.5681 71.073 52.5201C71.969 50.4081 72.897 48.3921 73.857 46.4721C75.201 43.5281 76.385 40.8721 77.409 38.5041C78.433 36.0721 78.945 34.3121 78.945 33.2241C78.945 33.0961 78.881 32.9041 78.753 32.6481C78.625 32.5201 78.529 32.4241 78.465 32.3601C78.401 32.2321 78.369 32.0081 78.369 31.6881C78.369 30.9841 78.913 30.3761 80.001 29.8641C81.089 29.2881 82.369 29.0001 83.841 29.0001C84.609 29.0001 85.441 29.1281 86.337 29.3841C87.233 29.5761 88.065 29.9601 88.833 30.5361C89.601 31.1121 90.241 31.9121 90.753 32.9361C91.265 33.8961 91.521 35.1121 91.521 36.5841V37.0641C93.761 34.8241 96.001 32.9361 98.241 31.4001C100.481 29.8001 102.689 29.0001 104.865 29.0001C107.297 29.0001 109.217 29.8961 110.625 31.6881C112.033 33.4161 112.737 35.8161 112.737 38.8881C112.737 39.4001 112.705 39.8481 112.641 40.2321C112.641 40.6161 112.609 41.0321 112.545 41.4801Z" fill="white"/>
<path d="M108.929 26.0241C108.865 26.9201 108.609 27.6241 108.161 28.1361C107.713 28.5841 107.169 28.8081 106.529 28.8081C105.761 28.8081 104.993 28.3281 104.225 27.3681C103.393 26.4081 102.977 24.9361 102.977 22.9521C102.977 20.7121 103.457 18.8561 104.417 17.3841C105.377 15.9121 106.721 14.7601 108.449 13.9281C110.113 13.0961 112.129 12.5201 114.497 12.2001C116.801 11.8801 119.297 11.7201 121.985 11.7201C124.033 11.7201 126.145 11.7841 128.321 11.9121C130.497 12.0401 132.769 12.2001 135.137 12.3921C135.841 10.6001 136.417 8.93609 136.865 7.40009C137.377 5.86409 137.633 4.77609 137.633 4.13609C137.633 4.00809 137.601 3.91209 137.537 3.84809C137.345 3.72009 137.249 3.46409 137.249 3.08009C137.249 2.37609 137.761 1.76809 138.785 1.25609C139.873 0.68009 141.153 0.39209 142.625 0.39209C143.393 0.39209 144.225 0.52009 145.121 0.776091C146.017 0.968092 146.849 1.35209 147.617 1.92809C148.385 2.44009 149.025 3.14409 149.537 4.04009C150.049 4.93609 150.305 6.08809 150.305 7.49609C150.305 9.16009 149.985 11.1441 149.345 13.4481H151.937C154.305 13.4481 156.609 13.3841 158.849 13.2561C161.089 13.1281 163.073 12.9361 164.801 12.6801C166.529 12.4241 167.905 12.1041 168.929 11.7201C170.017 11.3361 170.561 10.8561 170.561 10.2801C170.561 8.74409 171.233 7.97609 172.577 7.97609C173.281 7.97609 174.081 8.39209 174.977 9.22409C175.873 9.99209 176.321 10.8881 176.321 11.9121C176.321 13.0001 175.489 14.0561 173.825 15.0801C172.225 16.1041 170.049 17.0001 167.297 17.7681C164.609 18.5361 161.473 19.1761 157.889 19.6881C154.305 20.2001 150.561 20.5201 146.657 20.6481C145.249 24.1041 143.553 27.7841 141.569 31.6881C139.649 35.5921 137.761 39.4641 135.905 43.3041C134.433 46.1841 133.025 49.0001 131.681 51.7521C130.401 54.5041 129.217 57.0321 128.129 59.3361C127.105 61.6401 126.273 63.6881 125.633 65.4801C125.057 67.2081 124.769 68.5521 124.769 69.5121C124.769 70.0241 124.865 70.2801 125.057 70.2801C125.633 70.2801 126.401 69.8641 127.361 69.0321C128.321 68.1361 129.377 66.9841 130.529 65.5761C131.681 64.1681 132.865 62.6001 134.081 60.8721C135.361 59.1441 136.545 57.4161 137.633 55.6881C138.785 53.8961 139.777 52.2321 140.609 50.6961C141.505 49.0961 142.145 47.7521 142.529 46.6641C142.977 45.5121 143.777 44.9361 144.929 44.9361C145.633 44.9361 146.241 45.1601 146.753 45.6081C147.329 45.9921 147.617 46.5361 147.617 47.2401C147.617 47.3681 147.585 47.5601 147.521 47.8161C147.457 48.0081 147.393 48.1681 147.329 48.2961C146.689 49.5761 145.825 51.1761 144.737 53.0961C143.713 54.9521 142.497 56.9361 141.089 59.0481C139.745 61.1601 138.273 63.2721 136.673 65.3841C135.137 67.4961 133.537 69.4161 131.873 71.1441C130.209 72.8081 128.545 74.1841 126.881 75.2721C125.217 76.2961 123.617 76.8081 122.081 76.8081C119.585 76.8081 117.665 75.9441 116.321 74.2161C114.913 72.4241 114.209 69.9921 114.209 66.9201C114.209 66.4721 114.241 66.0561 114.305 65.6721C114.305 65.2241 114.337 64.7761 114.401 64.3281C114.593 62.7921 115.105 60.8081 115.937 58.3761C116.769 55.8801 117.793 53.1281 119.009 50.1201C120.225 47.0481 121.569 43.8161 123.041 40.4241C124.513 37.0321 125.985 33.6401 127.457 30.2481L131.681 20.6481C128.545 20.6481 125.601 20.7121 122.849 20.8401C120.097 20.9041 117.729 21.1281 115.745 21.5121C113.697 21.8321 112.065 22.3441 110.849 23.0481C109.633 23.7521 108.993 24.7121 108.929 25.9281V26.0241Z" fill="white"/>
<path d="M181.934 45.2241C182.766 45.7361 183.182 46.4401 183.182 47.3361C183.182 47.4641 183.15 47.6561 183.086 47.9121C183.022 48.1681 182.926 48.4561 182.798 48.7761C181.326 51.7841 179.47 54.9201 177.23 58.1841C174.99 61.4481 172.494 64.4561 169.742 67.2081C166.99 69.9601 164.046 72.2321 160.91 74.0241C157.838 75.8161 154.702 76.7121 151.502 76.7121C149.006 76.7121 146.894 76.2961 145.166 75.4641C143.438 74.6321 142.062 73.5761 141.038 72.2961C139.95 70.9521 139.182 69.4801 138.734 67.8801C138.222 66.2161 137.966 64.5521 137.966 62.8881C137.966 60.8401 138.286 58.6961 138.926 56.4561C139.502 54.1521 140.142 52.0721 140.846 50.2161C144.046 42.9841 147.886 37.6081 152.366 34.0881C156.91 30.5681 161.518 28.8081 166.19 28.8081C168.942 28.8081 170.926 29.4481 172.142 30.7281C173.422 32.0081 174.062 33.6721 174.062 35.7201C174.062 37.5761 173.55 39.6241 172.526 41.8641C171.502 44.1041 170.03 46.2801 168.11 48.3921C166.19 50.5041 163.854 52.4561 161.102 54.2481C158.414 56.0401 155.406 57.3841 152.078 58.2801C151.758 59.4961 151.502 60.6481 151.31 61.7361C151.182 62.8241 151.118 63.9121 151.118 65.0001C151.118 66.7921 151.374 68.1681 151.886 69.1281C152.398 70.0241 153.294 70.4721 154.574 70.4721C156.558 70.4721 158.734 69.6401 161.102 67.9761C163.534 66.3121 165.838 64.2641 168.014 61.8321C170.254 59.3361 172.27 56.7121 174.062 53.9601C175.854 51.2081 177.198 48.7441 178.094 46.5681C178.478 45.4801 179.31 44.9361 180.59 44.9361C180.782 44.9361 180.974 44.9681 181.166 45.0321C181.422 45.0321 181.71 45.1281 182.03 45.3201L181.934 45.2241ZM167.63 34.5681C166.03 34.6961 164.014 36.2961 161.582 39.3681C159.15 42.4401 156.686 46.6961 154.19 52.1361C156.622 51.1121 158.734 49.8961 160.526 48.4881C162.318 47.0161 163.79 45.5441 164.942 44.0721C166.094 42.5361 166.958 41.0641 167.534 39.6561C168.11 38.1841 168.398 36.9681 168.398 36.0081C168.398 35.3041 168.142 34.8241 167.63 34.5681Z" fill="white"/>
<path d="M182.617 49.2561C182.105 50.1521 181.337 50.6001 180.313 50.6001C179.609 50.6001 179.001 50.3761 178.489 49.9281C177.977 49.4801 177.721 48.9041 177.721 48.2001C177.721 47.8161 177.977 47.0801 178.489 45.9921C178.937 44.8401 179.449 43.5921 180.025 42.2481C180.537 41.0321 181.049 39.8161 181.561 38.6001C182.073 37.3841 182.489 36.2641 182.809 35.2401C181.401 34.3441 180.185 33.1601 179.161 31.6881C178.137 30.1521 177.625 28.6481 177.625 27.1761C177.625 25.0641 178.201 23.2401 179.353 21.7041C180.505 20.1041 182.297 19.3041 184.729 19.3041C186.201 19.3041 187.513 19.9121 188.665 21.1281C189.881 22.2801 190.489 23.7201 190.489 25.4481C190.489 26.2161 190.457 27.2081 190.393 28.4241C190.329 29.6401 190.201 30.7281 190.009 31.6881C190.649 31.8161 191.289 31.8801 191.929 31.8801C193.273 31.8801 194.297 31.7201 195.001 31.4001C195.769 31.0161 196.473 30.6321 197.113 30.2481V30.3441C197.753 30.0241 198.393 29.7361 199.033 29.4801C199.673 29.1601 200.441 29.0001 201.337 29.0001C202.105 29.0001 202.937 29.1281 203.833 29.3841C204.793 29.5761 205.657 29.9921 206.425 30.6321C207.257 31.2081 207.929 32.0081 208.441 33.0321C208.953 34.0561 209.209 35.3361 209.209 36.8721C209.209 38.2801 208.921 39.8801 208.345 41.6721C207.833 43.4001 207.129 45.2241 206.233 47.1441C205.401 49.0641 204.473 50.9841 203.449 52.9041C202.425 54.7601 201.433 56.5521 200.473 58.2801C199.129 60.7121 197.913 62.9841 196.825 65.0961C195.737 67.2081 195.193 68.7441 195.193 69.7041C195.193 70.0881 195.417 70.2801 195.865 70.2801C196.377 70.2801 197.113 69.8641 198.073 69.0321C199.033 68.2001 200.089 67.1121 201.241 65.7681C202.457 64.3601 203.673 62.8241 204.889 61.1601C206.169 59.4321 207.353 57.7041 208.441 55.9761C209.593 54.1841 210.617 52.4881 211.513 50.8881C212.409 49.2241 213.081 47.8161 213.529 46.6641C213.977 45.5121 214.777 44.9361 215.929 44.9361C216.633 44.9361 217.241 45.1601 217.753 45.6081C218.329 45.9921 218.617 46.5361 218.617 47.2401C218.617 47.3681 218.585 47.5601 218.521 47.8161C218.457 48.0081 218.393 48.1681 218.329 48.2961C217.689 49.5761 216.825 51.1761 215.737 53.0961C214.713 54.9521 213.497 56.9361 212.089 59.0481C210.745 61.1601 209.273 63.2721 207.673 65.3841C206.137 67.4961 204.537 69.4161 202.873 71.1441C201.209 72.8081 199.545 74.1841 197.881 75.2721C196.217 76.2961 194.617 76.8081 193.081 76.8081C190.585 76.8081 188.633 75.9441 187.225 74.2161C185.881 72.4241 185.209 69.9921 185.209 66.9201C185.209 65.1921 185.433 63.3681 185.881 61.4481C186.393 59.5281 187.001 57.5761 187.705 55.5921C188.473 53.5441 189.273 51.5281 190.105 49.5441C191.001 47.5601 191.865 45.6401 192.697 43.7841C193.465 42.1201 194.073 40.8721 194.521 40.0401C194.969 39.1441 195.353 38.1521 195.673 37.0641C194.457 37.3201 193.113 37.4481 191.641 37.4481C190.425 37.4481 189.241 37.3521 188.089 37.1601C187.833 37.8641 187.449 38.7921 186.937 39.9441C186.489 41.0321 185.977 42.1841 185.401 43.4001C184.889 44.6161 184.377 45.7681 183.865 46.8561C183.353 47.9441 182.937 48.7761 182.617 49.3521V49.2561Z" fill="white"/>
<path d="M250.793 34.2801C250.985 35.1761 251.081 36.2321 251.081 37.4481C251.081 39.6241 250.697 42.1201 249.929 44.9361C249.161 47.6881 248.073 50.5361 246.665 53.4801C245.321 56.4241 243.657 59.3041 241.673 62.1201C239.753 64.9361 237.609 67.4641 235.241 69.7041C232.937 71.8801 230.441 73.6401 227.753 74.9841C225.065 76.3281 222.281 77.0001 219.401 77.0001C217.353 77.0001 215.625 76.7441 214.217 76.2321C212.745 75.7201 211.593 75.0161 210.761 74.1201C209.865 73.2241 209.225 72.1361 208.841 70.8561C208.457 69.5761 208.265 68.2001 208.265 66.7281C208.265 65.1921 208.489 63.4641 208.937 61.5441C209.321 59.6241 209.865 57.6721 210.569 55.6881C211.209 53.6401 211.945 51.6241 212.777 49.6401C213.545 47.5921 214.281 45.7041 214.985 43.9761C216.009 41.6081 216.873 39.4641 217.577 37.5441C218.281 35.6241 218.633 34.1841 218.633 33.2241C218.633 33.0961 218.569 32.9041 218.441 32.6481C218.313 32.5201 218.217 32.4241 218.153 32.3601C218.089 32.2321 218.057 32.0081 218.057 31.6881C218.057 30.9841 218.569 30.3761 219.593 29.8641C220.681 29.2881 221.961 29.0001 223.433 29.0001C224.265 29.0001 225.129 29.1281 226.025 29.3841C226.921 29.6401 227.753 30.0561 228.521 30.6321C229.289 31.2081 229.929 32.0081 230.441 33.0321C230.953 34.0561 231.209 35.3361 231.209 36.8721C231.209 38.2161 230.985 39.6881 230.537 41.2881C230.089 42.8241 229.513 44.4241 228.809 46.0881C228.169 47.7521 227.401 49.4481 226.505 51.1761C225.609 52.9041 224.745 54.6001 223.913 56.2641V56.1681C222.505 58.8561 221.257 61.3841 220.169 63.7521C219.081 66.0561 218.537 67.9441 218.537 69.4161C218.537 70.1201 218.697 70.6321 219.017 70.9521C219.337 71.2081 219.945 71.3361 220.841 71.3361C222.505 71.3361 224.105 70.5681 225.641 69.0321C227.241 67.4321 228.681 65.4481 229.961 63.0801C231.305 60.6481 232.521 57.9601 233.609 55.0161C234.697 52.0081 235.625 49.0961 236.393 46.2801C237.225 43.4641 237.833 40.9041 238.217 38.6001C238.665 36.2321 238.889 34.4721 238.889 33.3201C238.889 33.0001 238.857 32.7761 238.793 32.6481C238.793 32.4561 238.761 32.2961 238.697 32.1681C238.697 32.0401 238.665 31.9761 238.601 31.9761C238.601 31.9121 238.601 31.8481 238.601 31.7841C238.601 31.2081 239.145 30.6001 240.233 29.9601C241.321 29.3201 242.601 29.0001 244.073 29.0001C245.417 29.0001 246.729 29.3841 248.009 30.1521C249.353 30.8561 250.281 32.2001 250.793 34.1841V34.2801Z" fill="white"/>
<path d="M274.2 25.2561C274.2 25.7681 273.944 26.1841 273.432 26.5041C272.984 26.7601 272.376 26.8881 271.608 26.8881C270.84 26.8881 269.944 26.7281 268.92 26.4081C267.896 26.0881 266.904 25.6401 265.944 25.0641C265.048 24.4241 264.248 23.6241 263.544 22.6641C262.904 21.7041 262.584 20.5521 262.584 19.2081C262.584 18.6321 262.808 17.9601 263.256 17.1921C263.704 16.3601 264.184 15.4961 264.696 14.6001C265.08 13.8961 265.432 13.2561 265.752 12.6801C266.136 12.0401 266.328 11.6241 266.328 11.4321C266.328 10.4081 267.128 9.89609 268.728 9.89609C269.432 9.89609 270.296 10.0561 271.32 10.3761C272.344 10.6961 273.304 11.1761 274.2 11.8161C275.16 12.3921 275.96 13.1601 276.6 14.1201C277.24 15.0801 277.56 16.2321 277.56 17.5761C277.56 18.0241 277.368 18.6001 276.984 19.3041C276.664 20.0081 276.312 20.7121 275.928 21.4161C275.48 22.1201 275.064 22.8561 274.68 23.6241C274.36 24.3921 274.2 24.9361 274.2 25.2561ZM281.016 48.2961C280.504 49.3841 279.736 50.8561 278.712 52.7121C277.752 54.5041 276.6 56.4561 275.256 58.5681C273.912 60.6801 272.44 62.8241 270.84 65.0001C269.24 67.1121 267.576 69.0641 265.848 70.8561C264.184 72.5841 262.488 74.0241 260.76 75.1761C259.032 76.2641 257.368 76.8081 255.768 76.8081C253.272 76.8081 251.352 75.9441 250.008 74.2161C248.6 72.4241 247.896 69.9921 247.896 66.9201C247.896 65.3201 248.12 63.5601 248.568 61.6401C249.016 59.7201 249.624 57.7681 250.392 55.7841C251.096 53.7361 251.896 51.7201 252.792 49.7361C253.624 47.6881 254.456 45.7681 255.288 43.9761C256.312 41.6721 257.24 39.5281 258.072 37.5441C258.904 35.5601 259.32 34.1201 259.32 33.2241C259.32 33.0961 259.256 32.9041 259.128 32.6481C259 32.5201 258.904 32.4241 258.84 32.3601C258.776 32.2321 258.744 32.0081 258.744 31.6881C258.744 30.9841 259.256 30.3761 260.28 29.8641C261.368 29.2881 262.648 29.0001 264.12 29.0001C264.952 29.0001 265.816 29.1281 266.712 29.3841C267.608 29.6401 268.44 30.0561 269.208 30.6321C269.976 31.2081 270.616 32.0081 271.128 33.0321C271.64 34.0561 271.896 35.3361 271.896 36.8721C271.896 38.2801 271.608 39.8801 271.032 41.6721C270.52 43.4001 269.816 45.2241 268.92 47.1441C268.088 49.0641 267.16 50.9841 266.136 52.9041C265.112 54.7601 264.12 56.5521 263.16 58.2801C261.816 60.7121 260.6 62.9841 259.512 65.0961C258.424 67.2081 257.88 68.7441 257.88 69.7041C257.88 70.0881 258.104 70.2801 258.552 70.2801C259.064 70.2801 259.8 69.8641 260.76 69.0321C261.72 68.2001 262.776 67.1121 263.928 65.7681C265.144 64.3601 266.36 62.8241 267.576 61.1601C268.856 59.4321 270.04 57.7041 271.128 55.9761C272.28 54.1841 273.304 52.4881 274.2 50.8881C275.096 49.2241 275.768 47.8161 276.216 46.6641C276.664 45.5121 277.464 44.9361 278.616 44.9361C279.32 44.9361 279.928 45.1601 280.44 45.6081C281.016 45.9921 281.304 46.5361 281.304 47.2401C281.304 47.3681 281.272 47.5601 281.208 47.8161C281.144 48.0081 281.08 48.1681 281.016 48.2961Z" fill="white"/>
<path d="M315.621 45.2241C316.453 45.7361 316.869 46.4401 316.869 47.3361C316.869 47.4641 316.837 47.6561 316.773 47.9121C316.709 48.1681 316.613 48.4561 316.485 48.7761C315.013 51.7841 313.157 54.9201 310.917 58.1841C308.677 61.4481 306.181 64.4561 303.429 67.2081C300.677 69.9601 297.733 72.2321 294.597 74.0241C291.525 75.8161 288.389 76.7121 285.189 76.7121C282.693 76.7121 280.581 76.2961 278.853 75.4641C277.125 74.6321 275.749 73.5761 274.725 72.2961C273.637 70.9521 272.869 69.4801 272.421 67.8801C271.909 66.2161 271.653 64.5521 271.653 62.8881C271.653 60.8401 271.973 58.6961 272.613 56.4561C273.189 54.1521 273.829 52.0721 274.533 50.2161C277.733 42.9841 281.573 37.6081 286.053 34.0881C290.597 30.5681 295.205 28.8081 299.877 28.8081C302.629 28.8081 304.613 29.4481 305.829 30.7281C307.109 32.0081 307.749 33.6721 307.749 35.7201C307.749 37.5761 307.237 39.6241 306.213 41.8641C305.189 44.1041 303.717 46.2801 301.797 48.3921C299.877 50.5041 297.541 52.4561 294.789 54.2481C292.101 56.0401 289.093 57.3841 285.765 58.2801C285.445 59.4961 285.189 60.6481 284.997 61.7361C284.869 62.8241 284.805 63.9121 284.805 65.0001C284.805 66.7921 285.061 68.1681 285.573 69.1281C286.085 70.0241 286.981 70.4721 288.261 70.4721C290.245 70.4721 292.421 69.6401 294.789 67.9761C297.221 66.3121 299.525 64.2641 301.701 61.8321C303.941 59.3361 305.957 56.7121 307.749 53.9601C309.541 51.2081 310.885 48.7441 311.781 46.5681C312.165 45.4801 312.997 44.9361 314.277 44.9361C314.469 44.9361 314.661 44.9681 314.853 45.0321C315.109 45.0321 315.397 45.1281 315.717 45.3201L315.621 45.2241ZM301.317 34.5681C299.717 34.6961 297.701 36.2961 295.269 39.3681C292.837 42.4401 290.373 46.6961 287.877 52.1361C290.309 51.1121 292.421 49.8961 294.213 48.4881C296.005 47.0161 297.477 45.5441 298.629 44.0721C299.781 42.5361 300.645 41.0641 301.221 39.6561C301.797 38.1841 302.085 36.9681 302.085 36.0081C302.085 35.3041 301.829 34.8241 301.317 34.5681Z" fill="white"/>
<path d="M370.16 34.2801C370.352 35.1761 370.448 36.2321 370.448 37.4481C370.448 39.6241 370.064 42.1201 369.296 44.9361C368.528 47.6881 367.44 50.5361 366.032 53.4801C364.688 56.4241 363.024 59.3041 361.04 62.1201C359.12 64.9361 356.976 67.4641 354.608 69.7041C352.304 71.8801 349.808 73.6401 347.12 74.9841C344.432 76.3281 341.648 77.0001 338.768 77.0001C336.72 77.0001 334.96 76.7441 333.488 76.2321C332.08 75.7201 330.928 75.0161 330.032 74.1201C329.2 73.2241 328.592 72.1361 328.208 70.8561C327.824 69.5761 327.632 68.2001 327.632 66.7281C327.632 66.6001 327.6 66.5361 327.536 66.5361C327.536 66.4721 327.536 66.4081 327.536 66.3441V66.2481C327.536 66.1201 327.568 65.9601 327.632 65.7681C325.264 69.0321 322.832 71.6881 320.336 73.7361C317.904 75.7841 315.408 76.8081 312.848 76.8081C310.416 76.8081 308.56 75.9121 307.28 74.1201C305.936 72.2641 305.264 69.8641 305.264 66.9201C305.264 65.3201 305.488 63.5601 305.936 61.6401C306.384 59.7201 306.992 57.7681 307.76 55.7841C308.464 53.7361 309.264 51.7201 310.16 49.7361C310.992 47.6881 311.824 45.7681 312.656 43.9761C313.68 41.6721 314.608 39.5281 315.44 37.5441C316.272 35.5601 316.688 34.1201 316.688 33.2241C316.688 33.0961 316.624 32.9041 316.496 32.6481C316.368 32.5201 316.272 32.4241 316.208 32.3601C316.144 32.2321 316.112 32.0081 316.112 31.6881C316.112 30.9841 316.624 30.3761 317.648 29.8641C318.736 29.2881 320.016 29.0001 321.488 29.0001C322.32 29.0001 323.184 29.1281 324.08 29.3841C324.976 29.6401 325.808 30.0561 326.576 30.6321C327.344 31.2081 327.984 32.0081 328.496 33.0321C329.008 34.0561 329.264 35.3361 329.264 36.8721C329.264 38.2801 328.976 39.8801 328.4 41.6721C327.888 43.4641 327.184 45.3201 326.288 47.2401C325.456 49.0961 324.528 50.9841 323.504 52.9041C322.48 54.8241 321.488 56.6481 320.528 58.3761C319.824 59.5921 319.152 60.7761 318.512 61.9281C317.936 63.0801 317.392 64.1681 316.88 65.1921C316.368 66.1521 315.952 67.0481 315.632 67.8801C315.376 68.6481 315.248 69.2561 315.248 69.7041C315.248 70.0881 315.44 70.2801 315.824 70.2801C316.784 70.2801 318 69.5121 319.472 67.9761C321.008 66.3761 322.576 64.3601 324.176 61.9281C325.84 59.4961 327.472 56.8081 329.072 53.8641C330.736 50.9201 332.208 48.0721 333.488 45.3201C334.832 42.5681 335.92 40.1041 336.752 37.9281C337.584 35.7521 338 34.1841 338 33.2241C338 33.0961 337.936 32.9041 337.808 32.6481C337.68 32.5201 337.584 32.4241 337.52 32.3601C337.456 32.2321 337.424 32.0081 337.424 31.6881C337.424 30.9841 337.936 30.3761 338.96 29.8641C340.048 29.2881 341.328 29.0001 342.8 29.0001C343.632 29.0001 344.496 29.1281 345.392 29.3841C346.288 29.6401 347.12 30.0561 347.888 30.6321C348.656 31.2081 349.296 32.0081 349.808 33.0321C350.32 34.0561 350.576 35.3361 350.576 36.8721C350.576 38.2161 350.352 39.6881 349.904 41.2881C349.456 42.8241 348.88 44.4241 348.176 46.0881C347.536 47.7521 346.768 49.4481 345.872 51.1761C344.976 52.9041 344.112 54.6001 343.28 56.2641V56.1681C341.872 58.8561 340.624 61.3841 339.536 63.7521C338.448 66.0561 337.904 67.9441 337.904 69.4161C337.904 70.1201 338.064 70.6321 338.384 70.9521C338.704 71.2081 339.312 71.3361 340.208 71.3361C341.872 71.3361 343.472 70.5681 345.008 69.0321C346.608 67.4321 348.048 65.4481 349.328 63.0801C350.672 60.6481 351.888 57.9601 352.976 55.0161C354.064 52.0081 354.992 49.0961 355.76 46.2801C356.592 43.4641 357.2 40.9041 357.584 38.6001C358.032 36.2321 358.256 34.4721 358.256 33.3201C358.256 33.0001 358.224 32.7761 358.16 32.6481C358.16 32.4561 358.128 32.2961 358.064 32.1681C358.064 32.0401 358.032 31.9761 357.968 31.9761C357.968 31.9121 357.968 31.8481 357.968 31.7841C357.968 31.2081 358.512 30.6001 359.6 29.9601C360.688 29.3201 361.968 29.0001 363.44 29.0001C364.784 29.0001 366.096 29.3841 367.376 30.1521C368.72 30.8561 369.648 32.2001 370.16 34.1841V34.2801Z" fill="white"/>
<path d="M393.544 25.2561C393.544 25.7681 393.288 26.1841 392.776 26.5041C392.328 26.7601 391.72 26.8881 390.952 26.8881C390.184 26.8881 389.288 26.7281 388.264 26.4081C387.24 26.0881 386.248 25.6401 385.288 25.0641C384.392 24.4241 383.592 23.6241 382.888 22.6641C382.248 21.7041 381.928 20.5521 381.928 19.2081C381.928 18.6321 382.152 17.9601 382.6 17.1921C383.048 16.3601 383.528 15.4961 384.04 14.6001C384.424 13.8961 384.776 13.2561 385.096 12.6801C385.48 12.0401 385.672 11.6241 385.672 11.4321C385.672 10.4081 386.472 9.89609 388.072 9.89609C388.776 9.89609 389.64 10.0561 390.664 10.3761C391.688 10.6961 392.648 11.1761 393.544 11.8161C394.504 12.3921 395.304 13.1601 395.944 14.1201C396.584 15.0801 396.904 16.2321 396.904 17.5761C396.904 18.0241 396.712 18.6001 396.328 19.3041C396.008 20.0081 395.656 20.7121 395.272 21.4161C394.824 22.1201 394.408 22.8561 394.024 23.6241C393.704 24.3921 393.544 24.9361 393.544 25.2561ZM400.36 48.2961C399.848 49.3841 399.08 50.8561 398.056 52.7121C397.096 54.5041 395.944 56.4561 394.6 58.5681C393.256 60.6801 391.784 62.8241 390.184 65.0001C388.584 67.1121 386.92 69.0641 385.192 70.8561C383.528 72.5841 381.832 74.0241 380.104 75.1761C378.376 76.2641 376.712 76.8081 375.112 76.8081C372.616 76.8081 370.696 75.9441 369.352 74.2161C367.944 72.4241 367.24 69.9921 367.24 66.9201C367.24 65.3201 367.464 63.5601 367.912 61.6401C368.36 59.7201 368.968 57.7681 369.736 55.7841C370.44 53.7361 371.24 51.7201 372.136 49.7361C372.968 47.6881 373.8 45.7681 374.632 43.9761C375.656 41.6721 376.584 39.5281 377.416 37.5441C378.248 35.5601 378.664 34.1201 378.664 33.2241C378.664 33.0961 378.6 32.9041 378.472 32.6481C378.344 32.5201 378.248 32.4241 378.184 32.3601C378.12 32.2321 378.088 32.0081 378.088 31.6881C378.088 30.9841 378.6 30.3761 379.624 29.8641C380.712 29.2881 381.992 29.0001 383.464 29.0001C384.296 29.0001 385.16 29.1281 386.056 29.3841C386.952 29.6401 387.784 30.0561 388.552 30.6321C389.32 31.2081 389.96 32.0081 390.472 33.0321C390.984 34.0561 391.24 35.3361 391.24 36.8721C391.24 38.2801 390.952 39.8801 390.376 41.6721C389.864 43.4001 389.16 45.2241 388.264 47.1441C387.432 49.0641 386.504 50.9841 385.48 52.9041C384.456 54.7601 383.464 56.5521 382.504 58.2801C381.16 60.7121 379.944 62.9841 378.856 65.0961C377.768 67.2081 377.224 68.7441 377.224 69.7041C377.224 70.0881 377.448 70.2801 377.896 70.2801C378.408 70.2801 379.144 69.8641 380.104 69.0321C381.064 68.2001 382.12 67.1121 383.272 65.7681C384.488 64.3601 385.704 62.8241 386.92 61.1601C388.2 59.4321 389.384 57.7041 390.472 55.9761C391.624 54.1841 392.648 52.4881 393.544 50.8881C394.44 49.2241 395.112 47.8161 395.56 46.6641C396.008 45.5121 396.808 44.9361 397.96 44.9361C398.664 44.9361 399.272 45.1601 399.784 45.6081C400.36 45.9921 400.648 46.5361 400.648 47.2401C400.648 47.3681 400.616 47.5601 400.552 47.8161C400.488 48.0081 400.424 48.1681 400.36 48.2961Z" fill="white"/>
<path d="M434.389 41.4801C434.261 42.9521 433.973 44.4881 433.525 46.0881C433.077 47.6881 432.501 49.2881 431.797 50.8881C431.157 52.4881 430.453 54.0881 429.685 55.6881C428.917 57.2881 428.181 58.7921 427.477 60.2001C426.453 62.1841 425.557 63.9761 424.789 65.5761C424.085 67.1761 423.733 68.4241 423.733 69.3201C423.733 69.9601 424.117 70.2801 424.885 70.2801C425.397 70.2801 426.133 69.8321 427.093 68.9361C428.117 68.0401 429.205 66.8881 430.357 65.4801C431.509 64.0721 432.693 62.5041 433.909 60.7761C435.189 59.0481 436.373 57.3201 437.461 55.5921C438.549 53.8001 439.509 52.1361 440.341 50.6001C441.237 49.0001 441.877 47.6881 442.261 46.6641C442.709 45.5121 443.509 44.9361 444.661 44.9361C445.365 44.9361 445.973 45.1601 446.485 45.6081C447.061 45.9921 447.349 46.5361 447.349 47.2401C447.349 47.3681 447.317 47.5601 447.253 47.8161C447.189 48.0081 447.125 48.1681 447.061 48.2961C446.421 49.5761 445.557 51.1761 444.469 53.0961C443.445 54.9521 442.229 56.9361 440.821 59.0481C439.477 61.1601 438.005 63.2721 436.405 65.3841C434.869 67.4961 433.269 69.4161 431.605 71.1441C429.941 72.8081 428.277 74.1841 426.613 75.2721C424.949 76.2961 423.349 76.8081 421.813 76.8081C420.533 76.8081 419.413 76.5521 418.453 76.0401C417.493 75.4641 416.693 74.6961 416.053 73.7361C415.413 72.7761 414.901 71.6561 414.517 70.3761C414.197 69.0961 414.037 67.7521 414.037 66.3441C414.037 64.3601 414.261 62.3761 414.709 60.3921C415.221 58.3441 415.829 56.3921 416.533 54.5361C417.301 52.6161 418.133 50.7921 419.029 49.0641C419.925 47.2721 420.757 45.6081 421.525 44.0721C422.421 42.2801 423.189 40.7121 423.829 39.3681C424.533 38.0241 424.885 37.0001 424.885 36.2961C424.885 35.7841 424.533 35.5281 423.829 35.5281C423.253 35.5281 422.357 36.0081 421.141 36.9681C419.925 37.8641 418.581 39.0801 417.109 40.6161C415.637 42.0881 414.133 43.7521 412.597 45.6081C411.061 47.4641 409.685 49.3201 408.469 51.1761L408.565 51.0801C407.989 52.2961 407.381 53.5121 406.741 54.7281C406.101 55.9441 405.461 57.1281 404.821 58.2801C403.157 61.2241 401.717 63.9441 400.501 66.4401C399.349 68.9361 398.773 70.8881 398.773 72.2961C398.773 72.5521 398.805 72.7761 398.869 72.9681C398.933 73.0961 398.997 73.2561 399.061 73.4481C399.125 73.5761 399.157 73.8001 399.157 74.1201C399.157 74.8881 398.709 75.5601 397.813 76.1361C396.917 76.7121 395.861 77.0001 394.645 77.0001C394.069 77.0001 393.397 76.8721 392.629 76.6161C391.797 76.3601 391.029 75.9441 390.325 75.3681C389.621 74.7281 389.013 73.8961 388.501 72.8721C387.989 71.8481 387.733 70.5681 387.733 69.0321C387.733 67.6241 387.989 66.0241 388.501 64.2321C388.949 62.4401 389.557 60.5521 390.325 58.5681C391.093 56.5841 391.957 54.5681 392.917 52.5201C393.813 50.4081 394.741 48.3921 395.701 46.4721C397.045 43.5281 398.229 40.8721 399.253 38.5041C400.277 36.0721 400.789 34.3121 400.789 33.2241C400.789 33.0961 400.725 32.9041 400.597 32.6481C400.469 32.5201 400.373 32.4241 400.309 32.3601C400.245 32.2321 400.213 32.0081 400.213 31.6881C400.213 30.9841 400.757 30.3761 401.845 29.8641C402.933 29.2881 404.213 29.0001 405.685 29.0001C406.453 29.0001 407.285 29.1281 408.181 29.3841C409.077 29.5761 409.909 29.9601 410.677 30.5361C411.445 31.1121 412.085 31.9121 412.597 32.9361C413.109 33.8961 413.365 35.1121 413.365 36.5841V37.0641C415.605 34.8241 417.845 32.9361 420.085 31.4001C422.325 29.8001 424.533 29.0001 426.709 29.0001C429.141 29.0001 431.061 29.8961 432.469 31.6881C433.877 33.4161 434.581 35.8161 434.581 38.8881C434.581 39.4001 434.549 39.8481 434.485 40.2321C434.485 40.6161 434.453 41.0321 434.389 41.4801Z" fill="white"/>
<path d="M474.356 36.7761C474.612 35.8801 474.804 35.1121 474.932 34.4721C475.124 33.8321 475.22 33.2561 475.22 32.7441C475.22 32.5521 475.188 32.4241 475.124 32.3601C475.124 32.2961 475.092 32.2001 475.028 32.0721V32.1681C474.9 31.9121 474.836 31.6561 474.836 31.4001C474.836 30.8241 475.412 30.2161 476.564 29.5761C477.716 28.9361 479.028 28.6161 480.5 28.6161C481.14 28.6161 481.876 28.7441 482.708 29.0001C483.604 29.1921 484.436 29.5761 485.204 30.1521C485.972 30.6641 486.612 31.3681 487.124 32.2641C487.7 33.0961 487.988 34.1841 487.988 35.5281C487.988 37.0641 487.54 39.1441 486.644 41.7681C485.812 44.3921 484.724 47.2401 483.38 50.3121C482.1 53.3201 480.692 56.4241 479.156 59.6241C477.684 62.7601 476.34 65.6401 475.124 68.2641C474.612 69.3521 474.164 70.2161 473.78 70.8561C473.46 71.4961 473.172 72.0081 472.916 72.3921C472.724 72.7761 472.564 73.0961 472.436 73.3521C472.308 73.6081 472.212 73.8961 472.148 74.2161C474.324 72.4881 476.5 70.3761 478.676 67.8801C480.852 65.3201 482.868 62.7601 484.724 60.2001C486.644 57.5761 488.308 55.0801 489.716 52.7121C491.124 50.2801 492.116 48.3281 492.692 46.8561C492.948 46.1521 493.3 45.6721 493.748 45.4161C494.196 45.0961 494.676 44.9361 495.188 44.9361C495.892 44.9361 496.5 45.1601 497.012 45.6081C497.524 45.9921 497.78 46.5361 497.78 47.2401C497.78 47.4321 497.716 47.7841 497.588 48.2961C496.052 51.4321 494.132 54.7601 491.828 58.2801C489.588 61.8001 487.156 65.1601 484.532 68.3601C481.908 71.5601 479.156 74.4721 476.276 77.0961C473.46 79.7201 470.708 81.7041 468.02 83.0481L465.716 88.2321C464.884 90.0881 464.052 91.9121 463.22 93.7041C462.452 95.4961 461.908 96.7761 461.588 97.5441C461.012 99.0161 460.18 100.296 459.092 101.384C458.068 102.536 456.884 103.496 455.54 104.264C454.26 105.032 452.852 105.608 451.316 105.992C449.78 106.376 448.244 106.568 446.708 106.568C445.428 106.568 444.116 106.376 442.772 105.992C441.428 105.672 440.18 105.16 439.028 104.456C437.876 103.816 436.948 102.952 436.244 101.864C435.476 100.84 435.092 99.5921 435.092 98.1201C435.092 96.9681 435.412 95.9121 436.052 94.9521C436.692 94.0561 437.556 93.1921 438.644 92.3601C439.668 91.5921 440.852 90.8561 442.196 90.1521C443.54 89.4481 444.884 88.7761 446.228 88.1361C447.572 87.4321 448.948 86.6961 450.356 85.9281C451.828 85.1601 453.044 84.3921 454.004 83.6241C454.516 82.2161 454.996 80.9361 455.444 79.7841C455.892 78.6321 456.564 77.0321 457.46 74.9841C456.436 75.5601 455.412 76.0081 454.388 76.3281C453.364 76.6481 452.276 76.8081 451.124 76.8081C448.628 76.8081 446.516 76.3921 444.788 75.5601C443.124 74.6641 441.78 73.5441 440.756 72.2001C439.668 70.8561 438.9 69.3521 438.452 67.6881C437.94 66.0241 437.684 64.3921 437.684 62.7921C437.684 60.8081 438.004 58.6961 438.644 56.4561C439.22 54.1521 439.86 52.0721 440.564 50.2161C443.7 43.1121 447.444 37.7681 451.796 34.1841C456.148 30.6001 460.596 28.8081 465.14 28.8081C465.908 28.8081 466.804 28.9041 467.828 29.0961C468.916 29.2881 469.94 29.6721 470.9 30.2481C471.86 30.8241 472.66 31.5921 473.3 32.5521C474.004 33.5121 474.356 34.7601 474.356 36.2961V36.7761ZM466.484 37.2561C466.484 36.1041 466.868 35.2081 467.636 34.5681H467.252C465.716 34.5681 463.764 36.1681 461.396 39.3681C459.028 42.5041 456.532 46.7921 453.908 52.2321C453.012 54.0881 452.308 56.1041 451.796 58.2801C451.284 60.4561 451.028 62.4721 451.028 64.3281C451.028 65.9921 451.252 67.4641 451.7 68.7441C452.212 69.9601 453.012 70.5681 454.1 70.5681C454.932 70.5681 455.892 69.9921 456.98 68.8401C458.132 67.6241 459.316 66.1201 460.532 64.3281C461.748 62.4721 462.964 60.4881 464.18 58.3761C465.396 56.2001 466.484 54.1521 467.444 52.2321C467.892 51.3361 468.34 50.4081 468.788 49.4481C469.3 48.4881 469.78 47.6561 470.228 46.9521C470.228 46.8881 470.26 46.8241 470.324 46.7601C470.388 46.6321 470.452 46.5041 470.516 46.3761C471.028 45.0961 471.54 43.9121 472.052 42.8241C472.564 41.6721 473.012 40.5841 473.396 39.5601C472.628 40.3921 471.636 40.8081 470.42 40.8081C469.396 40.8081 468.468 40.4881 467.636 39.8481C466.868 39.2081 466.484 38.3441 466.484 37.2561ZM443.732 101.096C445.012 101.096 446.228 100.36 447.38 98.8881C448.532 97.4161 449.908 94.6641 451.508 90.6321L448.532 92.1681C447.572 92.6161 446.612 93.0641 445.652 93.5121C444.756 93.9601 443.924 94.4081 443.156 94.8561C442.388 95.3681 441.78 95.8801 441.332 96.3921C440.82 96.9041 440.564 97.4481 440.564 98.0241C440.564 98.7921 440.884 99.4961 441.524 100.136C442.1 100.776 442.836 101.096 443.732 101.096Z" fill="white"/>
<path d="M41.644 144.356C41.644 144.591 41.556 144.811 41.38 145.016C41.204 145.192 40.9987 145.295 40.764 145.324C40.764 145.324 40.5147 145.368 40.016 145.456C39.5467 145.515 38.9013 145.617 38.08 145.764C37.2587 145.881 36.276 146.057 35.132 146.292C33.988 146.497 32.756 146.747 31.436 147.04C31.436 147.04 31.4067 147.099 31.348 147.216C30.4093 150.149 29.2947 152.819 28.004 155.224C26.7427 157.659 25.32 159.829 23.736 161.736C19.9227 166.195 15.3173 169.025 9.92001 170.228C9.15734 170.404 8.38001 170.492 7.58801 170.492C6.82534 170.521 6.06267 170.419 5.30001 170.184C4.62534 169.979 4.00934 169.685 3.45201 169.304C2.89467 168.952 2.42534 168.512 2.04401 167.984C1.31067 167.016 0.914675 165.857 0.856008 164.508C0.826675 163.159 1.16401 161.692 1.86801 160.108C3.24667 157.204 6.15067 154.579 10.58 152.232C12.2813 151.323 14.188 150.457 16.3 149.636C18.412 148.815 20.744 148.037 23.296 147.304C23.6187 146.365 23.8973 145.456 24.132 144.576C24.396 143.696 24.6453 142.845 24.88 142.024C25.8187 138.299 26.508 134.515 26.948 130.672C27.124 129.176 27.256 127.739 27.344 126.36C27.4613 124.952 27.52 123.603 27.52 122.312C26.0533 122.957 24.5867 123.647 23.12 124.38C21.6827 125.084 20.2893 125.847 18.94 126.668C17.5907 127.489 16.3147 128.384 15.112 129.352C13.9387 130.32 12.8973 131.376 11.988 132.52C11.6653 132.901 11.3573 133.341 11.064 133.84C10.7707 134.309 10.5067 134.808 10.272 135.336C10.0667 135.835 9.90534 136.348 9.78801 136.876C9.67067 137.404 9.62668 137.903 9.65601 138.372C9.74401 139.369 10.1547 140.132 10.888 140.66C11.504 141.129 12.12 141.305 12.736 141.188C13.3813 141.071 13.9533 140.792 14.452 140.352C14.9507 139.912 15.3613 139.384 15.684 138.768C16.0067 138.152 16.168 137.58 16.168 137.052C16.168 136.612 16.3733 136.363 16.784 136.304C17.1947 136.245 17.6347 136.304 18.104 136.48C18.5733 136.656 18.9693 136.935 19.292 137.316C19.6147 137.668 19.7173 138.049 19.6 138.46C19.336 139.311 18.8227 140.103 18.06 140.836C17.2973 141.54 16.432 142.097 15.464 142.508C14.496 142.889 13.4987 143.08 12.472 143.08C11.4453 143.08 10.5213 142.772 9.70001 142.156C8.58534 141.305 7.98401 140.161 7.89601 138.724C7.83734 138.079 7.88134 137.433 8.02801 136.788C8.20401 136.113 8.42401 135.468 8.68801 134.852C8.98134 134.207 9.28934 133.605 9.61201 133.048C9.96401 132.491 10.316 131.992 10.668 131.552C11.7827 130.173 13.1027 128.883 14.628 127.68C16.1827 126.448 17.9867 125.26 20.04 124.116C20.304 123.969 20.8467 123.647 21.668 123.148C22.5187 122.62 23.4867 122.048 24.572 121.432C25.6573 120.816 26.8013 120.2 28.004 119.584C29.236 118.968 30.3507 118.469 31.348 118.088C32.3747 117.707 33.2253 117.531 33.9 117.56C34.5747 117.56 34.9267 117.868 34.956 118.484C34.9853 118.953 35 119.613 35 120.464C35.0293 121.285 35.0293 122.268 35 123.412C35 124.527 34.956 125.759 34.868 127.108C34.8093 128.428 34.7067 129.836 34.56 131.332C34.0907 136.26 33.2253 140.865 31.964 145.148C33.2253 144.884 34.3987 144.664 35.484 144.488C36.5693 144.283 37.4933 144.121 38.256 144.004C39.048 143.857 39.664 143.755 40.104 143.696C40.544 143.637 40.764 143.608 40.764 143.608C41.028 143.549 41.2333 143.608 41.38 143.784C41.556 143.931 41.644 144.121 41.644 144.356ZM3.49601 166.84C3.99467 167.368 4.74267 167.559 5.74001 167.412C6.76667 167.295 7.85201 166.972 8.99601 166.444C10.1693 165.916 11.3133 165.256 12.428 164.464C13.5427 163.672 14.4373 162.895 15.112 162.132C16.872 160.196 18.3387 158.143 19.512 155.972C20.7147 153.801 21.7413 151.572 22.592 149.284C17.312 150.868 13.0587 152.613 9.83201 154.52C6.60534 156.456 4.46401 158.495 3.40801 160.636C2.23467 163.129 2.26401 165.197 3.49601 166.84Z" fill="white"/>
<path d="M54.4061 132.08C54.4061 132.549 54.3181 132.887 54.1421 133.092C53.9074 133.532 53.5407 133.752 53.0421 133.752C52.6901 133.752 52.3674 133.635 52.0741 133.4C51.8101 133.165 51.6781 132.857 51.6781 132.476C51.6781 132.241 51.7367 132.021 51.8541 131.816C52.0007 131.611 52.1767 131.435 52.3821 131.288C52.1474 130.877 51.8687 130.672 51.5461 130.672C51.2527 130.672 50.9301 130.804 50.5781 131.068C50.2261 131.303 49.8594 131.64 49.4781 132.08C49.1261 132.491 48.7741 132.916 48.4221 133.356C47.8061 134.148 47.2047 135.072 46.6181 136.128C46.0607 137.155 45.5621 138.225 45.1221 139.34C44.6821 140.425 44.3301 141.511 44.0661 142.596C43.8021 143.652 43.6554 144.62 43.6261 145.5C43.6261 146.38 43.7581 147.113 44.0221 147.7C44.2861 148.257 44.7261 148.595 45.3421 148.712C45.7821 148.8 46.2661 148.609 46.7941 148.14C47.3514 147.641 47.8941 147.011 48.4221 146.248C48.9794 145.485 49.5074 144.664 50.0061 143.784C50.5341 142.875 50.9887 142.039 51.3701 141.276C50.7541 141.012 50.3287 140.587 50.0941 140C49.8594 139.384 49.7861 138.768 49.8741 138.152C49.9621 137.536 50.1967 136.993 50.5781 136.524C50.9594 136.055 51.4434 135.82 52.0301 135.82C52.2354 135.82 52.4994 135.835 52.8221 135.864C53.1447 135.893 53.4234 136.055 53.6581 136.348C53.8927 136.612 54.0247 137.052 54.0541 137.668C54.0834 138.284 53.9221 139.179 53.5701 140.352C54.7434 140.323 55.6821 140.161 56.3861 139.868C57.0901 139.575 57.6327 139.252 58.0141 138.9C58.4247 138.548 58.6887 138.211 58.8061 137.888C58.9527 137.536 59.0554 137.316 59.1141 137.228C59.2021 137.023 59.3341 136.905 59.5101 136.876C59.7154 136.817 59.9061 136.832 60.0821 136.92C60.2581 137.008 60.3901 137.155 60.4781 137.36C60.5661 137.536 60.5661 137.741 60.4781 137.976C60.2434 138.533 59.8767 139.047 59.3781 139.516C58.8794 139.985 58.2927 140.381 57.6181 140.704C56.9727 141.027 56.2394 141.276 55.4181 141.452C54.6261 141.628 53.8194 141.701 52.9981 141.672C52.5874 142.581 52.0594 143.593 51.4141 144.708C50.7981 145.823 50.0794 146.864 49.2581 147.832C48.4367 148.771 47.5274 149.548 46.5301 150.164C45.5621 150.78 44.5207 151.044 43.4061 150.956C41.9394 150.809 40.7954 150.193 39.9741 149.108C39.1234 148.023 38.6687 146.703 38.6101 145.148C38.5807 143.975 38.6981 142.757 38.9621 141.496C39.2261 140.205 39.6221 138.944 40.1501 137.712C40.6781 136.48 41.3234 135.321 42.0861 134.236C42.8487 133.121 43.6994 132.153 44.6381 131.332C45.6061 130.511 46.6474 129.88 47.7621 129.44C48.9061 129 50.0941 128.809 51.3261 128.868C51.8834 128.897 52.3381 129.029 52.6901 129.264C53.0714 129.469 53.3794 129.733 53.6141 130.056C53.8487 130.349 54.0247 130.687 54.1421 131.068C54.2594 131.42 54.3474 131.757 54.4061 132.08Z" fill="white"/>
<path d="M55.6735 148.756C55.4975 148.228 55.5561 147.377 55.8495 146.204C56.1135 145.031 56.5388 143.667 57.1255 142.112C57.6828 140.528 58.3428 138.827 59.1055 137.008C59.8681 135.189 60.6455 133.356 61.4375 131.508C62.2588 129.66 63.0361 127.871 63.7695 126.14C64.5321 124.38 65.1921 122.811 65.7495 121.432C66.3068 120.053 66.7175 118.909 66.9815 118C67.2455 117.091 67.2895 116.548 67.1135 116.372C66.9081 116.196 66.9961 115.991 67.3775 115.756C67.7881 115.521 68.2868 115.389 68.8735 115.36C69.4895 115.331 70.1055 115.463 70.7215 115.756C71.3375 116.049 71.7775 116.636 72.0415 117.516C72.2175 118.073 72.1735 118.88 71.9095 119.936C71.6455 120.992 71.2495 122.224 70.7215 123.632C70.1935 125.011 69.5628 126.521 68.8295 128.164C68.0961 129.807 67.3335 131.464 66.5415 133.136C67.5681 131.992 68.6095 131.024 69.6655 130.232C70.7508 129.44 71.7628 129.029 72.7015 129C73.8455 128.971 74.6961 129.469 75.2535 130.496C75.8108 131.523 75.9868 132.843 75.7815 134.456C75.7228 135.453 75.5028 136.509 75.1215 137.624C74.7401 138.709 74.3001 139.78 73.8015 140.836C73.3321 141.892 72.8481 142.904 72.3495 143.872C71.8801 144.811 71.5135 145.632 71.2495 146.336C70.9855 147.04 70.8681 147.612 70.8975 148.052C70.9561 148.463 71.2788 148.668 71.8655 148.668C72.1295 148.668 72.4961 148.463 72.9655 148.052C73.4348 147.612 73.9481 147.055 74.5055 146.38C75.0628 145.676 75.6348 144.899 76.2215 144.048C76.8375 143.168 77.4095 142.303 77.9375 141.452C78.4655 140.601 78.9348 139.795 79.3455 139.032C79.7561 138.24 80.0495 137.595 80.2255 137.096C80.3135 136.861 80.4601 136.715 80.6655 136.656C80.8708 136.597 81.0615 136.597 81.2375 136.656C81.4135 136.715 81.5455 136.832 81.6335 137.008C81.7508 137.184 81.7508 137.375 81.6335 137.58C81.3988 138.079 81.0615 138.768 80.6215 139.648C80.1815 140.499 79.6535 141.423 79.0375 142.42C78.4508 143.388 77.8055 144.371 77.1015 145.368C76.3975 146.365 75.6641 147.275 74.9015 148.096C74.1681 148.917 73.4201 149.592 72.6575 150.12C71.8948 150.648 71.1615 150.912 70.4575 150.912C69.8708 150.941 69.3721 150.809 68.9615 150.516C68.5508 150.193 68.2135 149.768 67.9495 149.24C67.6855 148.712 67.4948 148.125 67.3775 147.48C67.2895 146.805 67.2895 146.131 67.3775 145.456C67.5241 144.253 67.8028 143.065 68.2135 141.892C68.6241 140.719 69.0641 139.604 69.5335 138.548C70.0321 137.463 70.5161 136.48 70.9855 135.6C71.4548 134.691 71.8068 133.913 72.0415 133.268C72.2761 132.593 72.3495 132.08 72.2615 131.728C72.2028 131.376 71.8655 131.215 71.2495 131.244C70.8681 131.273 70.3108 131.596 69.5775 132.212C68.8735 132.828 68.1255 133.605 67.3335 134.544C66.5415 135.453 65.7641 136.436 65.0015 137.492C64.2388 138.519 63.6228 139.457 63.1535 140.308L62.5815 141.496V141.54L62.4935 141.716C61.5548 143.799 60.8068 145.573 60.2495 147.04C59.7215 148.507 59.5748 149.46 59.8095 149.9C59.9268 150.135 59.8241 150.384 59.5015 150.648C59.2081 150.883 58.8268 151 58.3575 151C57.8588 151.029 57.3601 150.883 56.8615 150.56C56.3335 150.237 55.9375 149.636 55.6735 148.756Z" fill="white"/>
<path d="M97.1861 134.456C97.1274 135.453 96.9074 136.509 96.5261 137.624C96.1448 138.709 95.7048 139.78 95.2061 140.836C94.7368 141.892 94.2528 142.904 93.7541 143.872C93.2848 144.811 92.9181 145.632 92.6541 146.336C92.3901 147.04 92.2728 147.612 92.3021 148.052C92.3608 148.463 92.6834 148.668 93.2701 148.668C93.5341 148.668 93.9008 148.463 94.3701 148.052C94.8394 147.612 95.3528 147.055 95.9101 146.38C96.4674 145.676 97.0394 144.899 97.6261 144.048C98.2421 143.168 98.8141 142.303 99.3421 141.452C99.8701 140.601 100.339 139.795 100.75 139.032C101.161 138.24 101.454 137.595 101.63 137.096C101.718 136.861 101.865 136.715 102.07 136.656C102.275 136.597 102.466 136.597 102.642 136.656C102.818 136.715 102.95 136.832 103.038 137.008C103.155 137.184 103.155 137.375 103.038 137.58C102.803 138.079 102.466 138.768 102.026 139.648C101.586 140.499 101.058 141.423 100.442 142.42C99.8554 143.388 99.2101 144.371 98.5061 145.368C97.8021 146.365 97.0688 147.275 96.3061 148.096C95.5728 148.917 94.8248 149.592 94.0621 150.12C93.2994 150.648 92.5661 150.912 91.8621 150.912C91.2754 150.941 90.7768 150.809 90.3661 150.516C89.9554 150.193 89.6181 149.768 89.3541 149.24C89.0901 148.712 88.8994 148.125 88.7821 147.48C88.6941 146.805 88.6941 146.131 88.7821 145.456C88.9288 144.253 89.2074 143.065 89.6181 141.892C90.0288 140.719 90.4688 139.604 90.9381 138.548C91.4368 137.463 91.9208 136.48 92.3901 135.6C92.8594 134.691 93.2114 133.913 93.4461 133.268C93.6808 132.593 93.7541 132.08 93.6661 131.728C93.6074 131.376 93.2701 131.215 92.6541 131.244C92.3314 131.273 91.8768 131.537 91.2901 132.036C90.7034 132.505 90.0581 133.121 89.3541 133.884C88.6794 134.617 87.9901 135.439 87.2861 136.348C86.5821 137.228 85.9514 138.079 85.3941 138.9C84.8368 140.044 84.2501 141.188 83.6341 142.332C83.0474 143.447 82.5194 144.503 82.0501 145.5C81.5808 146.497 81.2288 147.377 80.9941 148.14C80.7888 148.903 80.7888 149.489 80.9941 149.9C81.1114 150.135 81.0088 150.384 80.6861 150.648C80.3928 150.883 80.0114 151 79.5421 151C79.0434 151.029 78.5448 150.883 78.0461 150.56C77.5181 150.237 77.1221 149.636 76.8581 148.756C76.6234 148.052 76.6381 147.128 76.9021 145.984C77.1661 144.84 77.5474 143.623 78.0461 142.332C78.5448 141.012 79.1021 139.677 79.7181 138.328C80.3341 136.949 80.8914 135.688 81.3901 134.544C81.8888 133.4 82.2554 132.417 82.4901 131.596C82.7248 130.775 82.7248 130.247 82.4901 130.012C82.2848 129.836 82.3728 129.631 82.7541 129.396C83.1648 129.161 83.6634 129.029 84.2501 129C84.8661 128.971 85.4821 129.103 86.0981 129.396C86.7141 129.689 87.1541 130.276 87.4181 131.156C87.5354 131.537 87.5794 131.963 87.5501 132.432C87.5208 132.872 87.4474 133.341 87.3301 133.84C87.8874 133.195 88.4448 132.579 89.0021 131.992C89.5888 131.405 90.1754 130.892 90.7621 130.452C91.3488 130.012 91.9208 129.66 92.4781 129.396C93.0354 129.132 93.5781 129 94.1061 129C95.2501 128.971 96.1008 129.469 96.6581 130.496C97.2154 131.523 97.3914 132.843 97.1861 134.456Z" fill="white"/>
<path d="M118.919 146.028C118.89 146.439 118.772 146.717 118.567 146.864C118.362 146.981 118.127 146.967 117.863 146.82C117.628 146.644 117.423 146.336 117.247 145.896C117.1 145.427 117.056 144.811 117.115 144.048C117.203 142.963 117.584 142.112 118.259 141.496C118.934 140.88 119.799 140.425 120.855 140.132C121.94 139.839 123.172 139.692 124.551 139.692C125.959 139.663 127.44 139.707 128.995 139.824C129.611 138.123 130.198 136.495 130.755 134.94C131.312 133.356 131.782 131.948 132.163 130.716C132.544 129.484 132.823 128.472 132.999 127.68C133.175 126.888 133.175 126.404 132.999 126.228C132.852 126.111 132.882 125.979 133.087 125.832C133.322 125.656 133.644 125.524 134.055 125.436C134.466 125.319 134.935 125.245 135.463 125.216C135.991 125.187 136.49 125.231 136.959 125.348C137.428 125.465 137.839 125.685 138.191 126.008C138.543 126.331 138.748 126.785 138.807 127.372C138.866 128.047 138.807 128.853 138.631 129.792C138.484 130.701 138.25 131.728 137.927 132.872C137.634 133.987 137.252 135.189 136.783 136.48C136.343 137.771 135.874 139.091 135.375 140.44C136.783 140.528 138.22 140.572 139.687 140.572C141.154 140.543 142.488 140.455 143.691 140.308C144.923 140.161 145.935 139.956 146.727 139.692C147.519 139.399 147.959 139.017 148.047 138.548C148.106 138.108 148.267 137.888 148.531 137.888C148.824 137.859 149.088 137.961 149.323 138.196C149.587 138.431 149.748 138.739 149.807 139.12C149.895 139.501 149.763 139.853 149.411 140.176C149.059 140.499 148.502 140.836 147.739 141.188C147.006 141.511 146.023 141.819 144.791 142.112C143.588 142.405 142.122 142.64 140.391 142.816C138.66 142.992 136.636 143.095 134.319 143.124C133.586 144.972 132.852 146.805 132.119 148.624C131.415 150.413 130.77 152.1 130.183 153.684C129.626 155.268 129.171 156.676 128.819 157.908C128.467 159.169 128.32 160.152 128.379 160.856C128.379 161.12 128.174 161.369 127.763 161.604C127.352 161.868 126.868 162 126.311 162C125.754 162 125.182 161.839 124.595 161.516C124.038 161.193 123.627 160.592 123.363 159.712C123.187 159.213 123.202 158.407 123.407 157.292C123.612 156.177 123.92 154.872 124.331 153.376C124.771 151.88 125.284 150.252 125.871 148.492C126.487 146.703 127.132 144.899 127.807 143.08C126.575 143.109 125.416 143.168 124.331 143.256C123.275 143.344 122.351 143.505 121.559 143.74C120.767 143.945 120.136 144.239 119.667 144.62C119.198 144.972 118.948 145.441 118.919 146.028ZM167.451 121.256C167.48 121.784 167.436 122.341 167.319 122.928C167.202 123.485 166.952 124.013 166.571 124.512C166.19 125.011 165.632 125.436 164.899 125.788C164.166 126.14 163.212 126.331 162.039 126.36C160.807 126.419 159.194 126.272 157.199 125.92C155.234 125.568 153.063 125.143 150.687 124.644C148.311 124.116 145.862 123.559 143.339 122.972C140.816 122.385 138.396 121.857 136.079 121.388C133.762 120.919 131.664 120.567 129.787 120.332C127.91 120.097 126.458 120.068 125.431 120.244C124.639 120.391 123.891 120.64 123.187 120.992C122.483 121.344 121.867 121.769 121.339 122.268C120.811 122.767 120.386 123.324 120.063 123.94C119.74 124.527 119.564 125.143 119.535 125.788C119.476 126.551 119.579 127.255 119.843 127.9C120.107 128.516 120.488 129.029 120.987 129.44C121.486 129.851 122.087 130.144 122.791 130.32C123.495 130.496 124.258 130.511 125.079 130.364C125.372 130.305 125.402 130.511 125.167 130.98C124.962 131.449 124.566 131.992 123.979 132.608C123.422 133.224 122.703 133.811 121.823 134.368C120.972 134.896 120.063 135.204 119.095 135.292C118.215 135.351 117.394 135.263 116.631 135.028C115.898 134.793 115.252 134.441 114.695 133.972C114.138 133.503 113.712 132.931 113.419 132.256C113.155 131.581 113.052 130.833 113.111 130.012C113.199 128.516 113.522 127.137 114.079 125.876C114.666 124.585 115.414 123.441 116.323 122.444C117.262 121.417 118.318 120.552 119.491 119.848C120.694 119.115 121.984 118.557 123.363 118.176C124.478 117.883 125.842 117.765 127.455 117.824C129.068 117.853 130.799 118 132.647 118.264C134.524 118.499 136.446 118.807 138.411 119.188C140.376 119.569 142.268 119.951 144.087 120.332C145.906 120.684 147.592 121.007 149.147 121.3C150.702 121.564 151.978 121.711 152.975 121.74C154.295 121.799 155.542 121.755 156.715 121.608C157.888 121.461 158.9 121.227 159.751 120.904C160.631 120.581 161.291 120.171 161.731 119.672C162.2 119.144 162.376 118.528 162.259 117.824C162.2 117.531 162.42 117.384 162.919 117.384C163.447 117.384 164.034 117.531 164.679 117.824C165.354 118.117 165.97 118.557 166.527 119.144C167.084 119.701 167.392 120.405 167.451 121.256Z" fill="white"/>
<path d="M166.383 132.08C166.383 132.549 166.295 132.887 166.119 133.092C165.884 133.532 165.517 133.752 165.019 133.752C164.667 133.752 164.344 133.635 164.051 133.4C163.787 133.165 163.655 132.857 163.655 132.476C163.655 132.241 163.713 132.021 163.831 131.816C163.977 131.611 164.153 131.435 164.359 131.288C164.124 130.877 163.845 130.672 163.523 130.672C163.229 130.672 162.907 130.804 162.555 131.068C162.203 131.303 161.836 131.64 161.455 132.08C161.103 132.491 160.751 132.916 160.399 133.356C159.783 134.148 159.181 135.072 158.595 136.128C158.037 137.155 157.539 138.225 157.099 139.34C156.659 140.425 156.307 141.511 156.043 142.596C155.779 143.652 155.632 144.62 155.603 145.5C155.603 146.38 155.735 147.113 155.999 147.7C156.263 148.257 156.703 148.595 157.319 148.712C157.759 148.8 158.243 148.609 158.771 148.14C159.328 147.641 159.871 147.011 160.399 146.248C160.956 145.485 161.484 144.664 161.983 143.784C162.511 142.875 162.965 142.039 163.347 141.276C162.731 141.012 162.305 140.587 162.071 140C161.836 139.384 161.763 138.768 161.851 138.152C161.939 137.536 162.173 136.993 162.555 136.524C162.936 136.055 163.42 135.82 164.007 135.82C164.212 135.82 164.476 135.835 164.799 135.864C165.121 135.893 165.4 136.055 165.635 136.348C165.869 136.612 166.001 137.052 166.031 137.668C166.06 138.284 165.899 139.179 165.547 140.352C166.72 140.323 167.659 140.161 168.363 139.868C169.067 139.575 169.609 139.252 169.991 138.9C170.401 138.548 170.665 138.211 170.783 137.888C170.929 137.536 171.032 137.316 171.091 137.228C171.179 137.023 171.311 136.905 171.487 136.876C171.692 136.817 171.883 136.832 172.059 136.92C172.235 137.008 172.367 137.155 172.455 137.36C172.543 137.536 172.543 137.741 172.455 137.976C172.22 138.533 171.853 139.047 171.355 139.516C170.856 139.985 170.269 140.381 169.595 140.704C168.949 141.027 168.216 141.276 167.395 141.452C166.603 141.628 165.796 141.701 164.975 141.672C164.564 142.581 164.036 143.593 163.391 144.708C162.775 145.823 162.056 146.864 161.235 147.832C160.413 148.771 159.504 149.548 158.507 150.164C157.539 150.78 156.497 151.044 155.383 150.956C153.916 150.809 152.772 150.193 151.951 149.108C151.1 148.023 150.645 146.703 150.587 145.148C150.557 143.975 150.675 142.757 150.939 141.496C151.203 140.205 151.599 138.944 152.127 137.712C152.655 136.48 153.3 135.321 154.063 134.236C154.825 133.121 155.676 132.153 156.615 131.332C157.583 130.511 158.624 129.88 159.739 129.44C160.883 129 162.071 128.809 163.303 128.868C163.86 128.897 164.315 129.029 164.667 129.264C165.048 129.469 165.356 129.733 165.591 130.056C165.825 130.349 166.001 130.687 166.119 131.068C166.236 131.42 166.324 131.757 166.383 132.08Z" fill="white"/>
<path d="M172.358 138.02C172.27 138.196 172.123 138.313 171.918 138.372C171.742 138.431 171.566 138.431 171.39 138.372C171.243 138.313 171.126 138.211 171.038 138.064C170.921 137.888 170.906 137.683 170.994 137.448C171.082 137.184 171.243 136.788 171.478 136.26C171.713 135.703 171.947 135.131 172.182 134.544C172.417 133.928 172.651 133.341 172.886 132.784C173.121 132.197 173.282 131.713 173.37 131.332C172.695 131.009 172.109 130.496 171.61 129.792C171.141 129.088 170.906 128.384 170.906 127.68C170.906 126.771 171.141 125.993 171.61 125.348C172.079 124.703 172.783 124.38 173.722 124.38C174.309 124.38 174.807 124.629 175.218 125.128C175.658 125.597 175.893 126.169 175.922 126.844C175.922 127.225 175.893 127.753 175.834 128.428C175.805 129.103 175.731 129.66 175.614 130.1C175.761 130.217 175.951 130.291 176.186 130.32C176.45 130.349 176.729 130.364 177.022 130.364C177.667 130.364 178.166 130.291 178.518 130.144C178.899 129.997 179.222 129.851 179.486 129.704C179.75 129.528 180.014 129.367 180.278 129.22C180.542 129.073 180.894 129 181.334 129C181.921 129 182.507 129.147 183.094 129.44C183.681 129.733 184.106 130.305 184.37 131.156C184.634 132.007 184.59 133.048 184.238 134.28C183.886 135.483 183.387 136.744 182.742 138.064C182.126 139.384 181.451 140.689 180.718 141.98C180.014 143.271 179.413 144.429 178.914 145.456C178.445 146.453 178.166 147.26 178.078 147.876C178.019 148.463 178.327 148.727 179.002 148.668C179.266 148.639 179.633 148.404 180.102 147.964C180.571 147.524 181.085 146.967 181.642 146.292C182.199 145.588 182.771 144.811 183.358 143.96C183.945 143.109 184.502 142.259 185.03 141.408C185.558 140.557 186.027 139.751 186.438 138.988C186.849 138.225 187.142 137.595 187.318 137.096C187.406 136.861 187.553 136.715 187.758 136.656C187.963 136.597 188.154 136.597 188.33 136.656C188.506 136.715 188.638 136.832 188.726 137.008C188.843 137.184 188.843 137.375 188.726 137.58C188.491 138.079 188.154 138.768 187.714 139.648C187.274 140.499 186.746 141.423 186.13 142.42C185.543 143.388 184.898 144.371 184.194 145.368C183.49 146.365 182.757 147.275 181.994 148.096C181.261 148.917 180.513 149.592 179.75 150.12C178.987 150.648 178.254 150.912 177.55 150.912C176.963 150.941 176.45 150.824 176.01 150.56C175.599 150.296 175.262 149.929 174.998 149.46C174.734 148.961 174.558 148.375 174.47 147.7C174.382 146.996 174.382 146.248 174.47 145.456C174.587 144.312 174.866 143.095 175.306 141.804C175.746 140.513 176.23 139.252 176.758 138.02C177.286 136.759 177.799 135.585 178.298 134.5C178.797 133.415 179.163 132.491 179.398 131.728C178.782 131.963 178.078 132.109 177.286 132.168C176.523 132.197 175.761 132.109 174.998 131.904C174.91 132.109 174.749 132.491 174.514 133.048C174.309 133.576 174.074 134.163 173.81 134.808C173.546 135.424 173.282 136.04 173.018 136.656C172.754 137.243 172.534 137.697 172.358 138.02Z" fill="white"/>
<path d="M198.413 132.476C198.413 132.241 198.472 132.021 198.589 131.816C198.736 131.611 198.912 131.435 199.117 131.288C198.971 130.936 198.736 130.76 198.413 130.76C198.003 130.731 197.548 130.921 197.049 131.332C196.551 131.713 196.008 132.285 195.421 133.048C194.864 133.781 194.277 134.705 193.661 135.82C193.045 136.905 192.429 138.123 191.813 139.472C191.432 140.323 191.109 141.247 190.845 142.244C190.611 143.212 190.479 144.151 190.449 145.06C190.42 145.94 190.508 146.717 190.713 147.392C190.919 148.067 191.285 148.507 191.813 148.712C192.429 148.976 193.075 148.785 193.749 148.14C194.424 147.465 195.113 146.571 195.817 145.456C196.521 144.341 197.196 143.109 197.841 141.76C198.516 140.411 199.132 139.179 199.689 138.064C200.247 136.627 200.863 135.116 201.537 133.532C202.212 131.919 202.872 130.335 203.517 128.78C204.192 127.225 204.823 125.729 205.409 124.292C206.025 122.855 206.539 121.579 206.949 120.464C207.389 119.32 207.697 118.396 207.873 117.692C208.079 116.959 208.108 116.519 207.961 116.372C207.756 116.196 207.844 115.991 208.225 115.756C208.636 115.521 209.135 115.389 209.721 115.36C210.308 115.331 210.909 115.463 211.525 115.756C212.171 116.049 212.625 116.636 212.889 117.516C213.095 118.161 213.036 119.115 212.713 120.376C212.391 121.608 211.907 123.016 211.261 124.6C210.645 126.184 209.912 127.9 209.061 129.748C208.211 131.567 207.345 133.371 206.465 135.16C205.615 136.949 204.793 138.68 204.001 140.352C203.239 141.995 202.608 143.447 202.109 144.708C201.64 145.94 201.361 146.923 201.273 147.656C201.215 148.389 201.435 148.727 201.933 148.668C202.227 148.639 202.593 148.404 203.033 147.964C203.503 147.524 204.016 146.967 204.573 146.292C205.131 145.588 205.703 144.811 206.289 143.96C206.876 143.109 207.433 142.259 207.961 141.408C208.489 140.557 208.959 139.751 209.369 138.988C209.78 138.225 210.073 137.595 210.249 137.096C210.337 136.861 210.484 136.715 210.689 136.656C210.895 136.597 211.085 136.597 211.261 136.656C211.437 136.715 211.569 136.832 211.657 137.008C211.775 137.184 211.775 137.375 211.657 137.58C211.423 138.079 211.085 138.768 210.645 139.648C210.205 140.499 209.677 141.423 209.061 142.42C208.475 143.388 207.829 144.371 207.125 145.368C206.421 146.365 205.688 147.275 204.925 148.096C204.192 148.917 203.444 149.592 202.681 150.12C201.919 150.648 201.185 150.912 200.481 150.912C199.367 150.971 198.531 150.531 197.973 149.592C197.445 148.624 197.24 147.407 197.357 145.94C196.8 146.849 196.213 147.671 195.597 148.404C194.981 149.108 194.321 149.68 193.617 150.12C192.913 150.56 192.151 150.824 191.329 150.912C190.508 151 189.628 150.839 188.689 150.428C187.516 149.959 186.68 149.269 186.181 148.36C185.653 147.451 185.345 146.468 185.257 145.412C185.169 144.327 185.257 143.212 185.521 142.068C185.785 140.895 186.108 139.824 186.489 138.856C187.193 137.067 187.971 135.541 188.821 134.28C189.701 132.989 190.625 131.948 191.593 131.156C192.561 130.335 193.559 129.748 194.585 129.396C195.612 129.044 196.653 128.883 197.709 128.912C198.061 128.941 198.428 129.015 198.809 129.132C199.22 129.22 199.587 129.381 199.909 129.616C200.261 129.851 200.555 130.173 200.789 130.584C201.024 130.965 201.141 131.449 201.141 132.036C201.141 132.623 201.009 133.048 200.745 133.312C200.511 133.605 200.188 133.752 199.777 133.752C199.425 133.752 199.103 133.635 198.809 133.4C198.545 133.165 198.413 132.857 198.413 132.476Z" fill="white"/>
</svg>
