<svg width="116" height="27" viewBox="0 0 116 27" fill="none" xmlns="http://www.w3.org/2000/svg">
<path d="M10.7392 2.20893C12.074 2.20893 13.1661 2.41275 14.0156 2.82037C14.8852 3.20761 15.6538 3.66619 16.3212 4.1961C16.7257 4.50182 17.029 4.54258 17.2313 4.31838C17.4537 4.07381 17.6054 3.51333 17.6863 2.63694L18.3841 2.63694C18.3436 3.43181 18.3133 4.39991 18.2931 5.54125C18.2728 6.66222 18.2627 8.16023 18.2627 10.0353H17.565C17.4639 9.09777 17.3324 8.3029 17.1706 7.65071C17.0088 6.97813 16.7863 6.38707 16.5032 5.87754C16.22 5.36801 15.8156 4.90944 15.2897 4.50182C14.7841 3.99229 14.1976 3.61524 13.5302 3.37066C12.8628 3.12609 12.165 3.0038 11.437 3.0038C10.3448 3.0038 9.4145 3.29933 8.64597 3.89038C7.87744 4.46105 7.25048 5.24573 6.76509 6.24441C6.29993 7.24308 5.95612 8.37424 5.73365 9.63787C5.51118 10.8811 5.39994 12.1753 5.39994 13.5205C5.39994 14.886 5.51118 16.2006 5.73365 17.4642C5.97634 18.7075 6.34038 19.8183 6.82576 20.7966C7.33138 21.7749 7.97856 22.5493 8.76732 23.12C9.55608 23.6907 10.4864 23.976 11.5583 23.976C12.2257 23.976 12.8931 23.8537 13.5605 23.6092C14.2482 23.3442 14.8347 22.9672 15.3201 22.478C16.1088 21.8666 16.6448 21.1125 16.9279 20.2157C17.211 19.2985 17.4234 18.0859 17.565 16.5777H18.2627C18.2627 18.5139 18.2728 20.0832 18.2931 21.2857C18.3133 22.4678 18.3436 23.4665 18.3841 24.2817H17.6863C17.6054 23.4053 17.4639 22.8551 17.2616 22.6309C17.0796 22.4067 16.7661 22.4372 16.3212 22.7226C15.5729 23.2525 14.774 23.7213 13.9246 24.1289C13.0954 24.5161 12.0235 24.7097 10.7089 24.7097C8.56507 24.7097 6.68419 24.2715 5.06623 23.3952C3.4685 22.5188 2.22469 21.2551 1.33481 19.6043C0.444935 17.9534 -1.49943e-09 15.9662 0 13.6428C1.47312e-09 11.3601 0.455045 9.36272 1.36515 7.65071C2.29547 5.93869 3.55951 4.60372 5.15725 3.64581C6.77521 2.68789 8.63586 2.20893 10.7392 2.20893Z" fill="white"/>
<path d="M37.4683 2.63694V3.24837C36.8211 3.26876 36.3256 3.35028 35.9818 3.49295C35.6582 3.61524 35.4458 3.85981 35.3447 4.22667C35.2436 4.57315 35.193 5.12344 35.193 5.87754L35.193 21.0411C35.193 21.7749 35.2436 22.3251 35.3447 22.692C35.466 23.0589 35.6885 23.3034 36.0121 23.4257C36.3357 23.548 36.8211 23.6295 37.4683 23.6703V24.2817C36.9222 24.241 36.2346 24.2206 35.4054 24.2206C34.5762 24.2002 33.7368 24.19 32.8874 24.19C31.8964 24.19 30.9762 24.2002 30.1268 24.2206C29.2976 24.2206 28.62 24.241 28.0942 24.2817V23.6703C28.7414 23.6295 29.2268 23.548 29.5504 23.4257C29.874 23.3034 30.0863 23.0589 30.1874 22.692C30.3088 22.3251 30.3695 21.7749 30.3695 21.0411L30.3695 5.87754C30.3695 5.12344 30.3088 4.57315 30.1874 4.22667C30.0863 3.85981 29.8638 3.61524 29.52 3.49295C29.1964 3.35028 28.7212 3.26876 28.0942 3.24837V2.63694C28.62 2.65732 29.2976 2.6777 30.1268 2.69808C30.9762 2.71846 31.8964 2.72865 32.8874 2.72865C33.7368 2.72865 34.5762 2.71846 35.4054 2.69808C36.2346 2.6777 36.9222 2.65732 37.4683 2.63694Z" fill="white"/>
<path d="M66.4695 2.63694V3.24837C65.8223 3.3299 65.3369 3.50314 65.0133 3.7681C64.6897 4.01267 64.4673 4.4101 64.3459 4.96039C64.2448 5.51068 64.1942 6.28517 64.1942 7.28384V24.3429C63.9515 24.3225 63.6987 24.3123 63.4358 24.3123C63.1931 24.3123 62.9302 24.3225 62.6471 24.3429L49.4809 7.52842V19.268C49.4809 20.3889 49.5416 21.2551 49.6629 21.8666C49.7843 22.4576 50.0472 22.8856 50.4517 23.1506C50.8764 23.3952 51.5337 23.5684 52.4236 23.6703V24.2817C52.0393 24.241 51.5337 24.2206 50.9067 24.2206C50.2798 24.2002 49.6933 24.19 49.1472 24.19C48.682 24.19 48.2068 24.2002 47.7214 24.2206C47.236 24.2206 46.8315 24.241 46.5079 24.2817V23.6703C47.1551 23.5684 47.6405 23.3952 47.9641 23.1506C48.2877 22.906 48.5 22.5086 48.6011 21.9583C48.7225 21.3876 48.7832 20.6131 48.7832 19.6348V5.87754C48.7832 5.12344 48.7225 4.57315 48.6011 4.22667C48.5 3.85981 48.2775 3.61524 47.9337 3.49295C47.6101 3.35028 47.1349 3.26876 46.5079 3.24837V2.63694C46.8315 2.65732 47.236 2.6777 47.7214 2.69808C48.2068 2.71846 48.682 2.72865 49.1472 2.72865C49.6326 2.72865 50.0977 2.71846 50.5427 2.69808C50.9876 2.6777 51.3921 2.65732 51.7562 2.63694L63.4965 17.2197V7.65071C63.4965 6.52974 63.4358 5.67373 63.3145 5.08268C63.1931 4.47124 62.9201 4.03305 62.4954 3.7681C62.0909 3.50314 61.4437 3.3299 60.5538 3.24837V2.63694C60.9381 2.65732 61.4437 2.6777 62.0707 2.69808C62.6976 2.71846 63.2841 2.72865 63.8302 2.72865C64.3156 2.72865 64.7908 2.71846 65.256 2.69808C65.7414 2.6777 66.1459 2.65732 66.4695 2.63694Z" fill="white"/>
<path d="M77.9476 2.117V18.8486C77.9476 20.0446 78.1832 20.8507 78.6545 21.2667C79.1259 21.6827 79.9376 21.8907 81.0897 21.8907V22.7097C80.566 22.6837 79.7936 22.6577 78.7724 22.6317C77.7774 22.5797 76.743 22.5537 75.6695 22.5537C74.3602 22.5537 73.1033 22.5797 71.8988 22.6317C70.7205 22.6577 69.804 22.6837 69.1494 22.7097V21.8907C70.3539 21.8907 71.2966 21.6827 71.9774 21.2667C72.6582 20.8247 72.9986 19.9666 72.9986 18.6926V9.17626C72.9986 7.92821 72.8808 7.00518 72.6451 6.40716C72.4094 5.80914 71.9905 5.41912 71.3882 5.23712C70.786 5.05511 69.9612 4.96411 68.9137 4.96411V4.10608C71.0347 4.05407 72.7891 3.88507 74.1769 3.59906C75.5909 3.31305 76.8478 2.81903 77.9476 2.117Z" fill="white"/>
<path d="M92.83 2.117V18.8486C92.83 20.0446 93.0657 20.8507 93.537 21.2667C94.0083 21.6827 94.8201 21.8907 95.9722 21.8907V22.7097C95.4485 22.6837 94.676 22.6577 93.6548 22.6317C92.6598 22.5797 91.6255 22.5537 90.5519 22.5537C89.2427 22.5537 87.9858 22.5797 86.7813 22.6317C85.603 22.6577 84.6865 22.6837 84.0319 22.7097V21.8907C85.2364 21.8907 86.179 21.6827 86.8598 21.2667C87.5407 20.8247 87.8811 19.9666 87.8811 18.6926V9.17626C87.8811 7.92821 87.7632 7.00518 87.5276 6.40716C87.2919 5.80914 86.8729 5.41912 86.2707 5.23712C85.6684 5.05511 84.8436 4.96411 83.7962 4.96411V4.10608C85.9172 4.05407 87.6716 3.88507 89.0594 3.59906C90.4734 3.31305 91.7302 2.81903 92.83 2.117Z" fill="white"/>
<path d="M111.444 0L111.601 1.01404L99.7784 16.6146L100.093 15.5226L112.465 15.5226C113.539 15.5226 114.219 15.3926 114.507 15.1325C114.795 14.8465 114.992 14.3655 115.097 13.6895H115.843C115.843 15.1715 115.856 16.3156 115.882 17.1216C115.908 17.9016 115.948 18.6167 116 19.2667C115.817 19.2147 115.489 19.1887 115.018 19.1887C114.547 19.1627 113.997 19.1367 113.368 19.1107C112.74 19.0847 112.085 19.0717 111.405 19.0717C110.75 19.0717 110.121 19.0717 109.519 19.0717L97.4218 19.0717V18.2527L111.444 0ZM112.072 0V26.2089H107.987V5.07018L111.444 0L112.072 0Z" fill="white"/>
</svg>
