<svg width="27" height="116" viewBox="0 0 27 116" fill="none" xmlns="http://www.w3.org/2000/svg">
<path d="M2.20893 105.261C2.20893 103.926 2.41275 102.834 2.82037 101.984C3.20761 101.115 3.66619 100.346 4.1961 99.6788C4.50182 99.2743 4.54258 98.971 4.31838 98.7687C4.07381 98.5463 3.51333 98.3946 2.63694 98.3137L2.63694 97.6159C3.4318 97.6564 4.39991 97.6867 5.54125 97.7069C6.66222 97.7272 8.16023 97.7373 10.0353 97.7373L10.0353 98.435C9.09777 98.5361 8.3029 98.6676 7.6507 98.8294C6.97813 98.9912 6.38707 99.2137 5.87754 99.4968C5.36801 99.78 4.90944 100.184 4.50182 100.71C3.99229 101.216 3.61523 101.802 3.37066 102.47C3.12609 103.137 3.0038 103.835 3.0038 104.563C3.0038 105.655 3.29933 106.585 3.89038 107.354C4.46105 108.123 5.24573 108.75 6.24441 109.235C7.24308 109.7 8.37424 110.044 9.63787 110.266C10.8811 110.489 12.1753 110.6 13.5205 110.6C14.886 110.6 16.2006 110.489 17.4642 110.266C18.7075 110.024 19.8183 109.66 20.7966 109.174C21.7749 108.669 22.5493 108.021 23.12 107.233C23.6907 106.444 23.976 105.514 23.976 104.442C23.976 103.774 23.8537 103.107 23.6092 102.439C23.3442 101.752 22.9672 101.165 22.478 100.68C21.8666 99.8912 21.1125 99.3552 20.2157 99.0721C19.2985 98.789 18.0859 98.5766 16.5777 98.435L16.5777 97.7373C18.5139 97.7373 20.0832 97.7272 21.2857 97.7069C22.4678 97.6867 23.4665 97.6564 24.2817 97.6159L24.2817 98.3137C23.4053 98.3946 22.8551 98.5361 22.6309 98.7384C22.4067 98.9204 22.4372 99.2339 22.7226 99.6788C23.2525 100.427 23.7213 101.226 24.1289 102.075C24.5161 102.905 24.7097 103.977 24.7097 105.291C24.7097 107.435 24.2715 109.316 23.3952 110.934C22.5188 112.532 21.2551 113.775 19.6043 114.665C17.9534 115.555 15.9662 116 13.6428 116C11.3601 116 9.36272 115.545 7.65071 114.635C5.93869 113.705 4.60372 112.44 3.64581 110.843C2.68789 109.225 2.20893 107.364 2.20893 105.261Z" fill="white"/>
<path d="M2.63694 78.5317L3.24837 78.5317C3.26875 79.1789 3.35028 79.6744 3.49295 80.0182C3.61523 80.3418 3.85981 80.5542 4.22667 80.6553C4.57315 80.7564 5.12344 80.807 5.87754 80.807L21.0411 80.807C21.7749 80.807 22.3251 80.7564 22.692 80.6553C23.0589 80.534 23.3034 80.3115 23.4257 79.9879C23.548 79.6643 23.6295 79.1789 23.6703 78.5317L24.2817 78.5317C24.241 79.0778 24.2206 79.7654 24.2206 80.5946C24.2002 81.4238 24.19 82.2632 24.19 83.1126C24.19 84.1036 24.2002 85.0238 24.2206 85.8732C24.2206 86.7024 24.241 87.38 24.2817 87.9058L23.6703 87.9058C23.6295 87.2586 23.548 86.7732 23.4257 86.4496C23.3034 86.126 23.0589 85.9137 22.692 85.8126C22.3251 85.6912 21.7749 85.6305 21.0411 85.6305L5.87754 85.6305C5.12344 85.6305 4.57315 85.6912 4.22667 85.8126C3.85981 85.9137 3.61523 86.1362 3.49295 86.48C3.35028 86.8036 3.26875 87.2788 3.24837 87.9058L2.63694 87.9058C2.65732 87.38 2.6777 86.7024 2.69808 85.8732C2.71846 85.0238 2.72865 84.1036 2.72865 83.1126C2.72865 82.2632 2.71846 81.4238 2.69808 80.5946C2.6777 79.7654 2.65732 79.0778 2.63694 78.5317Z" fill="white"/>
<path d="M2.63694 49.5305L3.24837 49.5305C3.3299 50.1777 3.50314 50.6631 3.76809 50.9867C4.01267 51.3103 4.4101 51.5327 4.96039 51.6541C5.51068 51.7552 6.28516 51.8058 7.28384 51.8058L24.3429 51.8058C24.3225 52.0485 24.3123 52.3013 24.3123 52.5642C24.3123 52.8069 24.3225 53.0698 24.3429 53.3529L7.52842 66.5191L19.268 66.5191C20.3889 66.5191 21.2551 66.4584 21.8666 66.3371C22.4576 66.2157 22.8856 65.9528 23.1506 65.5483C23.3952 65.1236 23.5684 64.4663 23.6703 63.5764L24.2817 63.5764C24.241 63.9607 24.2206 64.4663 24.2206 65.0933C24.2002 65.7202 24.19 66.3067 24.19 66.8528C24.19 67.318 24.2002 67.7932 24.2206 68.2786C24.2206 68.764 24.241 69.1685 24.2817 69.4921L23.6703 69.4921C23.5684 68.8449 23.3952 68.3595 23.1506 68.0359C22.906 67.7123 22.5086 67.5 21.9583 67.3989C21.3876 67.2775 20.6131 67.2168 19.6348 67.2168L5.87754 67.2168C5.12344 67.2168 4.57315 67.2775 4.22667 67.3989C3.85981 67.5 3.61523 67.7225 3.49295 68.0663C3.35028 68.3899 3.26875 68.8651 3.24837 69.4921L2.63694 69.4921C2.65732 69.1685 2.6777 68.764 2.69808 68.2786C2.71846 67.7932 2.72865 67.318 2.72865 66.8528C2.72865 66.3674 2.71846 65.9023 2.69808 65.4573C2.6777 65.0124 2.65732 64.6079 2.63694 64.2438L17.2197 52.5035L7.6507 52.5035C6.52974 52.5035 5.67373 52.5642 5.08268 52.6855C4.47124 52.8069 4.03305 53.0799 3.76809 53.5046C3.50314 53.9091 3.3299 54.5563 3.24837 55.4462L2.63694 55.4462C2.65732 55.0619 2.6777 54.5563 2.69808 53.9293C2.71846 53.3024 2.72865 52.7159 2.72865 52.1698C2.72865 51.6844 2.71846 51.2092 2.69808 50.744C2.6777 50.2586 2.65732 49.8541 2.63694 49.5305Z" fill="white"/>
<path d="M2.117 38.0524L18.8486 38.0524C20.0446 38.0524 20.8507 37.8168 21.2667 37.3455C21.6827 36.8741 21.8907 36.0624 21.8907 34.9103L22.7097 34.9103C22.6837 35.434 22.6577 36.2064 22.6317 37.2276C22.5797 38.2226 22.5537 39.257 22.5537 40.3305C22.5537 41.6398 22.5797 42.8967 22.6317 44.1012C22.6577 45.2795 22.6837 46.196 22.7097 46.8506L21.8907 46.8506C21.8907 45.6461 21.6827 44.7034 21.2667 44.0226C20.8247 43.3418 19.9666 43.0014 18.6926 43.0014L9.17625 43.0014C7.92821 43.0014 7.00518 43.1192 6.40715 43.3549C5.80913 43.5906 5.41912 44.0095 5.23711 44.6118C5.05511 45.214 4.9641 46.0389 4.9641 47.0863L4.10607 47.0863C4.05407 44.9653 3.88506 43.2109 3.59905 41.8231C3.31304 40.4091 2.81903 39.1522 2.117 38.0524Z" fill="white"/>
<path d="M2.117 23.17L18.8486 23.17C20.0446 23.17 20.8507 22.9343 21.2667 22.463C21.6827 21.9917 21.8907 21.1799 21.8907 20.0278L22.7097 20.0278C22.6837 20.5515 22.6577 21.324 22.6317 22.3452C22.5797 23.3402 22.5537 24.3745 22.5537 25.4481C22.5537 26.7573 22.5797 28.0142 22.6317 29.2187C22.6577 30.397 22.6837 31.3135 22.7097 31.9681L21.8907 31.9681C21.8907 30.7636 21.6827 29.821 21.2667 29.1402C20.8247 28.4593 19.9666 28.1189 18.6926 28.1189L9.17625 28.1189C7.92821 28.1189 7.00518 28.2368 6.40715 28.4724C5.80913 28.7081 5.41912 29.1271 5.23711 29.7293C5.05511 30.3316 4.9641 31.1564 4.9641 32.2038L4.10607 32.2038C4.05407 30.0828 3.88506 28.3284 3.59905 26.9406C3.31304 25.5266 2.81902 24.2698 2.117 23.17Z" fill="white"/>
<path d="M-4.87136e-06 4.55618L1.01403 4.39906L16.6146 16.2216L15.5225 15.9073L15.5225 3.53496C15.5225 2.46137 15.3925 1.78057 15.1325 1.49254C14.8465 1.2045 14.3655 1.00812 13.6895 0.903381L13.6895 0.157104C15.1715 0.157104 16.3156 0.144005 17.1216 0.11782C17.9016 0.0916353 18.6167 0.0523692 19.2667 -8.42174e-07C19.2147 0.183294 19.1887 0.510596 19.1887 0.981925C19.1627 1.45325 19.1367 2.00314 19.1107 2.63158C19.0847 3.26002 19.0717 3.91465 19.0717 4.59546C19.0717 5.25008 19.0717 5.8785 19.0717 6.48076L19.0717 18.5782L18.2527 18.5782L-4.87136e-06 4.55618ZM-4.89883e-06 3.92773L26.2089 3.92773L26.2089 8.01259L5.07018 8.0126L-4.87136e-06 4.55618L-4.89883e-06 3.92773Z" fill="white"/>
</svg>
