<svg width="14" height="14" viewBox="0 0 14 14" fill="none" xmlns="http://www.w3.org/2000/svg">
<g clip-path="url(#clip0_226_459)">
<path fill-rule="evenodd" clip-rule="evenodd" d="M7.00002 10.815C9.10682 10.815 10.8147 9.10706 10.8147 7.00026C10.8147 4.89345 9.10682 3.18555 7.00002 3.18555C4.89321 3.18555 3.1853 4.89345 3.1853 7.00026C3.1853 9.10706 4.89321 10.815 7.00002 10.815ZM7.00002 9.5434C8.40453 9.5434 9.54316 8.40477 9.54316 7.00026C9.54316 5.59572 8.40453 4.45712 7.00002 4.45712C5.59548 4.45712 4.45687 5.59572 4.45687 7.00026C4.45687 8.40477 5.59548 9.5434 7.00002 9.5434Z" fill="white"/>
<path d="M10.8147 2.5498C10.4636 2.5498 10.179 2.83446 10.179 3.18559C10.179 3.53672 10.4636 3.82138 10.8147 3.82138C11.1659 3.82138 11.4505 3.53672 11.4505 3.18559C11.4505 2.83446 11.1659 2.5498 10.8147 2.5498Z" fill="white"/>
<path fill-rule="evenodd" clip-rule="evenodd" d="M0.422126 2.08971C0.00634766 2.90572 0.00634766 3.97394 0.00634766 6.11038V7.89058C0.00634766 10.027 0.00634766 11.0953 0.422126 11.9112C0.787855 12.629 1.37143 13.2126 2.08922 13.5783C2.90523 13.9941 3.97345 13.9941 6.10989 13.9941H7.89009C10.0265 13.9941 11.0948 13.9941 11.9107 13.5783C12.6285 13.2126 13.2121 12.629 13.5778 11.9112C13.9936 11.0953 13.9936 10.027 13.9936 7.89058V6.11038C13.9936 3.97394 13.9936 2.90572 13.5778 2.08971C13.2121 1.37192 12.6285 0.788344 11.9107 0.422614C11.0948 0.00683594 10.0265 0.00683594 7.89009 0.00683594H6.10989C3.97345 0.00683594 2.90523 0.00683594 2.08922 0.422614C1.37143 0.788344 0.787855 1.37192 0.422126 2.08971ZM7.89009 1.27841H6.10989C5.02069 1.27841 4.28026 1.2794 3.70794 1.32615C3.15046 1.3717 2.86537 1.45426 2.6665 1.55559C2.18798 1.79941 1.79893 2.18846 1.5551 2.66699C1.45377 2.86586 1.37121 3.15095 1.32567 3.70843C1.27891 4.28075 1.27792 5.02118 1.27792 6.11038V7.89058C1.27792 8.97981 1.27891 9.72018 1.32567 10.2925C1.37121 10.85 1.45377 11.1351 1.5551 11.334C1.79893 11.8125 2.18798 12.2015 2.6665 12.4453C2.86537 12.5467 3.15046 12.6293 3.70794 12.6748C4.28026 12.7215 5.02069 12.7225 6.10989 12.7225H7.89009C8.97932 12.7225 9.71969 12.7215 10.292 12.6748C10.8495 12.6293 11.1346 12.5467 11.3335 12.4453C11.812 12.2015 12.201 11.8125 12.4449 11.334C12.5462 11.1351 12.6288 10.85 12.6743 10.2925C12.721 9.72018 12.7221 8.97981 12.7221 7.89058V6.11038C12.7221 5.02118 12.721 4.28075 12.6743 3.70843C12.6288 3.15095 12.5462 2.86586 12.4449 2.66699C12.201 2.18846 11.812 1.79941 11.3335 1.55559C11.1346 1.45426 10.8495 1.3717 10.292 1.32615C9.71969 1.2794 8.97932 1.27841 7.89009 1.27841Z" fill="white"/>
</g>
<defs>
<clipPath id="clip0_226_459">
<rect width="14" height="14" fill="white"/>
</clipPath>
</defs>
</svg>
