<svg width="37" height="38" viewBox="0 0 37 38" fill="none" xmlns="http://www.w3.org/2000/svg">
<g clip-path="url(#clip0_2013_598)">
<path d="M25.6204 0.5C25.7065 0.5 25.7927 0.5 25.8836 0.5C26.0949 3.10932 25.0989 5.05899 23.8885 6.47089C22.7008 7.87303 21.0744 9.23293 18.444 9.02659C18.2685 6.45464 19.2661 4.64956 20.4749 3.24092C21.596 1.92814 23.6513 0.759957 25.6204 0.5Z" fill="white"/>
<path d="M33.5832 27.6587C33.5832 27.6847 33.5832 27.7074 33.5832 27.7318C32.844 29.9707 31.7895 31.8895 30.5027 33.6702C29.328 35.2868 27.8885 37.4623 25.3182 37.4623C23.0972 37.4623 21.6219 36.0342 19.3457 35.9952C16.9378 35.9562 15.6137 37.1893 13.4122 37.4997C13.1603 37.4997 12.9085 37.4997 12.6616 37.4997C11.0449 37.2657 9.74028 35.9854 8.78982 34.8319C5.98716 31.4232 3.82139 27.0202 3.41846 21.3856C3.41846 20.8332 3.41846 20.2824 3.41846 19.73C3.58905 15.6974 5.54848 12.4187 8.15292 10.8297C9.52745 9.98485 11.417 9.26509 13.521 9.58679C14.4228 9.72652 15.344 10.0352 16.1515 10.3407C16.9167 10.6347 17.8737 11.1563 18.7803 11.1287C19.3944 11.1108 20.0053 10.7907 20.6244 10.5649C22.4376 9.91011 24.215 9.15948 26.5579 9.51205C29.3735 9.93773 31.372 11.1888 32.6067 13.119C30.2249 14.6348 28.3418 16.9192 28.6635 20.8202C28.9495 24.3637 31.0096 26.4369 33.5832 27.6587Z" fill="white"/>
</g>
<defs>
<clipPath id="clip0_2013_598">
<rect width="37" height="37" fill="white" transform="translate(0 0.5)"/>
</clipPath>
</defs>
</svg>
