<svg width="37" height="38" viewBox="0 0 37 38" fill="none" xmlns="http://www.w3.org/2000/svg">
<g clip-path="url(#clip0_2013_612)">
<path d="M35.603 15.7829L20.5111 15.7822C19.8446 15.7822 19.3044 16.3223 19.3044 16.9888V21.81C19.3044 22.4763 19.8446 23.0165 20.511 23.0165H29.0099C28.0792 25.4317 26.3422 27.4544 24.1261 28.7395L27.7501 35.0128C33.5632 31.6508 37.0001 25.7518 37.0001 19.1484C37.0001 18.2081 36.9308 17.536 36.7921 16.7791C36.6868 16.2041 36.1876 15.7829 35.603 15.7829Z" fill="#167EE6"/>
<path d="M18.5 30.2612C14.3408 30.2612 10.7099 27.9887 8.75978 24.626L2.48669 28.2417C5.67903 33.7745 11.6593 37.5003 18.5 37.5003C21.8558 37.5003 25.0222 36.5968 27.75 35.0222V35.0136L24.1261 28.7402C22.4684 29.7016 20.5502 30.2612 18.5 30.2612Z" fill="#12B347"/>
<path d="M27.75 35.0222V35.0136L24.1261 28.7402C22.4685 29.7016 20.5504 30.2612 18.5 30.2612V37.5003C21.8558 37.5003 25.0224 36.5968 27.75 35.0222Z" fill="#0F993E"/>
<path d="M7.23914 19.0002C7.23914 16.9501 7.79862 15.0321 8.75982 13.3745L2.48673 9.75879C0.903465 12.4779 0 15.6358 0 19.0002C0 22.3646 0.903465 25.5225 2.48673 28.2416L8.75982 24.6259C7.79862 22.9683 7.23914 21.0503 7.23914 19.0002Z" fill="#FFD500"/>
<path d="M18.5 7.73914C21.2122 7.73914 23.7035 8.70287 25.6494 10.3059C26.1295 10.7014 26.8272 10.6728 27.2669 10.2331L30.6829 6.8171C31.1818 6.31818 31.1463 5.5015 30.6133 5.03915C27.3531 2.21074 23.1111 0.5 18.5 0.5C11.6594 0.5 5.67909 4.2258 2.48676 9.7586L8.75985 13.3743C10.7099 10.0116 14.3408 7.73914 18.5 7.73914Z" fill="#FF4B26"/>
<path d="M25.6494 10.3059C26.1294 10.7014 26.8272 10.6728 27.2669 10.2331L30.6829 6.8171C31.1817 6.31818 31.1462 5.5015 30.6133 5.03915C27.353 2.21067 23.1111 0.5 18.5 0.5V7.73914C21.2121 7.73914 23.7035 8.70287 25.6494 10.3059Z" fill="#D93F21"/>
</g>
<defs>
<clipPath id="clip0_2013_612">
<rect width="37" height="37" fill="white" transform="translate(0 0.5)"/>
</clipPath>
</defs>
</svg>
