<svg width="25" height="25" viewBox="0 0 25 25" fill="none" xmlns="http://www.w3.org/2000/svg">
<g clip-path="url(#clip0_43_131)">
<path d="M25 4.16667C25 1.86875 23.1312 0 20.8333 0C18.5354 0 16.6667 1.86875 16.6667 4.16667C16.6667 4.23646 16.6844 4.30208 16.6875 4.37083L7.69375 7.18125C6.95729 6.00104 5.65729 5.20833 4.16667 5.20833C1.86875 5.20833 0 7.07708 0 9.375C0 11.6729 1.86875 13.5417 4.16667 13.5417C5.00208 13.5417 5.77812 13.2885 6.43125 12.8635L13.0042 18.8885C12.6927 19.4719 12.5 20.1271 12.5 20.8333C12.5 23.1312 14.3687 25 16.6667 25C18.9646 25 20.8333 23.1312 20.8333 20.8333C20.8333 19.2573 19.9437 17.9 18.65 17.1917L20.8656 8.33021C23.1479 8.3125 25 6.45312 25 4.16667ZM17.3062 6.36042C17.6865 6.96875 18.2188 7.4625 18.85 7.80833L16.6354 16.6708C15.8125 16.6771 15.0479 16.926 14.4031 17.3448L7.83021 11.3198C8.14167 10.7365 8.33438 10.0812 8.33438 9.375C8.33438 9.30521 8.31667 9.23958 8.31354 9.17083L17.3062 6.36042Z" fill="white"/>
</g>
<defs>
<clipPath id="clip0_43_131">
<rect width="25" height="25" fill="white"/>
</clipPath>
</defs>
</svg>
