<svg width="17" height="14" viewBox="0 0 17 14" fill="none" xmlns="http://www.w3.org/2000/svg">
<g clip-path="url(#clip0_226_465)">
<path d="M16.9787 3.23863C16.907 4.81406 15.8196 6.97117 13.7164 9.70999C11.5416 12.57 9.70132 14 8.19567 14C7.26358 14 6.47492 13.1275 5.82962 11.3824L4.53906 6.58338C4.06107 4.8383 3.54722 3.96575 2.99754 3.96575C2.87805 3.96575 2.4598 4.22025 1.74281 4.72923L0.98999 3.74762C1.772 3.05076 2.54875 2.34786 3.32018 1.63898C4.37175 0.717956 5.16043 0.233219 5.68621 0.184737C6.92898 0.063553 7.69375 0.923981 7.98055 2.76601C8.29124 4.75346 8.50633 5.98957 8.62581 6.47432C8.98431 8.12246 9.37865 8.94653 9.80883 8.94653C10.1434 8.94653 10.6453 8.41331 11.3145 7.34687C11.9837 6.28042 12.3422 5.46847 12.39 4.91102C12.4856 3.99 12.1271 3.5295 11.3145 3.5295C10.9321 3.5295 10.5378 3.61434 10.1315 3.78399C10.9202 1.1906 12.4258 -0.0697412 14.6485 0.00297492C16.2975 0.051457 17.0743 1.13002 16.9787 3.23866L16.9787 3.23863Z" fill="white"/>
</g>
<defs>
<clipPath id="clip0_226_465">
<rect width="16" height="14" fill="white" transform="translate(0.988281)"/>
</clipPath>
</defs>
</svg>
