<svg width="20" height="14" viewBox="0 0 20 14" fill="none" xmlns="http://www.w3.org/2000/svg">
<g clip-path="url(#clip0_226_457)">
<path d="M7.95469 9.94437V4.05579L13.1807 7.00041L7.95469 9.94437ZM19.5787 2.20211C19.3427 1.34296 18.676 0.678616 17.8287 0.443522L17.8107 0.439559C15.682 0.171446 13.22 0.0182385 10.7214 0.0182385C10.4674 0.0182385 10.214 0.0195592 9.96135 0.0228611L10 0.0222007C9.78535 0.0195592 9.53269 0.0175781 9.27869 0.0175781C6.78002 0.0175781 4.31669 0.170786 1.89869 0.467295L2.18802 0.438239C1.32335 0.677956 0.656686 1.34163 0.425352 2.18362L0.421352 2.20079C0.154686 3.59352 0.00268555 5.19626 0.00268555 6.83399C0.00268555 6.89211 0.00268558 6.95022 0.00335224 7.00767V6.99843C0.00335224 7.0473 0.00268555 7.10541 0.00268555 7.16352C0.00268555 8.80126 0.155352 10.4033 0.446686 11.9572L0.421352 11.7961C0.657352 12.6552 1.32402 13.3196 2.17135 13.5547L2.18935 13.5586C4.31802 13.8267 6.78002 13.9799 9.27869 13.9799C9.53202 13.9799 9.78535 13.9786 10.0387 13.9753L10 13.976C10.2147 13.9786 10.468 13.9806 10.7214 13.9806C13.2207 13.9806 15.6834 13.8274 18.1014 13.5309L17.812 13.5599C18.6774 13.3209 19.344 12.6565 19.576 11.8146L19.58 11.7974C19.846 10.4047 19.998 8.80192 19.998 7.16484C19.998 7.10673 19.998 7.04862 19.9974 6.99116V6.99975C19.9974 6.95088 19.998 6.89277 19.998 6.83465C19.998 5.19692 19.8454 3.59484 19.554 2.04097L19.5787 2.20211Z" fill="white"/>
</g>
<defs>
<clipPath id="clip0_226_457">
<rect width="20" height="14" fill="white"/>
</clipPath>
</defs>
</svg>
