<svg width="636" height="328" viewBox="0 0 636 328" fill="none" xmlns="http://www.w3.org/2000/svg">
<path d="M191.412 31.8242H175.968V224.172C175.968 243.204 174.72 259.272 172.224 272.376C169.728 285.48 165.516 296.088 159.588 304.2C153.972 312.312 146.64 318.24 137.592 321.984C128.544 325.416 117.468 327.132 104.364 327.132C76.908 327.132 56.784 319.332 43.992 303.732C31.2 287.82 24.804 262.86 24.804 228.852V31.8242H8.892V3.74417H106.236V31.8242H87.048V228.852C87.048 241.956 87.516 252.876 88.452 261.612C89.388 270.036 90.948 276.744 93.132 281.736C95.628 286.416 98.904 289.692 102.96 291.564C107.328 293.436 112.788 294.372 119.34 294.372C125.58 294.372 130.572 293.592 134.316 292.032C138.372 290.16 141.336 286.728 143.208 281.736C145.392 276.744 146.796 269.88 147.42 261.144C148.356 252.096 148.824 240.396 148.824 226.044V31.8242H129.168V3.74417H191.412V31.8242ZM388.773 31.8242H372.393V323.388H317.637L253.989 106.704V295.776H268.965V323.388H212.337V295.776H228.249V31.8242H212.337V3.74417H287.685L346.653 209.196V31.8242H330.741V3.74417H388.773V31.8242ZM583.793 163.332C583.793 193.284 581.765 218.712 577.709 239.616C573.653 260.52 567.881 277.524 560.393 290.628C552.905 303.42 543.857 312.78 533.249 318.708C522.953 324.324 511.253 327.132 498.149 327.132C440.741 327.132 412.037 272.532 412.037 163.332C412.037 133.068 414.065 107.64 418.121 87.0482C422.177 66.1442 427.949 49.2962 435.437 36.5042C442.925 23.4002 451.973 14.0402 462.581 8.42417C473.189 2.80816 485.045 0.00016284 498.149 0.00016284C515.621 0.00016284 529.817 5.14816 540.737 15.4442C551.969 25.4282 560.705 38.3762 566.945 54.2882C573.497 69.8882 577.865 87.3602 580.049 106.704C582.545 126.048 583.793 144.924 583.793 163.332ZM517.337 255.528V72.0722C517.337 54.6002 515.933 42.5882 513.125 36.0362C510.317 29.4842 505.325 26.2082 498.149 26.2082C490.661 26.2082 485.513 29.4842 482.705 36.0362C479.897 42.5882 478.493 54.6002 478.493 72.0722V255.528C478.493 272.688 479.897 284.544 482.705 291.096C485.513 297.648 490.661 300.924 498.149 300.924C505.325 300.924 510.317 297.648 513.125 291.096C515.933 284.544 517.337 272.688 517.337 255.528Z" fill="white"/>
<path fill-rule="evenodd" clip-rule="evenodd" d="M510.296 326.27C518.596 325.048 526.248 322.527 533.25 318.708C543.858 312.78 552.906 303.42 560.394 290.628C567.882 277.524 573.654 260.52 577.71 239.616C581.766 218.712 583.794 193.284 583.794 163.332C583.794 144.924 582.546 126.048 580.05 106.704C577.866 87.36 573.498 69.888 566.946 54.288C560.706 38.376 551.97 25.428 540.738 15.444C529.818 5.148 515.622 0 498.15 0C485.046 0 473.19 2.808 462.582 8.424C451.974 14.04 442.926 23.4 435.438 36.504C427.95 49.296 422.178 66.144 418.122 87.048C414.066 107.64 412.038 133.068 412.038 163.332C412.038 232.959 423.707 280.388 447.046 305.621L500 323L510.296 326.27ZM372.393 281.12V31.824H388.773V3.74401H330.741V31.824H346.653V209.196L287.685 3.74401H212.337V31.824H228.249V234.688L253.989 242.632V106.704L298.055 256.723L372.393 281.12ZM175.968 218.552V31.824H191.412V3.74401H129.168V31.824H148.824V210.174L175.968 218.552ZM87.0481 191.694V31.824H106.236V3.74401H8.89209V31.824H24.8041V174.006L87.0481 191.694ZM517.338 72.072V255.528C517.338 272.688 515.934 284.544 513.126 291.096C510.318 297.648 505.326 300.924 498.15 300.924C490.662 300.924 485.514 297.648 482.706 291.096C479.898 284.544 478.494 272.688 478.494 255.528V72.072C478.494 54.6 479.898 42.588 482.706 36.036C485.514 29.484 490.662 26.208 498.15 26.208C505.326 26.208 510.318 29.484 513.126 36.036C515.934 42.588 517.338 54.6 517.338 72.072Z" fill="#FF042B"/>
</svg>
