<svg width="902" height="435" viewBox="0 0 902 435" fill="none" xmlns="http://www.w3.org/2000/svg">
<path d="M0 10.4281L120.037 0.453396L121.17 29.4707L76.1705 32.7579L85.6919 180.565L58.0347 182.492L44.4328 34.7982L1.47354 39.6722L0 10.4281Z" fill="white"/>
<path d="M156.535 4.64731L188.953 4.19391L194.96 77.0773L244.04 72.8834L242.114 1.81358L278.385 0L287.68 177.845L251.408 179.658L247.214 105.415L196.661 108.815L198.247 182.152L165.716 182.492L156.535 4.64731Z" fill="white"/>
<path d="M324.972 4.19391L427.779 0.906792L426.872 27.6572L355.576 28.1106L360.223 85.1251L417.805 80.4778L419.731 108.588L362.604 108.135L366.571 163.223L432.427 161.069L433.333 179.658L328.485 181.925L324.972 4.19391Z" fill="white"/>
<path d="M0 417.711L7.60412 201.72L44.9748 206.163C47.2279 206.545 49.0043 206.927 50.3042 207.31C51.6473 207.692 52.7739 208.17 53.6838 208.743C54.637 209.316 55.5036 210.081 56.2835 211.036C57.1067 211.896 58.1033 212.804 59.2731 213.759C64.1259 218.059 67.8088 224.986 70.3218 234.541C70.9284 236.93 71.4484 240.131 71.8817 244.144C72.3149 248.157 72.6182 252.361 72.7916 256.757C73.0082 261.152 73.1382 265.547 73.1815 269.943C73.2248 274.338 73.2032 278.208 73.1165 281.552C72.6399 293.114 71.1884 302.955 68.762 311.077C66.3356 319.199 63.021 325.601 58.8182 330.283C57.605 331.62 55.7852 332.528 53.3588 333.006C50.9758 333.388 48.6794 333.961 46.4696 334.726C46.7296 335.681 47.3145 337.783 48.2244 341.032C49.1776 344.281 50.6508 349.536 52.6439 356.798C54.637 363.964 57.28 373.662 60.573 385.893C63.8659 398.123 67.9821 413.937 72.9215 433.333L52.8389 430.324L34.901 366.4C34.3377 364.489 33.7094 362.005 33.0162 358.948C32.3229 355.89 31.5863 352.88 30.8064 349.918C30.0698 346.861 29.3766 344.137 28.7267 341.749C28.1201 339.36 27.6435 337.783 27.2968 337.019C26.7769 336.254 26.3869 335.633 26.127 335.156C25.9103 334.678 25.7154 334.391 25.542 334.296C25.3687 334.2 25.1088 334.105 24.7621 334.009C24.4155 333.913 23.9389 333.866 23.3323 333.866L20.6676 333.292L16.898 421.294L0 417.711ZM22.4874 288.002L35.0309 289.722C35.3776 289.722 36.0492 289.817 37.0457 290.008C38.0856 290.104 39.2338 290.152 40.4903 290.152C41.7035 290.152 43.0033 290.104 44.3899 290.008C45.7764 289.817 46.9462 289.53 47.8994 289.148C49.8926 288.766 51.6257 286.903 53.0988 283.559C54.6153 280.119 55.4602 276.01 55.6336 271.233C55.7202 269.322 55.7852 267.602 55.8285 266.073C55.8719 264.449 55.8069 262.824 55.6336 261.2C55.4602 259.48 55.1569 257.712 54.7237 255.897C54.2904 253.986 53.5755 251.884 52.5789 249.59C51.8857 247.775 50.9758 246.342 49.8492 245.291C48.766 244.24 47.5745 243.428 46.2746 242.854C44.9748 242.281 43.6749 241.851 42.3751 241.564C41.1186 241.278 39.9487 240.991 38.8655 240.704L24.3722 238.698L22.4874 288.002Z" fill="white"/>
<path d="M128.371 202.58L148.193 200L152.483 336.446C152.656 342.752 152.743 349.106 152.743 355.508C152.743 361.814 152.548 368.073 152.158 374.283C151.768 380.399 151.096 386.275 150.143 391.912C149.233 397.454 147.89 402.471 146.113 406.962C145.204 409.064 144.445 410.784 143.839 412.121C143.275 413.363 142.712 414.462 142.149 415.418C141.586 416.373 140.957 417.233 140.264 417.998C139.614 418.666 138.813 419.479 137.859 420.434C136.43 421.581 135.39 422.441 134.74 423.014C134.133 423.587 133.527 424.113 132.92 424.59C132.313 424.973 131.49 425.403 130.45 425.88C129.41 426.358 127.829 427.17 125.706 428.317C124.579 428.89 123.561 429.464 122.651 430.037C121.785 430.515 120.918 430.849 120.051 431.04C119.228 431.231 118.297 431.375 117.257 431.47C116.26 431.566 115.09 431.518 113.747 431.327C110.974 430.945 108.743 430.419 107.053 429.75C105.407 428.986 103.652 427.648 101.789 425.737C99.9255 423.922 98.344 422.154 97.0442 420.434C95.7443 418.619 94.6178 416.66 93.6645 414.558C92.7546 412.36 91.9531 409.876 91.2598 407.105C90.6099 404.238 89.9383 400.751 89.2451 396.642C88.7251 393.489 88.2268 389.524 87.7502 384.746C87.3169 379.969 86.9487 375.096 86.6454 370.127C86.3421 365.063 86.0821 360.333 85.8654 355.938C85.6488 351.542 85.4972 348.103 85.4105 345.618L81.7709 210.176L99.5139 207.596L104.323 359.091C104.67 370.844 105.883 379.539 107.963 385.176C110.043 390.814 113.661 393.25 118.817 392.486C123.843 391.912 127.699 388.281 130.385 381.593C133.115 374.809 134.307 365.541 133.96 353.788L128.371 202.58Z" fill="white"/>
<path d="M160.552 206.45L177.45 205.876L185.054 389.906L230.939 385.176L232.044 424.877L165.102 431.613L160.552 206.45Z" fill="white"/>
<path d="M239.918 205.303L298.867 201.147L298.347 234.971L257.466 235.545L260.131 307.637L293.147 301.761L294.252 337.305L261.496 336.732L263.771 406.388L301.531 403.665L302.051 427.17L241.933 430.037L239.918 205.303Z" fill="white"/>
<path d="M312.33 377.58L328.449 376.433C328.622 378.918 328.817 380.924 329.033 382.453C329.25 383.886 329.488 385.224 329.748 386.466C330.008 387.613 330.312 388.616 330.658 389.476C331.048 390.336 331.46 391.435 331.893 392.772C332.673 394.97 333.496 396.499 334.363 397.359C335.273 398.219 336.226 398.744 337.223 398.935C338.262 399.126 339.411 399.126 340.667 398.935C341.924 398.744 343.245 398.649 344.632 398.649C346.798 398.649 348.748 397.741 350.481 395.925C352.257 394.014 353.817 391.721 355.16 389.046C356.504 386.275 357.543 383.265 358.28 380.016C359.06 376.768 359.45 373.71 359.45 370.844C359.45 369.41 359.472 367.643 359.515 365.541C359.558 363.343 359.558 361.193 359.515 359.091C359.472 356.893 359.32 354.839 359.06 352.928C358.843 350.921 358.475 349.345 357.955 348.198C357.435 347.052 356.807 345.666 356.07 344.042C355.377 342.322 354.467 340.698 353.341 339.169C352.257 337.544 350.914 336.063 349.311 334.726C347.708 333.292 345.715 332.289 343.332 331.716C339.866 330.951 337.028 330.091 334.818 329.136C332.608 328.18 330.745 326.986 329.228 325.553C327.712 324.024 326.369 322.304 325.199 320.393C324.072 318.387 322.838 315.998 321.494 313.227C318.765 307.781 316.815 300.853 315.645 292.445C314.475 284.036 313.89 275.723 313.89 267.506C314.064 259.48 314.345 251.597 314.735 243.857C315.168 236.118 316.317 229.286 318.18 223.362C320.043 217.342 322.989 212.565 327.019 209.029C331.048 205.494 336.746 203.822 344.112 204.013C349.788 205.064 354.402 206.497 357.955 208.313C361.508 210.033 364.368 212.804 366.534 216.626C368.701 220.352 370.39 225.512 371.604 232.105C372.817 238.698 373.857 247.154 374.723 257.473H358.345C357.738 252.027 356.807 247.679 355.55 244.431C354.337 241.182 353.081 238.793 351.781 237.265C350.481 235.736 349.289 234.732 348.206 234.255C347.166 233.681 346.56 233.299 346.386 233.108C344.697 232.153 343.05 231.818 341.447 232.105C339.844 232.391 338.349 233.108 336.963 234.255C335.619 235.306 334.428 236.739 333.388 238.554C332.391 240.274 331.611 242.09 331.048 244.001C330.355 246.581 329.878 249.352 329.618 252.314C329.358 255.18 329.185 258.047 329.098 260.913C329.012 263.684 329.012 266.216 329.098 268.509C329.185 270.803 329.315 272.427 329.488 273.382C329.835 276.727 330.485 279.737 331.438 282.412C332.435 284.992 333.54 287.333 334.753 289.435C336.009 291.441 337.331 293.161 338.717 294.595C340.104 295.932 341.469 296.888 342.812 297.461C345.975 298.99 348.488 300.137 350.351 300.901C352.214 301.665 353.774 302.477 355.03 303.337C356.287 304.102 357.37 304.866 358.28 305.631C359.233 306.395 360.425 307.589 361.855 309.214C367.227 315.233 371.257 322.925 373.943 332.289C376.5 341.557 377.778 351.972 377.778 363.534C377.778 377.007 376.088 389.428 372.708 400.799C369.372 412.073 364.628 420.673 358.475 426.597C357.002 427.935 355.919 428.986 355.225 429.75C354.576 430.419 353.926 430.849 353.276 431.04C352.669 431.231 351.846 431.327 350.806 431.327C349.723 431.327 348.033 431.327 345.737 431.327C341.75 431.327 338.414 431.136 335.728 430.753C333.085 430.276 330.81 429.511 328.903 428.46C326.997 427.409 325.329 425.88 323.899 423.874C322.469 421.772 320.953 419.049 319.35 415.704C317.746 412.169 316.512 409.255 315.645 406.962C314.822 404.573 314.194 402.136 313.76 399.652C313.327 397.072 313.024 394.062 312.85 390.622C312.677 387.183 312.504 382.835 312.33 377.58Z" fill="white"/>
<path d="M411.35 224.682V223.917C412.566 221.557 414.521 219.07 417.215 216.455C419.995 213.84 423.601 211.448 428.032 209.28C432.55 207.111 437.763 205.325 443.672 203.922C449.667 202.455 456.575 201.722 464.394 201.722C481.511 201.722 495.239 202.87 505.579 205.166C516.006 207.462 524.129 211.64 529.951 217.699C535.772 223.757 539.639 232.176 541.55 242.955C543.549 253.733 544.548 267.605 544.548 284.57C544.548 296.879 543.723 307.499 542.072 316.427C540.508 325.293 536.945 332.595 531.385 338.335C525.911 344.075 518.004 348.253 507.664 350.868C497.325 353.483 483.423 354.599 465.958 354.216C456.053 355.237 447.408 354.471 440.022 351.92C432.637 349.369 426.381 345.638 421.255 340.727C416.215 335.816 412.132 329.98 409.004 323.22C405.876 316.396 403.617 309.221 402.226 301.695C400.836 294.105 400.098 286.42 400.011 278.639C399.924 270.858 400.358 263.491 401.314 256.54C402.27 249.524 403.617 243.242 405.354 237.693C407.179 232.144 409.177 227.807 411.35 224.682ZM433.767 271.655L435.591 297.39C436.808 300.132 438.024 303.289 439.241 306.861C440.544 310.432 442.195 313.876 444.193 317.193C446.278 320.446 448.972 323.22 452.274 325.516C455.575 327.748 459.789 328.864 464.916 328.864C471.172 328.864 477.297 328.322 483.292 327.238C489.375 326.154 494.197 324.081 497.759 321.02C499.584 319.489 501.061 317.448 502.19 314.897C503.32 312.346 504.276 309.476 505.058 306.287C505.927 303.098 506.535 299.622 506.882 295.859C507.23 292.032 507.404 288.142 507.404 284.188C507.404 270.603 506.578 260.143 504.927 252.809C503.363 245.41 500.844 240.021 497.368 236.641C493.893 233.197 489.505 231.188 484.205 230.614C478.991 230.04 472.736 229.753 465.437 229.753C453.533 229.753 445.279 233.133 440.674 239.893C436.069 246.59 433.767 257.177 433.767 271.655Z" fill="white"/>
<path d="M584.038 206.027L709.808 200L711.111 221.908L617.664 226.978L619.879 257.018L694.82 253.478L697.557 280.743L621.704 285.049L626.266 353.738L594.204 355.556L584.038 206.027Z" fill="white"/>
<mask id="path-4-outside-1_157_300" maskUnits="userSpaceOnUse" x="398" y="364.667" width="504" height="71" fill="black">
<rect fill="white" x="398" y="364.667" width="504" height="71"/>
<path d="M400 368.663L433.479 367.481L433.183 377.098L409.966 377.261L411.479 397.759L430.23 396.088L430.858 406.194L412.255 406.031L413.546 425.835L434.992 425.061L435.287 431.744L401.144 432.559L400 368.663Z"/>
<path d="M450.421 366.667L460.682 367.889L471.645 397.596L474.155 368.989L485.413 370.049L480.503 433.333L471.645 431.418L459.021 402.2L456.622 431.092L445.585 429.91L450.421 366.667Z"/>
<path d="M525.388 411.125L524.797 404.197L539.229 402.363L540.226 416.544C539.561 419.723 538.43 422.344 536.83 424.409C535.255 426.446 533.262 427.968 530.85 428.973C529.226 429.652 527.442 430.25 525.498 430.766C523.579 431.255 521.303 431.635 518.67 431.907C515.692 432.179 513.391 432.219 511.767 432.029C510.168 431.839 508.864 431.445 507.855 430.847C506.846 430.223 505.997 429.408 505.308 428.402C504.643 427.397 503.782 426.229 502.724 424.898C501.863 423.893 501.161 422.548 500.62 420.864C500.103 419.152 499.685 417.346 499.365 415.444C499.045 413.515 498.787 411.6 498.59 409.698C498.418 407.769 498.282 406.017 498.184 404.442C497.889 401.209 497.556 398.085 497.187 395.069C496.843 392.026 496.695 389.174 496.744 386.512C496.794 383.849 497.163 381.418 497.852 379.217C498.541 377.017 499.783 375.102 501.58 373.472C502.392 372.765 503.216 372.127 504.053 371.556C504.89 370.959 505.788 370.443 506.747 370.008C507.732 369.546 508.827 369.179 510.032 368.908C511.263 368.636 512.653 368.405 514.203 368.215C517.181 367.943 519.666 367.78 521.66 367.726C523.653 367.672 525.4 367.835 526.901 368.215C528.181 368.568 529.239 368.894 530.075 369.193C530.937 369.492 531.638 369.831 532.179 370.212C532.745 370.565 533.2 370.972 533.545 371.434C533.914 371.869 534.246 372.385 534.542 372.983C535.206 374.26 535.674 375.74 535.944 377.424C536.215 379.082 536.461 380.97 536.682 383.089L526.015 384.27C525.867 382.206 525.412 380.698 524.649 379.747C523.887 378.796 522.939 378.199 521.807 377.954C520.675 377.71 519.408 377.696 518.005 377.913C516.627 378.131 515.212 378.375 513.761 378.647C511.546 379.109 509.946 380.032 508.962 381.418C507.978 382.803 507.375 384.596 507.153 386.797C506.932 388.997 506.957 391.605 507.227 394.621C507.498 397.609 507.781 400.937 508.076 404.605C508.396 408.218 508.778 411.138 509.22 413.366C509.688 415.593 510.291 417.291 511.029 418.459C511.792 419.628 512.715 420.375 513.797 420.701C514.88 421 516.209 421.013 517.784 420.741C518.522 420.633 519.1 420.578 519.519 420.578C519.962 420.578 520.405 420.578 520.847 420.578C521.315 420.578 521.832 420.511 522.398 420.375C522.988 420.212 523.813 419.913 524.871 419.478L526.532 418.459C527.295 417.645 527.91 416.802 528.377 415.933C528.87 415.064 529.128 414.276 529.153 413.57C529.177 412.836 528.894 412.252 528.304 411.817C527.738 411.355 526.766 411.125 525.388 411.125Z"/>
<path d="M580.57 426.487L561.376 425.224L558.829 431.581L547.793 430.888L571.268 367.97L579.979 368.133L593.673 432.926L581.788 432.396L580.57 426.487ZM579.13 415.729L574.147 388.345L564.846 414.711L579.13 415.729Z"/>
<path d="M631.101 411.125L630.511 404.197L644.943 402.363L645.94 416.544C645.275 419.723 644.143 422.344 642.544 424.409C640.969 426.446 638.976 427.968 636.564 428.973C634.94 429.652 633.156 430.25 631.212 430.766C629.293 431.255 627.017 431.635 624.384 431.907C621.406 432.179 619.105 432.219 617.481 432.029C615.882 431.839 614.577 431.445 613.569 430.847C612.56 430.223 611.711 429.408 611.022 428.402C610.357 427.397 609.496 426.229 608.438 424.898C607.577 423.893 606.875 422.548 606.334 420.864C605.817 419.152 605.399 417.346 605.079 415.444C604.759 413.515 604.501 411.6 604.304 409.698C604.132 407.769 603.996 406.017 603.898 404.442C603.603 401.209 603.27 398.085 602.901 395.069C602.557 392.026 602.409 389.174 602.458 386.512C602.508 383.849 602.877 381.418 603.566 379.217C604.255 377.017 605.497 375.102 607.294 373.472C608.106 372.765 608.93 372.127 609.767 371.556C610.603 370.959 611.502 370.443 612.461 370.008C613.446 369.546 614.541 369.179 615.746 368.908C616.977 368.636 618.367 368.405 619.917 368.215C622.895 367.943 625.38 367.78 627.373 367.726C629.367 367.672 631.114 367.835 632.615 368.215C633.894 368.568 634.953 368.894 635.789 369.193C636.65 369.492 637.352 369.831 637.893 370.212C638.459 370.565 638.914 370.972 639.259 371.434C639.628 371.869 639.96 372.385 640.255 372.983C640.92 374.26 641.387 375.74 641.658 377.424C641.929 379.082 642.175 380.97 642.396 383.089L631.729 384.27C631.581 382.206 631.126 380.698 630.363 379.747C629.6 378.796 628.653 378.199 627.521 377.954C626.389 377.71 625.122 377.696 623.719 377.913C622.341 378.131 620.926 378.375 619.474 378.647C617.26 379.109 615.66 380.032 614.676 381.418C613.692 382.803 613.089 384.596 612.867 386.797C612.646 388.997 612.67 391.605 612.941 394.621C613.212 397.609 613.495 400.937 613.79 404.605C614.11 408.218 614.491 411.138 614.934 413.366C615.402 415.593 616.005 417.291 616.743 418.459C617.506 419.628 618.429 420.375 619.511 420.701C620.594 421 621.923 421.013 623.498 420.741C624.236 420.633 624.814 420.578 625.233 420.578C625.675 420.578 626.118 420.578 626.561 420.578C627.029 420.578 627.546 420.511 628.112 420.375C628.702 420.212 629.527 419.913 630.585 419.478L632.246 418.459C633.009 417.645 633.624 416.802 634.091 415.933C634.583 415.064 634.842 414.276 634.866 413.57C634.891 412.836 634.608 412.252 634.017 411.817C633.451 411.355 632.479 411.125 631.101 411.125Z"/>
<path d="M657.272 368.663L690.75 367.481L690.455 377.098L667.238 377.261L668.751 397.759L687.502 396.088L688.129 406.194L669.526 406.031L670.818 425.835L692.263 425.061L692.559 431.744L658.416 432.559L657.272 368.663Z"/>
<path d="M703.595 370.66L712.897 369.967L727.181 400.611L738.292 367.889L747.667 366.993L751.469 428.076L740.728 428.891L739.067 400.611L728.842 428.239L715.554 401.263L716.662 431.418L707.397 431.907L703.595 370.66Z"/>
<path d="M763.502 368.663L796.981 367.481L796.685 377.098L773.468 377.261L774.982 397.759L793.732 396.088L794.36 406.194L775.757 406.031L777.049 425.835L798.494 425.061L798.789 431.744L764.646 432.559L763.502 368.663Z"/>
<path d="M813.923 366.667L824.184 367.889L835.147 397.596L837.657 368.989L848.915 370.049L844.006 433.333L835.147 431.418L822.523 402.2L820.124 431.092L809.088 429.91L813.923 366.667Z"/>
<path d="M860.542 370.904L899.631 367.319L900 377.75L885.346 378.932L888.447 432.07L879.44 432.763L875.011 379.666L861.022 381.418L860.542 370.904Z"/>
</mask>
<path d="M400 368.663L433.479 367.481L433.183 377.098L409.966 377.261L411.479 397.759L430.23 396.088L430.858 406.194L412.255 406.031L413.546 425.835L434.992 425.061L435.287 431.744L401.144 432.559L400 368.663Z" fill="white"/>
<path d="M450.421 366.667L460.682 367.889L471.645 397.596L474.155 368.989L485.413 370.049L480.503 433.333L471.645 431.418L459.021 402.2L456.622 431.092L445.585 429.91L450.421 366.667Z" fill="white"/>
<path d="M525.388 411.125L524.797 404.197L539.229 402.363L540.226 416.544C539.561 419.723 538.43 422.344 536.83 424.409C535.255 426.446 533.262 427.968 530.85 428.973C529.226 429.652 527.442 430.25 525.498 430.766C523.579 431.255 521.303 431.635 518.67 431.907C515.692 432.179 513.391 432.219 511.767 432.029C510.168 431.839 508.864 431.445 507.855 430.847C506.846 430.223 505.997 429.408 505.308 428.402C504.643 427.397 503.782 426.229 502.724 424.898C501.863 423.893 501.161 422.548 500.62 420.864C500.103 419.152 499.685 417.346 499.365 415.444C499.045 413.515 498.787 411.6 498.59 409.698C498.418 407.769 498.282 406.017 498.184 404.442C497.889 401.209 497.556 398.085 497.187 395.069C496.843 392.026 496.695 389.174 496.744 386.512C496.794 383.849 497.163 381.418 497.852 379.217C498.541 377.017 499.783 375.102 501.58 373.472C502.392 372.765 503.216 372.127 504.053 371.556C504.89 370.959 505.788 370.443 506.747 370.008C507.732 369.546 508.827 369.179 510.032 368.908C511.263 368.636 512.653 368.405 514.203 368.215C517.181 367.943 519.666 367.78 521.66 367.726C523.653 367.672 525.4 367.835 526.901 368.215C528.181 368.568 529.239 368.894 530.075 369.193C530.937 369.492 531.638 369.831 532.179 370.212C532.745 370.565 533.2 370.972 533.545 371.434C533.914 371.869 534.246 372.385 534.542 372.983C535.206 374.26 535.674 375.74 535.944 377.424C536.215 379.082 536.461 380.97 536.682 383.089L526.015 384.27C525.867 382.206 525.412 380.698 524.649 379.747C523.887 378.796 522.939 378.199 521.807 377.954C520.675 377.71 519.408 377.696 518.005 377.913C516.627 378.131 515.212 378.375 513.761 378.647C511.546 379.109 509.946 380.032 508.962 381.418C507.978 382.803 507.375 384.596 507.153 386.797C506.932 388.997 506.957 391.605 507.227 394.621C507.498 397.609 507.781 400.937 508.076 404.605C508.396 408.218 508.778 411.138 509.22 413.366C509.688 415.593 510.291 417.291 511.029 418.459C511.792 419.628 512.715 420.375 513.797 420.701C514.88 421 516.209 421.013 517.784 420.741C518.522 420.633 519.1 420.578 519.519 420.578C519.962 420.578 520.405 420.578 520.847 420.578C521.315 420.578 521.832 420.511 522.398 420.375C522.988 420.212 523.813 419.913 524.871 419.478L526.532 418.459C527.295 417.645 527.91 416.802 528.377 415.933C528.87 415.064 529.128 414.276 529.153 413.57C529.177 412.836 528.894 412.252 528.304 411.817C527.738 411.355 526.766 411.125 525.388 411.125Z" fill="white"/>
<path d="M580.57 426.487L561.376 425.224L558.829 431.581L547.793 430.888L571.268 367.97L579.979 368.133L593.673 432.926L581.788 432.396L580.57 426.487ZM579.13 415.729L574.147 388.345L564.846 414.711L579.13 415.729Z" fill="white"/>
<path d="M631.101 411.125L630.511 404.197L644.943 402.363L645.94 416.544C645.275 419.723 644.143 422.344 642.544 424.409C640.969 426.446 638.976 427.968 636.564 428.973C634.94 429.652 633.156 430.25 631.212 430.766C629.293 431.255 627.017 431.635 624.384 431.907C621.406 432.179 619.105 432.219 617.481 432.029C615.882 431.839 614.577 431.445 613.569 430.847C612.56 430.223 611.711 429.408 611.022 428.402C610.357 427.397 609.496 426.229 608.438 424.898C607.577 423.893 606.875 422.548 606.334 420.864C605.817 419.152 605.399 417.346 605.079 415.444C604.759 413.515 604.501 411.6 604.304 409.698C604.132 407.769 603.996 406.017 603.898 404.442C603.603 401.209 603.27 398.085 602.901 395.069C602.557 392.026 602.409 389.174 602.458 386.512C602.508 383.849 602.877 381.418 603.566 379.217C604.255 377.017 605.497 375.102 607.294 373.472C608.106 372.765 608.93 372.127 609.767 371.556C610.603 370.959 611.502 370.443 612.461 370.008C613.446 369.546 614.541 369.179 615.746 368.908C616.977 368.636 618.367 368.405 619.917 368.215C622.895 367.943 625.38 367.78 627.373 367.726C629.367 367.672 631.114 367.835 632.615 368.215C633.894 368.568 634.953 368.894 635.789 369.193C636.65 369.492 637.352 369.831 637.893 370.212C638.459 370.565 638.914 370.972 639.259 371.434C639.628 371.869 639.96 372.385 640.255 372.983C640.92 374.26 641.387 375.74 641.658 377.424C641.929 379.082 642.175 380.97 642.396 383.089L631.729 384.27C631.581 382.206 631.126 380.698 630.363 379.747C629.6 378.796 628.653 378.199 627.521 377.954C626.389 377.71 625.122 377.696 623.719 377.913C622.341 378.131 620.926 378.375 619.474 378.647C617.26 379.109 615.66 380.032 614.676 381.418C613.692 382.803 613.089 384.596 612.867 386.797C612.646 388.997 612.67 391.605 612.941 394.621C613.212 397.609 613.495 400.937 613.79 404.605C614.11 408.218 614.491 411.138 614.934 413.366C615.402 415.593 616.005 417.291 616.743 418.459C617.506 419.628 618.429 420.375 619.511 420.701C620.594 421 621.923 421.013 623.498 420.741C624.236 420.633 624.814 420.578 625.233 420.578C625.675 420.578 626.118 420.578 626.561 420.578C627.029 420.578 627.546 420.511 628.112 420.375C628.702 420.212 629.527 419.913 630.585 419.478L632.246 418.459C633.009 417.645 633.624 416.802 634.091 415.933C634.583 415.064 634.842 414.276 634.866 413.57C634.891 412.836 634.608 412.252 634.017 411.817C633.451 411.355 632.479 411.125 631.101 411.125Z" fill="white"/>
<path d="M657.272 368.663L690.75 367.481L690.455 377.098L667.238 377.261L668.751 397.759L687.502 396.088L688.129 406.194L669.526 406.031L670.818 425.835L692.263 425.061L692.559 431.744L658.416 432.559L657.272 368.663Z" fill="white"/>
<path d="M703.595 370.66L712.897 369.967L727.181 400.611L738.292 367.889L747.667 366.993L751.469 428.076L740.728 428.891L739.067 400.611L728.842 428.239L715.554 401.263L716.662 431.418L707.397 431.907L703.595 370.66Z" fill="white"/>
<path d="M763.502 368.663L796.981 367.481L796.685 377.098L773.468 377.261L774.982 397.759L793.732 396.088L794.36 406.194L775.757 406.031L777.049 425.835L798.494 425.061L798.789 431.744L764.646 432.559L763.502 368.663Z" fill="white"/>
<path d="M813.923 366.667L824.184 367.889L835.147 397.596L837.657 368.989L848.915 370.049L844.006 433.333L835.147 431.418L822.523 402.2L820.124 431.092L809.088 429.91L813.923 366.667Z" fill="white"/>
<path d="M860.542 370.904L899.631 367.319L900 377.75L885.346 378.932L888.447 432.07L879.44 432.763L875.011 379.666L861.022 381.418L860.542 370.904Z" fill="white"/>
<path d="M400 368.663L433.479 367.481L433.183 377.098L409.966 377.261L411.479 397.759L430.23 396.088L430.858 406.194L412.255 406.031L413.546 425.835L434.992 425.061L435.287 431.744L401.144 432.559L400 368.663Z" stroke="white" stroke-width="2.22222" mask="url(#path-4-outside-1_157_300)"/>
<path d="M450.421 366.667L460.682 367.889L471.645 397.596L474.155 368.989L485.413 370.049L480.503 433.333L471.645 431.418L459.021 402.2L456.622 431.092L445.585 429.91L450.421 366.667Z" stroke="white" stroke-width="2.22222" mask="url(#path-4-outside-1_157_300)"/>
<path d="M525.388 411.125L524.797 404.197L539.229 402.363L540.226 416.544C539.561 419.723 538.43 422.344 536.83 424.409C535.255 426.446 533.262 427.968 530.85 428.973C529.226 429.652 527.442 430.25 525.498 430.766C523.579 431.255 521.303 431.635 518.67 431.907C515.692 432.179 513.391 432.219 511.767 432.029C510.168 431.839 508.864 431.445 507.855 430.847C506.846 430.223 505.997 429.408 505.308 428.402C504.643 427.397 503.782 426.229 502.724 424.898C501.863 423.893 501.161 422.548 500.62 420.864C500.103 419.152 499.685 417.346 499.365 415.444C499.045 413.515 498.787 411.6 498.59 409.698C498.418 407.769 498.282 406.017 498.184 404.442C497.889 401.209 497.556 398.085 497.187 395.069C496.843 392.026 496.695 389.174 496.744 386.512C496.794 383.849 497.163 381.418 497.852 379.217C498.541 377.017 499.783 375.102 501.58 373.472C502.392 372.765 503.216 372.127 504.053 371.556C504.89 370.959 505.788 370.443 506.747 370.008C507.732 369.546 508.827 369.179 510.032 368.908C511.263 368.636 512.653 368.405 514.203 368.215C517.181 367.943 519.666 367.78 521.66 367.726C523.653 367.672 525.4 367.835 526.901 368.215C528.181 368.568 529.239 368.894 530.075 369.193C530.937 369.492 531.638 369.831 532.179 370.212C532.745 370.565 533.2 370.972 533.545 371.434C533.914 371.869 534.246 372.385 534.542 372.983C535.206 374.26 535.674 375.74 535.944 377.424C536.215 379.082 536.461 380.97 536.682 383.089L526.015 384.27C525.867 382.206 525.412 380.698 524.649 379.747C523.887 378.796 522.939 378.199 521.807 377.954C520.675 377.71 519.408 377.696 518.005 377.913C516.627 378.131 515.212 378.375 513.761 378.647C511.546 379.109 509.946 380.032 508.962 381.418C507.978 382.803 507.375 384.596 507.153 386.797C506.932 388.997 506.957 391.605 507.227 394.621C507.498 397.609 507.781 400.937 508.076 404.605C508.396 408.218 508.778 411.138 509.22 413.366C509.688 415.593 510.291 417.291 511.029 418.459C511.792 419.628 512.715 420.375 513.797 420.701C514.88 421 516.209 421.013 517.784 420.741C518.522 420.633 519.1 420.578 519.519 420.578C519.962 420.578 520.405 420.578 520.847 420.578C521.315 420.578 521.832 420.511 522.398 420.375C522.988 420.212 523.813 419.913 524.871 419.478L526.532 418.459C527.295 417.645 527.91 416.802 528.377 415.933C528.87 415.064 529.128 414.276 529.153 413.57C529.177 412.836 528.894 412.252 528.304 411.817C527.738 411.355 526.766 411.125 525.388 411.125Z" stroke="white" stroke-width="2.22222" mask="url(#path-4-outside-1_157_300)"/>
<path d="M580.57 426.487L561.376 425.224L558.829 431.581L547.793 430.888L571.268 367.97L579.979 368.133L593.673 432.926L581.788 432.396L580.57 426.487ZM579.13 415.729L574.147 388.345L564.846 414.711L579.13 415.729Z" stroke="white" stroke-width="2.22222" mask="url(#path-4-outside-1_157_300)"/>
<path d="M631.101 411.125L630.511 404.197L644.943 402.363L645.94 416.544C645.275 419.723 644.143 422.344 642.544 424.409C640.969 426.446 638.976 427.968 636.564 428.973C634.94 429.652 633.156 430.25 631.212 430.766C629.293 431.255 627.017 431.635 624.384 431.907C621.406 432.179 619.105 432.219 617.481 432.029C615.882 431.839 614.577 431.445 613.569 430.847C612.56 430.223 611.711 429.408 611.022 428.402C610.357 427.397 609.496 426.229 608.438 424.898C607.577 423.893 606.875 422.548 606.334 420.864C605.817 419.152 605.399 417.346 605.079 415.444C604.759 413.515 604.501 411.6 604.304 409.698C604.132 407.769 603.996 406.017 603.898 404.442C603.603 401.209 603.27 398.085 602.901 395.069C602.557 392.026 602.409 389.174 602.458 386.512C602.508 383.849 602.877 381.418 603.566 379.217C604.255 377.017 605.497 375.102 607.294 373.472C608.106 372.765 608.93 372.127 609.767 371.556C610.603 370.959 611.502 370.443 612.461 370.008C613.446 369.546 614.541 369.179 615.746 368.908C616.977 368.636 618.367 368.405 619.917 368.215C622.895 367.943 625.38 367.78 627.373 367.726C629.367 367.672 631.114 367.835 632.615 368.215C633.894 368.568 634.953 368.894 635.789 369.193C636.65 369.492 637.352 369.831 637.893 370.212C638.459 370.565 638.914 370.972 639.259 371.434C639.628 371.869 639.96 372.385 640.255 372.983C640.92 374.26 641.387 375.74 641.658 377.424C641.929 379.082 642.175 380.97 642.396 383.089L631.729 384.27C631.581 382.206 631.126 380.698 630.363 379.747C629.6 378.796 628.653 378.199 627.521 377.954C626.389 377.71 625.122 377.696 623.719 377.913C622.341 378.131 620.926 378.375 619.474 378.647C617.26 379.109 615.66 380.032 614.676 381.418C613.692 382.803 613.089 384.596 612.867 386.797C612.646 388.997 612.67 391.605 612.941 394.621C613.212 397.609 613.495 400.937 613.79 404.605C614.11 408.218 614.491 411.138 614.934 413.366C615.402 415.593 616.005 417.291 616.743 418.459C617.506 419.628 618.429 420.375 619.511 420.701C620.594 421 621.923 421.013 623.498 420.741C624.236 420.633 624.814 420.578 625.233 420.578C625.675 420.578 626.118 420.578 626.561 420.578C627.029 420.578 627.546 420.511 628.112 420.375C628.702 420.212 629.527 419.913 630.585 419.478L632.246 418.459C633.009 417.645 633.624 416.802 634.091 415.933C634.583 415.064 634.842 414.276 634.866 413.57C634.891 412.836 634.608 412.252 634.017 411.817C633.451 411.355 632.479 411.125 631.101 411.125Z" stroke="white" stroke-width="2.22222" mask="url(#path-4-outside-1_157_300)"/>
<path d="M657.272 368.663L690.75 367.481L690.455 377.098L667.238 377.261L668.751 397.759L687.502 396.088L688.129 406.194L669.526 406.031L670.818 425.835L692.263 425.061L692.559 431.744L658.416 432.559L657.272 368.663Z" stroke="white" stroke-width="2.22222" mask="url(#path-4-outside-1_157_300)"/>
<path d="M703.595 370.66L712.897 369.967L727.181 400.611L738.292 367.889L747.667 366.993L751.469 428.076L740.728 428.891L739.067 400.611L728.842 428.239L715.554 401.263L716.662 431.418L707.397 431.907L703.595 370.66Z" stroke="white" stroke-width="2.22222" mask="url(#path-4-outside-1_157_300)"/>
<path d="M763.502 368.663L796.981 367.481L796.685 377.098L773.468 377.261L774.982 397.759L793.732 396.088L794.36 406.194L775.757 406.031L777.049 425.835L798.494 425.061L798.789 431.744L764.646 432.559L763.502 368.663Z" stroke="white" stroke-width="2.22222" mask="url(#path-4-outside-1_157_300)"/>
<path d="M813.923 366.667L824.184 367.889L835.147 397.596L837.657 368.989L848.915 370.049L844.006 433.333L835.147 431.418L822.523 402.2L820.124 431.092L809.088 429.91L813.923 366.667Z" stroke="white" stroke-width="2.22222" mask="url(#path-4-outside-1_157_300)"/>
<path d="M860.542 370.904L899.631 367.319L900 377.75L885.346 378.932L888.447 432.07L879.44 432.763L875.011 379.666L861.022 381.418L860.542 370.904Z" stroke="white" stroke-width="2.22222" mask="url(#path-4-outside-1_157_300)"/>
<path d="M432.964 126.302C432.194 129.951 431.616 133.523 430.909 136.784L429.946 141.287C429.111 144.781 428.533 148.197 428.34 151.147C428.212 151.769 428.34 152.312 428.469 152.7L428.854 153.787C429.753 155.884 427.12 158.756 424.616 157.98C423.909 157.747 423.331 157.281 423.074 156.582L422.689 155.495C421.726 152.856 422.432 149.206 423.203 145.247C423.395 143.927 423.652 142.607 423.973 141.287L424.937 136.784C425.643 133.367 426.221 129.873 427.056 126.302C429.175 116.441 431.873 106.658 433.992 96.9532C434.506 94.7792 434.955 92.6829 435.469 90.5089C435.854 88.8008 436.047 86.5492 436.432 84.841C436.497 83.987 436.753 83.1329 436.882 82.2788C437.203 80.8813 437.46 79.0179 437.781 77.698C438.102 76.378 438.166 74.7476 438.487 73.4276C438.809 72.1077 438.809 71.3313 439.065 70.089C439.13 69.6232 439.322 69.002 439.387 68.2256L439.9 66.0516C440.093 65.4305 440.221 64.8094 440.35 64.1882C440.607 63.4895 440.735 62.8683 440.864 62.4025C441.056 61.5484 441.57 59.7626 441.827 58.7533C442.02 57.7439 442.212 56.7346 442.469 55.7252C442.662 54.7159 443.111 53.4736 443.304 52.4643L443.818 50.9114C444.203 49.6692 444.845 48.6598 445.102 47.4175C445.745 45.7871 447.157 44.2342 449.213 44.4671C450.882 44.7001 451.589 46.3305 450.882 48.194L450.497 49.2809C449.919 50.7561 449.213 52.6196 448.763 54.4053C448.635 54.8712 448.442 55.337 448.378 55.8029C448.121 56.8122 447.928 57.8992 447.671 58.9086C447.414 59.9179 447.029 61.7813 446.708 62.713C446.644 63.1012 446.451 63.7224 446.194 64.4212C446.066 65.1199 445.873 65.8187 445.745 66.3622L445.359 68.0703C445.231 68.9244 445.102 69.5455 445.038 70.0114C444.781 71.2537 444.781 72.1077 444.46 73.4276C444.139 74.7476 443.946 76.378 443.754 77.6203C443.433 79.0179 443.176 80.8036 442.855 82.2788L442.341 84.6081C442.02 86.3162 441.827 88.5679 441.377 90.4313L439.965 96.9532C439.387 99.3601 438.744 102.388 438.166 104.873C437.396 108.056 436.432 111.472 435.597 114.889C434.827 118.538 433.799 122.575 432.964 126.302Z" fill="white"/>
<path d="M447.751 136.939C446.852 141.054 445.953 146.178 445.439 149.439C444.861 152.001 444.54 155.107 444.605 157.436L444.54 158.601C444.669 161.008 441.329 162.949 439.403 161.629C438.76 161.241 438.504 160.62 438.439 159.843V158.679C438.439 157.203 438.76 154.02 438.825 152.467C438.889 151.613 439.082 150.682 439.338 149.595C439.852 146.334 440.816 140.976 441.715 136.939C442.614 132.746 444.219 126.147 445.247 122.73C445.889 120.479 446.531 118.305 447.045 115.976C447.495 113.724 448.008 111.55 448.458 109.298C449.036 107.28 449.614 105.028 450.128 103.165L451.027 100.525C451.669 98.9719 451.99 97.4967 452.632 95.7886L453.339 93.4593C453.596 92.6829 453.788 91.9841 453.981 91.2853C454.431 89.4219 455.073 87.9467 455.458 86.161C456.229 83.6764 457.064 81.813 459.247 80.8036C462.009 79.4837 464.192 81.5024 465.027 83.1329C465.669 84.3752 465.99 85.928 466.312 87.6362C467.339 92.2947 467.339 99.9812 467.66 104.95C467.981 110.308 467.789 116.286 467.596 122.109C467.468 123.973 467.339 125.914 467.082 128.01L466.633 131.737C470.165 119.469 474.789 106.115 478.642 94.4687C479.862 90.6642 480.954 87.8691 482.495 84.3752C483.073 83.0553 483.459 82.1236 483.716 81.7353L484.422 80.4931C485.064 79.2508 486.22 78.2415 487.633 78.6297C488.853 78.9402 490.138 79.7943 490.716 80.4931C490.909 81.3471 491.101 82.1236 491.101 82.8223C491.165 84.6081 490.844 92.5276 490.78 94.6239C490.523 101.767 491.165 105.727 491.422 113.18C491.808 123.196 491.358 129.252 489.945 140.743C489.56 144.548 489.303 147.032 489.303 148.275C489.175 152.157 490.138 154.797 490.909 158.058C491.101 159.3 491.743 160.232 491.358 161.94C490.909 163.881 489.881 165.666 488.275 166.365C485.771 167.452 483.459 165.434 485 162.871L485.321 162.25L485.385 162.095C484.422 157.825 483.138 154.408 483.202 149.362C483.202 146.489 484.743 135.308 485 132.125C485.257 127.699 485.45 126.224 485.45 122.265C485.45 119.314 485.129 109.609 485 106.814C484.679 103.475 484.615 99.2825 484.679 95.6333L484.743 94.5463C484.615 94.7792 484.615 94.9345 484.486 95.1674C481.789 102.388 480.505 106.503 477.872 114.966C474.725 124.516 474.532 124.982 471.77 135.075C470.486 139.812 469.587 143.228 469.073 145.324C468.559 147.421 468.11 149.362 467.724 151.147L466.697 155.728C466.312 157.126 466.119 158.29 465.862 159.222C465.669 160.232 465.348 161.163 465.091 161.94L462.651 163.493C460.018 164.89 458.798 164.657 458.798 162.716V161.94C458.477 155.573 458.669 147.265 459.633 139.579C461.174 129.563 461.88 120.323 461.816 111.86C461.88 108.289 461.559 104.562 461.367 101.146C461.302 98.8943 460.853 91.8288 460.403 89.8878C460.275 90.3536 460.082 90.8971 459.954 91.5183C459.568 93.0711 458.99 94.8569 458.477 96.4097L457.77 98.739C456.678 102.078 455.458 105.571 454.495 109.376C453.981 111.55 453.531 113.802 453.018 115.976C451.926 121.022 451.027 123.507 449.614 128.942C448.972 131.659 448.329 134.299 447.751 136.939Z" fill="white"/>
<path d="M539.292 113.569C533.704 114.656 527.346 116.131 522.658 117.606C522.337 118.926 521.695 120.323 521.245 121.643C520.924 122.886 520.41 124.05 520.025 125.215L518.805 128.476C518.034 130.883 517.52 132.203 516.557 134.377C515.851 136.318 515.208 137.715 514.438 139.579C512.832 144.082 511.291 149.905 509.75 154.098C509.621 154.564 509.429 155.107 509.429 155.651L509.172 156.815C508.851 160.464 502.621 161.241 503.263 157.281L503.327 156.116C503.841 153.321 505.318 149.595 506.153 146.799C508.851 137.327 512.575 130.106 515.465 121.1C515.594 120.634 515.786 120.168 515.915 119.78C514.245 120.323 513.924 120.401 512.961 121.022C509.428 123.429 506.731 118.926 510.071 116.674L510.906 116.131C511.74 115.51 515.851 114.034 518.163 113.336C518.355 113.025 518.42 112.715 518.484 112.404C520.539 106.814 521.823 103.242 524.135 98.3508C524.778 96.7979 525.484 95.8662 526.126 94.2357C527.603 90.8195 529.337 88.3349 531.007 85.3069C532.099 83.3658 533.062 82.3565 534.539 80.726C535.952 79.1732 536.723 77.7756 538.007 76.378C538.071 76.2228 538.264 76.0675 538.328 75.9898C538.842 75.1358 539.677 74.437 540.897 74.1264C543.98 73.2724 545.072 75.3687 545.136 77.465C545.072 78.1638 545.072 78.8626 545.072 79.5614L545.136 81.2695C545.714 85.6951 545.906 89.6548 545.778 94.6239C545.65 98.8943 545.65 102.699 545.393 107.047C546.099 106.969 546.934 106.814 547.705 106.736L551.879 106.115C554.576 105.804 555.861 108.522 553.742 110.618C553.099 111.239 552.393 111.705 551.558 111.783L547.384 112.404C546.677 112.482 545.971 112.559 545.328 112.637C545.585 113.336 545.264 114.5 545.328 115.354C545.328 116.674 545.585 120.945 545.457 122.342V124.516C545.65 128.864 545.007 133.445 545.072 137.871C544.943 141.364 544.943 144.703 545.136 147.886C545.264 149.206 545.007 150.604 545.136 152.001C545.072 152.856 544.815 154.486 544.75 155.34C544.429 156.815 545.072 157.514 543.98 158.834C542.246 160.93 538.842 160.697 538.714 158.213C538.649 157.514 538.585 156.893 538.714 155.961L538.906 154.253C538.906 153.71 538.971 153.244 539.035 152.933C538.971 151.846 539.163 150.682 539.163 149.595C538.842 147.964 539.035 145.635 538.906 143.849C538.714 138.181 539.356 131.582 539.356 125.836C539.292 123.662 539.484 122.73 539.356 120.091C539.292 117.295 539.227 116.053 539.292 113.569ZM524.906 111.317C528.245 110.23 535.117 108.755 539.292 107.978C539.356 107.357 539.356 106.814 539.356 106.27L539.549 103.009C539.677 98.5837 539.805 93.6922 539.549 89.5772C539.356 87.2479 539.356 85.4622 539.163 83.4435C538.585 84.1423 537.622 85.1516 537.301 85.5398C536.787 85.928 536.594 86.6268 536.273 87.2479C535.503 88.4902 534.668 90.1207 533.769 91.2853L533.191 92.217C531.842 94.5463 530.814 97.3414 529.594 99.7483C527.924 103.553 526.447 107.202 524.906 111.317Z" fill="white"/>
<path d="M617.616 106.658C616.781 106.658 614.983 106.814 614.084 106.891C613.249 106.891 612.157 107.202 611.644 107.357C611.13 107.435 610.552 107.59 610.102 107.745L607.983 108.134C607.854 107.435 606.955 106.348 606.698 105.571C606.506 104.717 605.735 102.932 607.469 102.543C609.203 102.078 611.13 101.689 613.056 101.379C619.158 99.6707 626.093 98.9719 632.002 97.1861C632.58 96.9532 633.029 96.8756 633.543 96.7979L634.828 96.6426C635.406 96.565 636.048 96.4874 636.562 96.4874C637.075 96.565 637.461 96.565 638.039 96.565L638.809 96.6426C642.534 96.8756 640.993 102.621 637.204 102.388L636.497 102.311C635.919 102.311 635.534 102.311 635.149 102.233C634.507 102.233 633.864 102.388 633.286 102.466C633.029 102.466 632.901 102.543 632.644 102.621C631.424 102.932 628.855 103.63 627.571 103.941C628.534 105.106 628.727 107.202 629.176 108.832C629.754 110.696 629.754 112.792 629.176 115.51C627.763 120.323 625.644 126.224 623.332 130.184C620.185 135.386 616.974 139.501 612.992 143.771C610.231 146.567 608.754 147.576 606.185 149.983L604.13 152.001C602.01 154.02 600.084 155.418 597.579 156.971C595.074 158.368 593.148 159.533 590.258 160.309L588.716 160.62C588.074 160.775 587.368 160.853 586.79 160.93C584.028 160.93 581.78 160.309 580.046 159.377L578.634 158.601C577.413 157.747 575.487 157.359 574.202 156.582C571.954 155.262 570.734 152.312 569.45 150.216C568.615 148.197 567.138 146.644 566.817 144.16C566.688 143.461 566.496 142.917 566.367 142.451L565.789 141.054C564.954 138.725 563.991 136.395 563.67 133.678C563.477 131.737 563.606 129.019 563.156 127.311C562.899 125.448 562.514 123.429 561.743 121.954C561.229 120.789 560.973 117.295 561.422 115.277C562.578 110.075 564.633 106.426 566.431 102.311C568.486 97.9626 570.863 94.1581 574.074 91.13C575.551 89.6548 577.156 88.3349 578.634 86.7821C581.138 84.1423 585.762 80.726 588.524 78.552C592.184 75.6016 596.744 74.2817 601.818 73.1947C607.469 71.7195 613.956 70.3996 620.635 69.8561C621.277 69.7785 621.983 69.7785 622.625 69.7785H624.167C626.928 69.7785 628.662 71.5642 628.855 73.6606C629.433 75.9122 626.736 78.3967 624.231 77.3874C623.332 76.9992 623.075 76.4557 622.882 75.6016L622.754 75.524H621.341C615.946 75.524 609.524 76.6886 604.9 78.0085C602.652 78.785 599.827 79.1732 597.579 79.8719C595.46 80.6484 593.405 81.3471 591.735 82.6671C589.615 84.2199 588.203 85.4622 585.698 87.4809C583.129 89.4996 582.23 90.6642 580.239 92.6053C578.12 94.5463 575.808 96.6426 574.202 99.2048C572.597 101.922 571.248 104.95 569.899 107.901C568.808 109.997 567.973 112.482 567.395 115.199C567.138 116.208 567.33 118.227 567.459 118.926L568.037 120.168C568.165 120.556 568.165 121.022 568.358 121.566L568.679 122.963C568.743 123.352 568.808 123.74 568.936 124.05L569.129 125.137C569.578 127.622 569.321 130.96 569.964 133.445C570.734 136.395 572.019 138.725 572.789 141.753C573.11 143.228 573.56 144.237 574.395 145.402C575.037 146.877 576 148.275 576.707 149.672C577.028 150.138 577.67 151.147 578.12 151.536L579.276 152.001C580.689 152.39 581.524 152.856 582.615 153.554L583.835 154.175C584.157 154.408 584.413 154.564 584.799 154.641L585.826 154.952L587.047 155.185H587.753C590.643 155.185 593.148 153.477 595.139 152.234C597.065 151.225 598.607 150.06 600.148 148.508C601.561 147.11 603.038 145.712 604.386 144.47C606.056 143.15 607.02 142.374 608.818 140.433C611.322 137.715 612.8 136.162 614.919 133.134C616.524 130.883 618.258 128.554 619.414 125.836C620.442 123.584 622.24 118.926 622.947 116.674C623.075 116.208 623.268 115.743 623.332 115.354C623.91 112.715 623.203 111.317 622.882 109.298C622.69 108.444 622.625 107.978 621.983 107.513C621.02 106.891 620.635 106.658 619.029 106.658C618.387 106.581 617.873 106.581 617.616 106.658Z" fill="white"/>
<path d="M649.964 126.302C649.193 129.951 648.615 133.523 647.909 136.784L646.945 141.287C646.111 144.781 645.533 148.197 645.34 151.147C645.211 151.769 645.34 152.312 645.468 152.7L645.854 153.787C646.753 155.884 644.12 158.756 641.615 157.98C640.909 157.747 640.331 157.281 640.074 156.582L639.688 155.495C638.725 152.856 639.432 149.206 640.202 145.247C640.395 143.927 640.652 142.607 640.973 141.287L641.936 136.784C642.643 133.367 643.221 129.873 644.055 126.302C646.175 116.441 648.872 106.658 650.991 96.9532C651.505 94.7792 651.955 92.6829 652.469 90.5089C652.854 88.8008 653.047 86.5492 653.432 84.841C653.496 83.987 653.753 83.1329 653.881 82.2788C654.203 80.8813 654.459 79.0179 654.781 77.698C655.102 76.378 655.166 74.7476 655.487 73.4276C655.808 72.1077 655.808 71.3313 656.065 70.089C656.129 69.6232 656.322 69.002 656.386 68.2256L656.9 66.0516C657.093 65.4305 657.221 64.8094 657.349 64.1882C657.606 63.4895 657.735 62.8683 657.863 62.4025C658.056 61.5484 658.57 59.7626 658.827 58.7533C659.019 57.7439 659.212 56.7346 659.469 55.7252C659.661 54.7159 660.111 53.4736 660.304 52.4643L660.817 50.9114C661.203 49.6692 661.845 48.6598 662.102 47.4175C662.744 45.7871 664.157 44.2342 666.212 44.4671C667.882 44.7001 668.588 46.3305 667.882 48.194L667.496 49.2809C666.918 50.7561 666.212 52.6196 665.762 54.4053C665.634 54.8712 665.441 55.337 665.377 55.8029C665.12 56.8122 664.928 57.8992 664.671 58.9086C664.414 59.9179 664.028 61.7813 663.707 62.713C663.643 63.1012 663.45 63.7224 663.194 64.4212C663.065 65.1199 662.872 65.8187 662.744 66.3622L662.359 68.0703C662.23 68.9244 662.102 69.5455 662.038 70.0114C661.781 71.2537 661.781 72.1077 661.46 73.4276C661.138 74.7476 660.946 76.378 660.753 77.6203C660.432 79.0179 660.175 80.8036 659.854 82.2788L659.34 84.6081C659.019 86.3162 658.826 88.5679 658.377 90.4313L656.964 96.9532C656.386 99.3601 655.744 102.388 655.166 104.873C654.395 108.056 653.432 111.472 652.597 114.889C651.826 118.538 650.799 122.575 649.964 126.302Z" fill="white"/>
<path d="M679.137 81.9683C678.238 84.6081 677.338 87.5585 676.632 90.6642C676.375 91.5183 675.99 93.304 675.412 95.9439C674.834 98.6613 674.384 100.835 673.87 102.621C673.036 106.658 671.623 110.541 670.595 114.733C669.375 119.081 667.769 123.973 666.742 128.476C665.008 135.619 663.723 140.899 662.118 148.275C661.476 151.303 661.026 153.244 660.898 154.175C660.833 154.874 660.705 155.495 660.898 156.039L661.155 157.281C661.604 159.533 659.035 162.173 656.531 161.086C655.824 160.775 655.439 160.232 655.246 159.533L654.925 158.29C654.668 157.126 654.668 155.884 654.925 154.564C655.118 153.477 655.503 151.38 656.209 148.275C657.943 140.743 659.099 135.541 660.898 128.321C661.989 123.74 663.531 118.771 664.751 114.423C665.779 110.385 667.127 106.503 668.026 102.543C668.54 100.758 668.99 98.5837 669.568 95.9439C670.531 91.5183 670.659 90.8195 671.558 87.6362C672.779 82.0459 675.604 70.322 681.898 75.0581C685.623 77.5427 685.623 82.4341 686.073 87.6362C686.715 94.2357 687.678 101.068 688.513 107.668C689.476 114.423 690.761 121.178 691.788 127.699C691.981 128.709 692.174 129.641 692.366 130.65C693.33 127.467 694.229 124.516 695.321 121.178C699.11 110.774 703.541 99.7483 706.945 88.8008C708.422 84.4528 709.77 80.3378 711.376 76.4557C713.046 72.4959 714.33 69.3126 715.936 65.8187C716.128 65.2752 716.385 64.887 716.385 64.7317L716.578 64.1882C717.156 61.7037 720.752 60.5391 722.037 62.3248C722.486 62.946 722.615 63.6447 722.486 64.4212L722.294 64.887C721.651 67.6821 720.046 70.0114 718.954 72.8065C717.734 75.9898 716.193 79.5614 714.844 83.0553C712.211 90.4313 709.963 97.8849 707.202 105.416C703.605 115.354 699.495 124.594 697.119 135.541C696.605 137.638 696.22 139.423 695.834 140.899C694.999 144.393 694.293 147.188 693.265 150.06C693.137 150.371 693.073 150.682 692.944 150.992C692.816 151.691 692.752 152.312 692.687 152.856C692.366 155.107 691.146 158.912 688.834 157.359C687.935 156.815 686.972 155.884 686.394 155.107C686.201 154.719 686.073 154.564 686.073 154.486C686.394 153.554 686.586 152.7 686.715 151.924C686.843 151.691 686.843 151.38 686.972 151.07V150.992C687.293 146.334 687.293 137.638 686.586 133.911C685.366 127.855 684.403 121.488 683.183 115.199C682.027 108.289 681.577 100.913 680.55 93.9252C680.164 90.0431 679.843 86.2386 679.265 82.6671C679.265 82.4341 679.137 82.2012 679.137 81.9683Z" fill="white"/>
<path d="M748.891 113.569C743.303 114.656 736.945 116.131 732.257 117.606C731.936 118.926 731.294 120.323 730.844 121.643C730.523 122.886 730.009 124.05 729.624 125.215L728.404 128.476C727.633 130.883 727.119 132.203 726.156 134.377C725.45 136.318 724.807 137.715 724.037 139.579C722.431 144.082 720.89 149.905 719.349 154.098C719.22 154.564 719.027 155.107 719.027 155.651L718.771 156.815C718.449 160.464 712.22 161.241 712.862 157.281L712.926 156.116C713.44 153.321 714.917 149.595 715.752 146.799C718.449 137.327 722.174 130.106 725.064 121.1C725.193 120.634 725.385 120.168 725.514 119.78C723.844 120.323 723.523 120.401 722.56 121.022C719.027 123.429 716.33 118.926 719.67 116.674L720.505 116.131C721.339 115.51 725.45 114.034 727.762 113.336C727.954 113.025 728.018 112.715 728.083 112.404C730.138 106.814 731.422 103.242 733.734 98.3508C734.376 96.7979 735.083 95.8662 735.725 94.2357C737.202 90.8195 738.936 88.3349 740.606 85.3069C741.698 83.3658 742.661 82.3565 744.138 80.726C745.551 79.1732 746.322 77.7756 747.606 76.378C747.67 76.2228 747.863 76.0675 747.927 75.9898C748.441 75.1358 749.276 74.437 750.496 74.1264C753.579 73.2724 754.671 75.3687 754.735 77.465C754.671 78.1638 754.671 78.8626 754.671 79.5614L754.735 81.2695C755.313 85.6951 755.505 89.6548 755.377 94.6239C755.249 98.8943 755.249 102.699 754.992 107.047C755.698 106.969 756.533 106.814 757.304 106.736L761.478 106.115C764.175 105.804 765.46 108.522 763.34 110.618C762.698 111.239 761.992 111.705 761.157 111.783L756.983 112.404C756.276 112.482 755.57 112.559 754.927 112.637C755.184 113.336 754.863 114.5 754.927 115.354C754.927 116.674 755.184 120.945 755.056 122.342V124.516C755.249 128.864 754.606 133.445 754.671 137.871C754.542 141.364 754.542 144.703 754.735 147.886C754.863 149.206 754.606 150.604 754.735 152.001C754.671 152.856 754.414 154.486 754.349 155.34C754.028 156.815 754.671 157.514 753.579 158.834C751.845 160.93 748.441 160.697 748.313 158.213C748.248 157.514 748.184 156.893 748.313 155.961L748.505 154.253C748.505 153.71 748.569 153.244 748.634 152.933C748.569 151.846 748.762 150.682 748.762 149.595C748.441 147.964 748.634 145.635 748.505 143.849C748.313 138.181 748.955 131.582 748.955 125.836C748.891 123.662 749.083 122.73 748.955 120.091C748.891 117.295 748.826 116.053 748.891 113.569ZM734.505 111.317C737.844 110.23 744.716 108.755 748.891 107.978C748.955 107.357 748.955 106.814 748.955 106.27L749.147 103.009C749.276 98.5837 749.404 93.6922 749.147 89.5772C748.955 87.2479 748.955 85.4622 748.762 83.4435C748.184 84.1423 747.221 85.1516 746.9 85.5398C746.386 85.928 746.193 86.6268 745.872 87.2479C745.101 88.4902 744.267 90.1207 743.367 91.2853L742.789 92.217C741.441 94.5463 740.413 97.3414 739.193 99.7483C737.523 103.553 736.046 107.202 734.505 111.317Z" fill="white"/>
<path d="M783.352 102.621C783.48 102.543 783.673 102.543 783.801 102.543C785.021 102.388 786.37 102.233 787.654 102.155L791.572 101.689C793.756 101.456 800.884 99.4378 802.618 98.5837C806.985 96.4874 811.16 92.9935 811.16 86.9374C811.16 84.2975 810.967 83.754 809.875 82.2788C808.462 80.0272 806.536 78.552 804.352 76.9215C804.031 76.611 803.003 76.3004 802.104 76.3004C799.279 77.1545 796.838 79.0955 794.655 80.726C789.517 84.841 786.755 92.6053 784.186 99.826C783.994 100.525 783.673 101.456 783.352 102.621ZM781.875 112.637L780.59 111.938C780.141 113.879 779.691 115.432 779.37 116.752C776.929 127.932 776.095 134.765 775.131 145.247C774.553 152.079 774.489 152.39 774.553 156.272C774.553 156.893 774.81 157.126 775.067 157.436C778.663 157.902 776.416 163.725 772.819 163.027C768.773 162.483 768.324 158.679 768.581 154.564C768.581 152.623 769.737 138.259 770.058 136.007C770.7 130.029 771.984 123.429 773.461 116.752C773.847 115.044 774.425 112.792 775.131 110.075C775.067 109.997 775.131 109.997 775.067 109.997C774.746 109.609 774.168 109.298 773.847 108.832C773.269 107.978 771.535 106.037 773.59 104.717C774.682 104.096 775.517 103.863 777.058 103.63C778.599 98.4284 779.819 95.0898 781.746 90.7418C783.544 86.0833 785.792 81.9683 788.875 78.785C791.829 75.9898 795.104 73.5829 798.958 71.8748C801.013 70.7878 802.682 70.1667 805.508 70.7878C807.82 71.3313 808.848 72.3407 810.325 73.35L811.738 74.5923C813.729 76.2228 815.784 78.6297 816.747 81.1142C817.389 82.7447 817.453 88.102 816.554 90.6642C814.178 97.1085 809.875 100.835 804.545 103.553C802.169 104.717 794.334 106.969 791.187 107.357C789.838 107.513 788.297 107.668 787.012 107.823C786.755 107.901 786.627 107.901 786.37 107.901C788.554 109.065 791.058 110.463 792.856 112.016C794.334 113.336 797.673 118.615 798.444 120.712C799.214 122.886 800.242 124.982 801.013 127.234C802.169 130.728 802.682 131.349 804.673 136.162C807.306 142.84 808.591 147.964 812.637 152.856C812.958 153.321 813.343 153.71 813.664 154.098C814.05 154.641 814.499 155.651 815.013 157.126C815.848 159.533 815.976 159.843 816.49 161.862C816.94 164.114 814.242 166.676 811.802 165.666C810.453 165.123 810.325 163.57 810.068 162.25C809.875 161.862 808.719 158.446 808.398 158.058C807.627 156.893 806.921 156.272 806.022 154.952C802.169 149.362 799.6 139.812 796.517 133.212C795.554 131.038 794.976 129.097 794.012 126.923L792.664 123.662C792.343 122.653 791.508 121.333 790.544 119.625C788.618 116.907 788.554 116.597 786.242 115.121C784.764 114.19 783.223 113.413 781.875 112.637Z" fill="white"/>
<path d="M897.755 73.7382C899.296 73.8159 900.259 75.2134 899.938 76.7663C899.553 78.2415 897.947 79.4061 896.47 79.4837C895.443 80.6484 894.929 81.7353 893.195 84.6081C889.663 90.276 887.094 93.304 883.819 98.739C880.286 104.64 876.754 110.929 873.543 117.218C874.25 118.926 872.901 120.867 871.295 121.488C868.855 126.535 865.644 131.116 862.754 135.619C860.378 139.346 856.332 145.014 853.699 148.741C851.515 151.38 849.139 156.582 847.212 159.067C846.634 159.688 846.313 160.232 845.992 160.62L845.093 161.707C844.386 162.638 843.808 163.337 842.588 163.725C839.955 164.502 838.221 162.173 839.891 159.688C840.34 159.067 840.79 158.523 841.304 157.902L842.524 156.349C842.909 155.806 843.359 155.185 843.744 154.486C844.772 152.7 847.919 147.576 849.01 146.023C850.231 144.47 854.341 138.492 855.433 136.784C859.543 131.116 863.268 124.904 866.671 118.46C866.607 118.382 866.671 118.382 866.671 118.305C865.644 115.432 863.268 111.162 861.855 108.677C861.148 107.357 856.91 101.379 856.332 100.059C855.111 97.8849 854.02 96.1768 852.735 93.7699C851.515 91.5183 850.744 90.3536 849.524 88.5679C847.662 86.0057 846.955 84.3752 845.414 81.5024L844.001 79.0179C843.423 78.0085 842.396 76.9215 843.038 75.2134C843.873 72.8841 847.597 71.7972 848.625 73.9711C849.845 76.5333 852.35 80.6484 853.699 83.0553C854.405 84.3752 855.433 85.5398 856.332 86.9374C857.488 88.4902 859.157 92.217 860.249 93.8475C861.983 96.7203 862.112 97.4967 864.552 100.835C867.57 105.183 868.277 106.581 870.46 111.084C872.259 107.978 874.057 104.795 875.855 101.689C878.681 96.7203 881.442 92.2947 884.589 87.9467C885.745 86.3162 890.112 79.1732 891.204 77.6203C892.553 75.7569 894.801 73.5053 897.177 73.7382H897.755Z" fill="white"/>
</svg>
