<svg width="194" height="576" viewBox="0 0 194 576" fill="none" xmlns="http://www.w3.org/2000/svg">
<path d="M-0.60791 482.192C-0.607911 470.576 1.15209 461.072 4.6721 453.68C8.0161 446.112 11.9761 439.424 16.5521 433.616C19.1921 430.096 19.5441 427.456 17.6081 425.696C15.4961 423.76 10.6561 422.44 3.0881 421.736L3.0881 415.664C9.9521 416.016 18.3121 416.28 28.1681 416.456C37.8481 416.632 50.7841 416.72 66.9761 416.72V422.792C58.8801 423.672 52.0161 424.816 46.3841 426.224C40.5761 427.632 35.4721 429.568 31.0721 432.032C26.6721 434.496 22.7121 438.016 19.1921 442.592C14.7921 446.992 11.5361 452.096 9.4241 457.904C7.3121 463.712 6.2561 469.784 6.2561 476.12C6.2561 485.624 8.80809 493.72 13.9121 500.408C18.8401 507.096 25.6161 512.552 34.2401 516.776C42.8641 520.824 52.6321 523.816 63.5441 525.752C74.2801 527.688 85.4561 528.656 97.0721 528.656C108.864 528.656 120.216 527.688 131.128 525.752C141.864 523.64 151.456 520.472 159.904 516.248C168.352 511.848 175.04 506.216 179.968 499.352C184.896 492.488 187.36 484.392 187.36 475.064C187.36 469.256 186.304 463.448 184.192 457.64C181.904 451.656 178.648 446.552 174.424 442.328C169.144 435.464 162.632 430.8 154.888 428.336C146.968 425.872 136.496 424.024 123.472 422.792V416.72C140.192 416.72 153.744 416.632 164.128 416.456C174.336 416.28 182.96 416.016 190 415.664V421.736C182.432 422.44 177.68 423.672 175.744 425.432C173.808 427.016 174.072 429.744 176.536 433.616C181.112 440.128 185.16 447.08 188.68 454.472C192.024 461.688 193.696 471.016 193.696 482.456C193.696 501.112 189.912 517.48 182.344 531.56C174.776 545.464 163.864 556.288 149.608 564.032C135.352 571.776 118.192 575.648 98.1281 575.648C78.4161 575.648 61.1681 571.688 46.3841 563.768C31.6001 555.672 20.0721 544.672 11.8001 530.768C3.5281 516.688 -0.607909 500.496 -0.60791 482.192Z" fill="white"/>
<path d="M3.08809 249.587H8.36809C8.54409 255.219 9.24809 259.531 10.4801 262.523C11.5361 265.339 13.6481 267.187 16.8161 268.067C19.8081 268.947 24.5601 269.387 31.0721 269.387L162.016 269.387C168.352 269.387 173.104 268.947 176.272 268.067C179.44 267.011 181.552 265.075 182.608 262.259C183.664 259.443 184.368 255.219 184.72 249.587H190C189.648 254.339 189.472 260.323 189.472 267.539C189.296 274.755 189.208 282.059 189.208 289.451C189.208 298.075 189.296 306.083 189.472 313.475C189.472 320.691 189.648 326.587 190 331.163H184.72C184.368 325.531 183.664 321.307 182.608 318.491C181.552 315.675 179.44 313.827 176.272 312.947C173.104 311.891 168.352 311.363 162.016 311.363H31.0721C24.5601 311.363 19.8081 311.891 16.8161 312.947C13.6481 313.827 11.5361 315.763 10.4801 318.755C9.24809 321.571 8.54409 325.707 8.36809 331.163H3.0881C3.2641 326.587 3.44009 320.691 3.61609 313.475C3.79209 306.083 3.88009 298.075 3.88009 289.451C3.88009 282.059 3.79209 274.755 3.61609 267.539C3.44009 260.323 3.26409 254.339 3.08809 249.587Z" fill="white"/>
<path d="M3.08808 -2.79047L8.36808 -2.79047C9.07208 2.84153 10.5681 7.06553 12.8561 9.88153C14.9681 12.6975 18.4001 14.6335 23.1521 15.6895C27.9041 16.5695 34.5921 17.0095 43.2161 17.0095L190.528 17.0095C190.352 19.1215 190.264 21.3215 190.264 23.6095C190.264 25.7215 190.352 28.0095 190.528 30.4735L45.3281 145.05H146.704C156.384 145.05 163.864 144.522 169.144 143.466C174.248 142.41 177.944 140.122 180.232 136.602C182.344 132.906 183.84 127.186 184.72 119.442H190C189.648 122.786 189.472 127.186 189.472 132.642C189.296 138.098 189.208 143.202 189.208 147.954C189.208 152.002 189.296 156.138 189.472 160.362C189.472 164.586 189.648 168.106 190 170.922H184.72C183.84 165.29 182.344 161.066 180.232 158.25C178.12 155.434 174.688 153.586 169.936 152.706C165.008 151.65 158.32 151.122 149.872 151.122H31.0721C24.5601 151.122 19.8081 151.65 16.8161 152.706C13.6481 153.586 11.5361 155.522 10.4801 158.514C9.24809 161.33 8.54408 165.466 8.36809 170.922H3.08809C3.26409 168.106 3.44009 164.586 3.61608 160.362C3.79208 156.138 3.88008 152.002 3.88008 147.954C3.88008 143.73 3.79208 139.682 3.61608 135.81C3.44009 131.938 3.26409 128.418 3.08809 125.25L129.016 23.0815L46.3841 23.0815C36.7041 23.0815 29.3121 23.6095 24.2081 24.6655C18.9281 25.7215 15.1441 28.0975 12.8561 31.7935C10.5681 35.3135 9.07208 40.9455 8.36808 48.6895H3.08809C3.26408 45.3455 3.44008 40.9455 3.61608 35.4895C3.79208 30.0335 3.88008 24.9295 3.88007 20.1775C3.88007 15.9535 3.79208 11.8175 3.61608 7.76952C3.44008 3.54553 3.26408 0.0255291 3.08808 -2.79047Z" fill="white"/>
</svg>
