<svg width="669" height="201" viewBox="0 0 669 201" fill="none" xmlns="http://www.w3.org/2000/svg">
<g filter="url(#filter0_b_233_491)">
<path d="M25.8261 3.56785V46.9413C25.8261 53.5101 23.9907 58.9197 20.3199 63.1701C16.6491 67.4205 11.9157 69.5457 6.11973 69.5457C4.57413 69.5457 2.64213 69.1915 0.32373 68.4831V49.9359C1.16093 50.3223 2.03033 50.5155 2.93193 50.5155C5.44353 50.5155 6.69933 48.4869 6.69933 44.4297V3.56785H25.8261Z" fill="white"/>
<path d="M35.4582 21.6321H53.136V48.1971C53.136 50.9019 54.2308 52.2543 56.4204 52.2543C57.3864 52.2543 58.1592 51.9001 58.7388 51.1917C59.3828 50.4189 59.7048 49.4207 59.7048 48.1971V21.6321H77.3826V47.9073C77.3826 54.0253 75.354 59.1773 71.2968 63.3633C67.2396 67.5493 62.2808 69.6423 56.4204 69.6423C50.0448 69.6423 44.9572 67.5493 41.1576 63.3633C37.358 59.1773 35.4582 53.5423 35.4582 46.4583V21.6321Z" fill="white"/>
<path d="M117.183 21.6321V40.1793C114.672 40.1793 112.965 40.6623 112.064 41.6283C111.162 42.5299 110.421 46.1685 109.842 52.5441C109.262 58.8553 106.751 63.0735 102.307 65.1987C97.9277 67.2595 94.8043 68.4509 92.9367 68.7729C91.0691 69.0949 88.6541 69.2559 85.6917 69.2559H83.2767V50.6121H84.0495C86.9475 50.6121 89.0083 50.0325 90.2319 48.8733C91.5199 47.6497 92.1639 45.5889 92.1639 42.6909C92.1639 38.3761 92.4537 35.3171 93.0333 33.5139C93.6129 31.7107 95.1907 29.2957 97.7667 26.2689C100.407 23.1777 105.108 21.6321 111.87 21.6321H117.183Z" fill="white"/>
<path d="M138.748 3.56785V21.6321H146.669V40.2759H138.748C138.748 42.4655 138.844 44.0433 139.038 45.0093C139.231 45.9753 139.843 47.0701 140.873 48.2937C141.903 49.5173 143.932 50.1291 146.959 50.1291V68.6763L144.93 68.7729C140.487 68.7729 136.397 67.6781 132.662 65.4885C128.927 63.2989 126.061 60.3365 124.065 56.6013C122.068 52.8661 121.07 48.1005 121.07 42.3045V3.56785H138.748Z" fill="white"/>
<path d="M208.199 31.9683H226.457C230.385 36.8627 232.349 42.0147 232.349 47.4243C232.349 53.6711 230.031 58.9519 225.394 63.2667C220.822 67.5171 215.155 69.6423 208.393 69.6423C199.699 69.6423 192.293 66.3257 186.175 59.6925C180.057 53.0593 176.998 44.9771 176.998 35.4459C176.998 25.9147 180.089 17.9613 186.271 11.5857C192.454 5.21005 200.246 2.02225 209.648 2.02225C212.804 2.02225 216.314 2.66625 220.178 3.95425V23.1777C217.151 21.7609 214.382 21.0525 211.87 21.0525C207.362 21.0525 203.691 22.4371 200.858 25.2063C198.024 27.9755 196.607 31.6141 196.607 36.1221C196.607 40.6945 197.895 44.3331 200.471 47.0379C203.112 49.6783 206.718 50.9985 211.291 50.9985C214.189 50.9985 215.638 50.1613 215.638 48.4869C215.638 47.1989 214.704 46.5549 212.836 46.5549H208.199V31.9683Z" fill="white"/>
<path d="M256.43 20.9559V68.0001H238.752V20.9559H256.43ZM247.736 -0.00634766C250.119 -0.00634766 252.18 0.830853 253.918 2.50525C255.657 4.17966 256.527 6.17606 256.527 8.49445C256.527 11.0061 255.722 13.0347 254.112 14.5803C252.502 16.1259 250.376 16.8987 247.736 16.8987C245.16 16.8987 243.035 16.1259 241.36 14.5803C239.686 13.0347 238.849 11.0061 238.849 8.49445C238.849 6.17606 239.718 4.17966 241.457 2.50525C243.196 0.830853 245.289 -0.00634766 247.736 -0.00634766Z" fill="white"/>
<path d="M302.126 20.9559L280.197 69.8355L258.462 20.9559H275.271L280.294 33.6105L285.8 20.9559H302.126Z" fill="white"/>
<path d="M350.306 47.3277H323.451C323.065 45.7821 322.872 44.5263 322.872 43.5603C322.872 41.9503 323.162 40.4047 323.741 38.9235H332.628C331.984 35.4459 330.02 33.7071 326.736 33.7071C324.611 33.7071 322.84 34.6731 321.423 36.6051C320.006 38.4727 319.298 40.8555 319.298 43.7535C319.298 46.9091 319.942 49.4207 321.23 51.2883C322.518 53.0915 324.289 53.9931 326.543 53.9931C327.637 53.9931 328.507 53.8321 329.151 53.5101C329.795 53.1881 330.632 52.4797 331.662 51.3849L341.805 63.4599C337.04 67.1307 331.823 68.9661 326.156 68.9661C319.201 68.9661 313.341 66.6155 308.575 61.9143C303.809 57.2131 301.427 51.3849 301.427 44.4297C301.427 37.4745 303.809 31.6463 308.575 26.9451C313.341 22.2439 319.233 19.8933 326.253 19.8933C333.079 19.8933 338.811 22.2117 343.448 26.8485C348.084 31.4853 350.403 37.2169 350.403 44.0433L350.306 47.3277Z" fill="white"/>
<path d="M381.577 68.0001V21.6321C381.577 15.9005 383.316 11.1993 386.793 7.52845C390.271 3.85765 394.779 2.02225 400.317 2.02225C407.015 2.02225 412.135 5.04905 415.677 11.1027C417.802 7.88265 420.088 5.56425 422.535 4.14746C425.047 2.73066 428.138 2.02225 431.809 2.02225C437.605 2.02225 442.016 3.85765 445.043 7.52845C448.134 11.1349 449.68 16.3835 449.68 23.2743V68.0001H430.553V26.0757C430.553 24.0149 430.392 22.6625 430.07 22.0185C429.748 21.3745 429.072 21.0525 428.041 21.0525C426.947 21.0525 426.206 21.4067 425.82 22.1151C425.433 22.7591 425.24 23.9827 425.24 25.7859V68.0001H406.113V26.0757C406.113 24.0793 405.92 22.7591 405.534 22.1151C405.212 21.4067 404.535 21.0525 403.505 21.0525C402.41 21.0525 401.67 21.4067 401.283 22.1151C400.897 22.8235 400.704 24.1437 400.704 26.0757V68.0001H381.577Z" fill="white"/>
<path d="M506.338 47.3277H479.483C479.097 45.7821 478.904 44.5263 478.904 43.5603C478.904 41.9503 479.193 40.4047 479.773 38.9235H488.66C488.016 35.4459 486.052 33.7071 482.768 33.7071C480.642 33.7071 478.871 34.6731 477.455 36.6051C476.038 38.4727 475.329 40.8555 475.329 43.7535C475.329 46.9091 475.973 49.4207 477.261 51.2883C478.549 53.0915 480.32 53.9931 482.574 53.9931C483.669 53.9931 484.539 53.8321 485.183 53.5101C485.827 53.1881 486.664 52.4797 487.694 51.3849L497.837 63.4599C493.072 67.1307 487.855 68.9661 482.188 68.9661C475.233 68.9661 469.372 66.6155 464.607 61.9143C459.841 57.2131 457.458 51.3849 457.458 44.4297C457.458 37.4745 459.841 31.6463 464.607 26.9451C469.372 22.2439 475.265 19.8933 482.285 19.8933C489.111 19.8933 494.843 22.2117 499.479 26.8485C504.116 31.4853 506.435 37.2169 506.435 44.0433L506.338 47.3277Z" fill="white"/>
<path d="M553.354 3.56785V21.6321H561.275V40.2759H553.354C553.354 42.4655 553.451 44.0433 553.644 45.0093C553.837 45.9753 554.449 47.0701 555.479 48.2937C556.51 49.5173 558.538 50.1291 561.565 50.1291V68.6763L559.537 68.7729C555.093 68.7729 551.004 67.6781 547.268 65.4885C543.533 63.2989 540.667 60.3365 538.671 56.6013C536.675 52.8661 535.676 48.1005 535.676 42.3045V3.56785H553.354Z" fill="white"/>
<path d="M587.643 3.56785V23.2743C590.541 21.0847 593.504 19.9899 596.531 19.9899C601.103 19.9899 604.709 21.6321 607.35 24.9165C609.99 28.2009 611.31 32.6445 611.31 38.2473V68.0001H593.633V43.1739C593.633 41.1131 593.407 39.7607 592.956 39.1167C592.57 38.4083 591.765 38.0541 590.541 38.0541C588.609 38.0541 587.643 39.5031 587.643 42.4011V68.0001H569.966V3.56785H587.643Z" fill="white"/>
<path d="M668.03 47.3277H641.175C640.789 45.7821 640.595 44.5263 640.595 43.5603C640.595 41.9503 640.885 40.4047 641.465 38.9235H650.352C649.708 35.4459 647.744 33.7071 644.459 33.7071C642.334 33.7071 640.563 34.6731 639.146 36.6051C637.73 38.4727 637.021 40.8555 637.021 43.7535C637.021 46.9091 637.665 49.4207 638.953 51.2883C640.241 53.0915 642.012 53.9931 644.266 53.9931C645.361 53.9931 646.23 53.8321 646.874 53.5101C647.518 53.1881 648.356 52.4797 649.386 51.3849L659.529 63.4599C654.763 67.1307 649.547 68.9661 643.88 68.9661C636.924 68.9661 631.064 66.6155 626.299 61.9143C621.533 57.2131 619.15 51.3849 619.15 44.4297C619.15 37.4745 621.533 31.6463 626.299 26.9451C631.064 22.2439 636.957 19.8933 643.976 19.8933C650.803 19.8933 656.534 22.2117 661.171 26.8485C665.808 31.4853 668.126 37.2169 668.126 44.0433L668.03 47.3277Z" fill="white"/>
<path d="M6.11973 179V137.269C6.11973 129.992 8.30933 124.131 12.6885 119.688C17.0677 115.244 22.9281 113.022 30.2697 113.022C37.4825 113.022 43.0209 115.147 46.8849 119.398C50.7489 123.648 52.6809 129.798 52.6809 137.848V179H33.5541V137.945C33.5541 134.017 32.1373 132.052 29.3037 132.052C26.5989 132.052 25.2465 134.017 25.2465 137.945V179H6.11973Z" fill="white"/>
<path d="M80.6821 131.956V179H63.0043V131.956H80.6821ZM71.9881 110.994C74.3709 110.994 76.4317 111.831 78.1705 113.505C79.9093 115.18 80.7787 117.176 80.7787 119.494C80.7787 122.006 79.9737 124.035 78.3637 125.58C76.7537 127.126 74.6285 127.899 71.9881 127.899C69.4121 127.899 67.2869 127.126 65.6125 125.58C63.9381 124.035 63.1009 122.006 63.1009 119.494C63.1009 117.176 63.9703 115.18 65.7091 113.505C67.4479 111.831 69.5409 110.994 71.9881 110.994Z" fill="white"/>
<path d="M116.235 159.583V175.812C113.594 176.714 111.147 177.165 108.893 177.165C103.161 177.165 98.3315 175.039 94.4031 170.789C90.4747 166.539 88.5105 161.258 88.5105 154.947C88.5105 148.249 90.8933 142.582 95.6589 137.945C100.424 133.308 106.253 130.99 113.143 130.99C117.394 130.99 121.322 131.924 124.929 133.791C128.535 135.659 131.336 138.364 133.333 141.906C135.394 145.448 136.424 150.503 136.424 157.072V172.528C136.424 180.964 134.041 187.791 129.276 193.007C124.51 198.223 118.295 200.832 110.632 200.832C108.249 200.832 105.319 200.252 101.841 199.093V183.057C104.224 184.345 106.542 184.989 108.796 184.989C115.43 184.989 118.746 180.932 118.746 172.818V155.14C118.746 150.245 116.782 147.798 112.854 147.798C111.179 147.798 109.698 148.442 108.41 149.73C107.122 151.018 106.478 152.499 106.478 154.174C106.478 155.977 107.058 157.49 108.217 158.714C109.44 159.873 110.986 160.453 112.854 160.453C113.755 160.453 114.335 160.421 114.592 160.356C114.914 160.292 115.462 160.034 116.235 159.583Z" fill="white"/>
<path d="M164.452 114.568V134.274C167.35 132.085 170.313 130.99 173.34 130.99C177.912 130.99 181.518 132.632 184.159 135.916C186.799 139.201 188.119 143.644 188.119 149.247V179H170.442V154.174C170.442 152.113 170.216 150.761 169.765 150.117C169.379 149.408 168.574 149.054 167.35 149.054C165.418 149.054 164.452 150.503 164.452 153.401V179H146.775V114.568H164.452Z" fill="white"/>
<path d="M214.217 114.568V132.632H222.138V151.276H214.217C214.217 153.465 214.313 155.043 214.506 156.009C214.7 156.975 215.311 158.07 216.342 159.294C217.372 160.517 219.401 161.129 222.428 161.129V179.676L220.399 179.773C215.955 179.773 211.866 178.678 208.131 176.488C204.396 174.299 201.53 171.336 199.533 167.601C197.537 163.866 196.539 159.1 196.539 153.304V114.568H214.217Z" fill="white"/>
</g>
<defs>
<filter id="filter0_b_233_491" x="-143.676" y="-144.006" width="955.803" height="488.838" filterUnits="userSpaceOnUse" color-interpolation-filters="sRGB">
<feFlood flood-opacity="0" result="BackgroundImageFix"/>
<feGaussianBlur in="BackgroundImageFix" stdDeviation="72"/>
<feComposite in2="SourceAlpha" operator="in" result="effect1_backgroundBlur_233_491"/>
<feBlend mode="normal" in="SourceGraphic" in2="effect1_backgroundBlur_233_491" result="shape"/>
</filter>
</defs>
</svg>
